<mxfile host="Electron" agent="Mozilla/5.0 (Windows NT 10.0; Win64; x64) AppleWebKit/537.36 (KHTML, like Gecko) draw.io/26.1.1 Chrome/132.0.6834.210 Electron/34.3.3 Safari/537.36" version="26.1.1">
  <diagram id="C5RBs43oDa-KdzZeNtuy" name="Page-1">
    <mxGraphModel dx="1105" dy="755" grid="1" gridSize="10" guides="1" tooltips="1" connect="1" arrows="1" fold="1" page="1" pageScale="1" pageWidth="827" pageHeight="1169" math="0" shadow="0">
      <root>
        <mxCell id="WIyWlLk6GJQsqaUBKTNV-0" />
        <mxCell id="WIyWlLk6GJQsqaUBKTNV-1" parent="WIyWlLk6GJQsqaUBKTNV-0" />
        <mxCell id="1HgmLcC0vFKbbUfVbBRL-0" value="" style="shape=image;verticalLabelPosition=bottom;labelBackgroundColor=default;verticalAlign=top;aspect=fixed;imageAspect=0;image=data:image/png,iVBORw0KGgoAAAANSUhEUgAABGYAAALTCAIAAADb/JNYAAAAKnRFWHRjb3B5bGVmdABHZW5lcmF0ZWQgYnkgaHR0cHM6Ly9wbGFudHVtbC5jb212zsofAAACrmlUWHRwbGFudHVtbAABAAAAeJyFVV1P2zAUffev8GMrFrSxMU3VHhB0H2KthqDwGjn2bbHm2JHtdEys/52bxE6ctmw8IOXcc6/v5+mF88z6ulSEK+YcvTIanqTR80v6TCmh+HfCEeNI679crfAzf2SF9IwjOxItjGCywxAh8PeBHANnui7BmhmV2keIG+cRWSvDesyCA7tlgs1oYYwaqMLLCsnO2x7JAQsSZhaxLrEhJXC5kK4yWhYK3GQaEmdlITH1zjmiG/BdhhFw+wAycgGOW1k1wRPeMbhhV9Kl4fKmgtSefjf2oaSUNUYJ3ZHDNs8NVtj2OkSrK7A5DWFo1rx0fEArzDu4vupJj7te1UzY+r/e5Dl61uAqEH2amTZlYaGd6Zs2QMZB1Iq1S9IjChHbkUjzzmj9upCTaUygMNYew0sj5FryY6Zkx4MJZ+nBym7bel4ziy7jdGZjpJ1XW8NoriOk47RVjUkp1P1L2h7uIn80HhR9HkjxYnBZ+yYh2l3BHoirxJUE7SFF18AfWR7CjOhMeymYwCti7tDDMSXFyCHc44AkZwlKllJjl8NDsfZY2N6x1cyKQ/Iwq2BweWVsHoqKvdvFpt12JNQ5D08+7VpQidyBAt4sc8z7qJCktCaX4YUVLniqdiTmuSdXJ4lEJGhQQFz30KShgUkiuLYbZsdPDWqGtkQIer1LmjGYP//NsgPZoK8Tgjr8g9GLALkALZrfFnKjcG/ulwu6Beuarrw7PXt7dn76vgDPzif3+pc2vzXlpqwkBveyhCmZfLtZUGdqy4GiaHsri9qj85Rcsy2jt7VueDP6swJ9Pf8RAfpFb6U1usT5k+uH5UD4+CG7lJ7e4QKApQ9LMoc1w91BD5yO1JsZvV99zT6RBdO4bRuMDZpcGYxr/6DtjrwAfV4yJCrT7lAAAIAASURBVHhe7L17WBVHnv8vKCaCURhUNMYMfpd1NFw03BXwAsZbvKCAS1TiRIySGNYMGjHOEGUkw5gIio4TxkvEGFERIhAT2cRBzUZwjULMuOp4CRpBnawo/efuP7/fZ08ltWV3V3OAw6Xp9+s5D093ddWn6zR9qup1TndXj/8PAAAAAAAAAICEHuoEAAAAAAAAAAA/A2UCAAAAAAAAAClQJgAAAAAAAACQAmUCAAAAAAAAAClQJgAAAAAAAACQAmUCAAAAAAAAAClQJgAAAMBkNDU1vffee3/4wx/eBaCjyMrKOnXqlPpcBMAaQJkAAAAAk7F58+Y7d+4oAHQsRUVFhw4dUp+OAFgAKBMAAABgMv7whz+oB7MAdAh07qlPRwAsAJQJAAAAMBlQJtBZvPfee+rTEQALAGUCAAAATAaUCXQWUCZgTaBMAAAAgMkwnTI1NTWVHi977Tevj5sYMcpv1ODBg+kvLVNK+fFPaau6AOiqQJmANYEyAQAAACbDXMpUXF4cHhUePC5kafrynKK8PX/dV3KxnP7SMqVQOm39pPyouhjokkCZgDWBMgEAAAAmwyzK9PDhw9d/syIgKCDjz5mkSbIXbaU8b6S9QfnVIUAXA8oErAmUCQAAADAZplAm8p/Z8XNiZk0+UH1Yq0mqF+WhnHPiY2FNXRwoE7AmUCYAAADAZJhCmd5ISyULOlJbKqpR8bdl6/70Tuwr86bET0tcsXBz0Va+iXJS/n9d9a/qQKArAWUC1gTKBAAAAJiMrq9Mxz47FhA0+uOqx35fKjh94FejR/YQcOntImag/FTqs88/U4fT8Le//e38+fNiyt27d0+dOvWPf/xDTNSyYcOGvXv3qlNtZGdn5+fnq1Nbi2OjdR2gTMCaQJkAAAAAk9HFlampqSliQqT2/qXAyCBmSsN/9f8mz5vyz/4jVMpUYruvKXJCZLPP0FuwYEFkZKSYUlFRQZG/+eYbMVHLhAkT3nzzTXWqjbi4uDfeeIMtL126NDMz8/HtLUOM1p2AMgFrAmUCAAAATEYXV6YTJ06ERISqXOi9g7nMlyKnjy/+towlpm9Zp8pGr9CIUIqgDvo47aFMIlOnTn3ttdfUqQDKBKwKlAkAAAAwGV1cmdLWrHo1fblKhBJfX8CU6c+f7dRqkviisqvTV6uDPk6zykSrlCcoKCgsLCw1NfWHH35g6UyZ/vjHPwYHB9OmHTt28AhZWVlsNTc3d8iQIT4+PvNsXL16VRaNUVxcPH36dF9f3/Hjx1NZVTQGLVOF/fz8EhMTa2trWWJGRsaePXvy8vJCQ0MjIiLE/F0WKBOwJlAmAAAAwGR0cWWaED0h53CeSoQip0WR0rh7umsdSfWishOjJ6qDPg4JDDlGo8Bnn30mKhMdIpKW0tLSwsLC8PDwcePGsXRSJi8vrzlz5pSUlGRmZrq4uOzevZttevHFF1999VVaOHXq1JgxY6ZOnfqRjYaGBlk0Ytu2bRRk1apVZWVl5D/8Jywejdi0aVOfPn2ys7NppzNmzPD09Lx165Ziq8zQoUPj4uIOHjy4fv16Z2fn8vJyHrlrAmUC1gTKBAAAAJiMLq5Mvv5+eyo/UonQ8xGBpDTP+vxS60iqF5X18/dTB30cUib2m5UK3Qvzvv/+e76JLMXb2/vRo0ds08qVK0eMGMGWRckxuDBPjPbgwQMPD49169apMwnRSOfc3d03btzI0ml12LBha9asUWyVITfjN27FxMTwCnRZoEzAmkCZAAAAAJPRxZWJlKDowlGVCAWPDyHTeNp7qNaRVC8qSxHUQR+HXSZXK7B3715RmW7evJmWlhYVFeXr6ztq1CgnJ6fi4mLFZimLFy/mcUpLS2nT/fv3FUNlkkWrqqqindJfnpPDo1HdKE91dTXflJSUNG3aNMVWGXEvycnJs2bN4qtdEygTsCZQJgAAAMBkdHFl8tP7lWnyvClkDk/0eVI1U5P29b+/MgX4q4M+TrP3MgUGBk6ZMuXo0aPkM+fOnXNxcTlw4IBis5SUlBRe6osvvqBSdXV1iqEyyaKdPHmSivN7k0R4tDNnzlCeixcv8k3Lli0j+1I0z6Kg/FSKr3ZNoEzAmkCZAAAAAJPRxZVpUswk7b1MyzNeZ9fOvZP/e60miS8qGx0TrQ76OMbKdO3aNVq+cOEC20QLtMqVieCl8vLy+vXrx5ZFZaLl5cuXs2WDaLdv33Z2di4oKGCbRHi0hoYGJyenwsJCvikiIoL90gVlAsAsQJkAAAAAk9HFlentt99OeXuFSoT2ntrv8kRvko3Bzw7JKfpfofrTp/ljX4jQKtPr696gCOqgj2OsTPfv33dxcdmyZQst19fXR0dHk7RwZerZsydbvnz58vDhw/nsSaIypaSkhIWFXb9+/e7du/fu3ZNFIxISEijI2bNnFdt9SlQNbbT4+Hg/Pz9SL1retWsXFa+srFSgTACYBygTAAAAYDK6uDKdOHFiXNQ4rQv9evUS9kMT0bNXT/qrncqWXhHjI9o+L9P777/fu3dvLy8vNze3d99919XVlSvTyy+/PHr0aE9PT2dn56ioKLIgVkSUnIsXL4aHh/fp04fFlEVTbD8izZ07lyyIAlIedpOSKtqNGzeotrS7/v37s0fnsXQoEwBmAcoEAAAAmIwurkxNTU2Toidt+GCjVodSMla4D/Dg4vRPvj6qDL//yx+io6P5Q+Tawp07d6qrq7kRqaipqRHvL2oW42h1dXVVVVXsdyQZV65coTzsURPmBcoErAmUCQAAADAZXVyZiOPHjweHBH9cdVhrTcXflm0v+2BTYc5f/u1D1aYDVYeDQ4OprDoc6DJAmYA1gTIBAAAAJqPrKxORnp4+c+6sZp+Px1+Uc9a82VRKHQh0JaBMwJpAmQAAAACTYQplevjw4UsvvUQWdKC6SCtIqldh9ZE5cXMoP5VSBwJdCSgTsCZQJgAAAMBkmEKZFJs1paenh4SGbNq1WatJ/PXers2Uh3LCl7o+UCZgTaBMAAAAgMkwizIxjh8/PmnSpKgJ4996Z03+J7s/Pn2INGn/qUP5R3dTyvgJ42kr7l8yC1AmYE2gTAAAAIDJMJcyKbZn6J04ceLtt99+4YUXRo8ePXjwYPpLy5RC6Q55Ph7oGKBMwJpAmQAAAACTYTplAt0GKBOwJlAmAAAAwGRAmUBnAWUC1gTKBAAAAJgMKBPoLKBMwJpAmQAAAACTAWUCnQWUCVgTKBMAAABgMkiZ9u7d+y4AHUtBQQGUCVgTKBMAAABgMvArE+gsoEzAmkCZAAAAAJMBZQKdBZQJWBMoEwAAAGAyoEygs4AyAWsCZQIAAABMBpQJdBZQJmBNoEwAAACAyYAygc4CygSsCZQJAAAAMBkWV6bs7Oz8/Hx1KugQoEzAmkCZAAAAAJNhcWWKi4t744031KmPs3Tp0szMTHUqaDNQJmBNoEzAlPzP//xPfn7+ewBYg+LiYvVnAFgbiyuTPUydOvW1115Tp4I28x6UCVgSKBMwH//93/+9Zs2aa9euqRtyALopRUVFp0+fVn8SgIVpozJlZGTs2bMnLy8vNDQ0IiJix44dfNObb755+PBhvrpp0ybKxpZZqZycnJCQkLFjx1K2pqam7OzsoKCgiRMnHjt2jJdSbCctSYu/v39sbOxXX33FI+zevZsihIWFJSUlsUTae2RkpJ+fX2JiYm1tLUu8efNmRUVFY2MjW1WRlZXF66z7XnJzc4cMGeLj4zPPxtWrVx8rD9oAlAlYEygTMB8ffPABfAlYChqYvvvuu+pPArAwMmU6O2qM9qXOpCgTJkwYOnRoXFzcwYMH169f7+zsXF5ezjaRumzcuJHnJN94+eWXeamnn356wYIFhw4dWrFiRa9evUh7Fi9eTKvJycmurq7kOSwneYubm1tmZiaFXbt2bZ8+faqqqniEF198saCg4MiRI4pNyWgreVdJScmMGTM8PT1v3bpF6Tt37uzRo8f333//Uz0ehyK8+uqrbFn3vZw6dWrMmDHkbB/ZaGhoeDwAaD1QJmBNoEzAfPzxj39UN+EAdHegTEDEQJmaTVFsmkFGQSrOVmNiYriBGCtTUFAQW6ayJD8RERFs9eHDhx4eHh9++CEtNzY2DhgwgAbWbBOxcOHC+Ph4xRZh5MiRfL+U093dne+OVocNG7ZmzRpaJsUi17p///7PMR5DpUy67wUX5rUTUCZgTaBMwHxAmYAFgTIBkbYrk6gTycnJs2bNYsvGyiSWCg0NffPNN/mqr68vq1V1dXWPHj2WLFlCzpOenk4KFB0dTVtZBNoXL1JbW0s5KT9PSUpKmjZtGl+VoVIm3fcCZWonoEzAmkCZgPnofsrU1NR04sSJt99+e/LkyQGjAwYPHjx69OjJL7xAKZTOvz0FVgbKBETarkyi7ZB+kISwZZUyzZ07V1QmsVR4eDhJEV/lBSsrK0mEVq5cuUEgNzdXG+HMmTOU8+LFizxl2bJlUVFRfFWGSpl03wuUqZ2AMgFrAmUC5qObKdPx48cnTpo4Lmrca2+vyCnK2/PXfSUXy+nvliPbU3+7MmJ85KRJkyiPuhiwGFAmINJ+yhQZGbl69Wq+6fnnn2+pMt26dcvZ2Xn//v18E0cVoaGhwcnJqbCwkKdEREQsXryYr8qwR5no7/Lly3k6cBRQJmBNoEzAfHQbZXr48OGaNWsCgwPX//n3pEmy18a//CE4NDg9PZ3yq0MAywBlAiLtp0ypqak+Pj51dXVNTU3btm3r2bNnS5WJSExM9Pb2Zo98IM6dO1dWVqZoIhDx8fFUkD3RZ9euXWRQlZWVtFxeXk6Z6+vrxcwce5QpJSUlLCzs+vXrd+/exW/1DgTKBKwJlAmYj+6hTOQ//5L4L1PmTD1QfVirSaoX5Zk5d9ZLL70Ea7IsUCYgYqBM2pc6k1wzCHIMcphevXq5ubnNnj171qxZrVCme/fuLVq0iIJ4eHi4urrS361btyqaCMSNGzciIyOdnZ379+/PHp3H0lv0xDzd93Lx4kWqIcWkON988w3PANoIlAlYEygTMB/dQ5neWvPWC7OnHqkt1QqS7otykjWlp6erAwFrAGUCIjJlcghNTU3kG5cvX1ZvaCENDQ1VVVWXLl1q9rueK1euUE7Z8/FAlwLKBKwJlAmYj26gTMePHx8T/PzHVerfl4q/LVv3p3diX5k3JX5a4oqFm4u2ilspf3BoMO5rsiZQJiDSrsoEgAFQJmBNoEzAfJhdmZqamsZPHJ/x50yVLxWcPvCr0SN7CLj0dlHl2Zj/h+jo6G55Xf6GDRv27t2rTnUQ2dnZ+fn56lRTAWUCIlAm0FlAmYA1gTIB82F2ZTpx4kRoZJjKhegVGBnETGn4r/7f5HlT/tl/hFaZ6BUxPpIiqIOaH+1NDs2ydOnSzMxMdaoe4p0PJgXKBESgTKCzgDIBawJlAubD7Mq0On31q+nLVSL03sFc5kuR08cXf1vGEtO3rNMq07/+9s23335bHdT8tEKZ7J93BcoEuhlQJtBZQJmANYEyAfNhdmUaP2l8zuE8lQglvr6AKdOfP9up1STxlVOUFzN5sjro42RkZOzevTsnJycsLCwpKYklFhUVkWP4+/vHxsZ+9dVXLLG6ujohISEgICAkJGTRokXsUb+yzIom8uHDh1Uzn2zfvn3dunW0UFFRsWDBgqCgIMqZmpr6ww8/iNm0MGXKy8sLDQ2NiIjYsWOHuJVWIyMj/fz8EhMTa2trKSU3N3fIkCE+Pj7zbFy9epXl1K05lAl0M7qZMn366afUksyfP/+7777rBpfRdm+gTMCaQJmA+TC7Mvn6++6p/EglQpHTosiX3D3dtY6kelFZ/wB/ddDHIf14+umnyRMKCgqOHDmi2JTDzc0tMzOzvLx87dq1ffr0qaqq+vHHHwcOHJicnHzs2DHKtmbNmpqaGllm3cgXLlygavOtjx49oq3sMcE0pMvKyiotLS0sLAwPDx83btxPlZNAkYcOHRoXF3fw4MH169c7OzvT3tmmTZs2sacPl5SUzJgxw9PT89atW6dOnRozZgzZ0Uc2GhoaFHnNoUygm9FFlMn+i2MNOHPmjIuLC7U/W7ZsuXnzZhs/rQ6pEjAAygSsCZQJmA+zK9Mzw54punBUJULPRwSSezzr80utI6leVHbYsGHqoI9D+jFy5Ej+lIjGxsYBAwZQP8czLFy4MD4+vra2lnZ65coVnq7IM7NlVWQiNDT0jTfeYMtHjx6loQ8NevhWxvfff9+jualRKDIpEI8cExPDhk1UH3d3dz7fC63S26fRlaK5MM+g5m0chHUFoExApIsok/0XxxpAn1lfX1++2sZPq0OqBAyAMgFrAmUC5sPsyvSc3q9MweNDSCqe9h6qdSTVy85fmZKTk/lqdXU1BV+yZMnatWvT09PJN6Kjo2mMQo7x3HPPPfvssytXriwrK3vw4IFBZt3IxNatWwcNGkShaDkhIYFPiEnilJaWFhUVRWVHjRrl5ORUXFwsFlRBkcWBDu1l1qxZtMC8jmrFNyUlJU2bNk3RjI0Mat7GQVhXAMoERNquTPR5nD59On1Axo8fn5uby9O1F8Eqkit4dS+O1S2u2BqEiooK1lCIZGdnUx3c3d0pAvs4qz6tugFl1/3qVgk4FigTsCZQJmA+zK5MUZOitPcyTZ43hYb7T/R5stnJbalsTEyMOujjqB6lUFlZScHJizYIsEHS3bt3yXlmzpz51FNPeXt7X7x40SCzNjJx586dJ598sqioqL6+vk+fPgcOHGDpgYGBU6ZMOXr0aFVV1blz51xcXPgmXVSRaczE7OvMmTNUH6oY37Rs2TIyMUWjTAY1hzKBboZMmc6OGqN9qTMpyrZt2+gjuWrVqrKysj179vCPnu5FsLIreLUXx+oWZ5F37txJH8/vv/+e14Fx4sSJ+fPnU+NDEaiU8vinVRZQdt2vtko/7wc4DCgTsCZQJmA+zK5MK1e/qX1i3vKM13vYeCf/91pNEl8pb69o9ol5Kv2gQYazs/P+/fuFLGrInUaMGEG+YZxZq0xEXFzcnDlzaBA2YMAA9lPVtWvX6L1cuHCBZWC3PLVOmWjQ4+TkRAMjvikiImLx4sWKbWglPnzCoOZQJtDNMFCmZlPoQ+rh4cEe0yIiuwhW9wpehvi1haw4W62qqlq7du39+/fZqsiGDRvIc/gq/7QaB+SorvvFhXntDZQJWBMoEzAfZlemL098GRwRohKhvaf2uzzRmzr+wc8OySn639+g/vRp/tgXIrTKNDZqbLPzMmnFJjEx0dvbmz+n4dy5c2VlZZcuXfrkk08ePXqk2Hxj+PDh7LZp3cxsWRuZKCkpeeKJJ/z9/flIhQZGLi4uW7ZsoeX6+vro6GjSntYpExEfH+/n58euBdq1axeFqqyspOWUlJSwsLDr16+T77GboGQ1hzKBbkZblIk+ID2Ep7ZwZBfB6l7ByxD9RFacr8qQKZNBQIPrfqFM7Q2UCVgTKBMwH2ZXJhrcR0yIyPhzpsqFfr16CfuhiejZqyf91U5l+86fMydOmig+fUEXrdjcu3dv0aJFvXr18vDwcHV1pb9bt26lMdOgQYN69+49dOhQcp6ZM2ey74B1M8siEw8fPhwyZAhV+Ouvv+aJ77//PkX28vJyc3Oj4T7FabUy3bhxIzIy0tnZuX///uwqHZZ+8eLF8PBwSuHfMctqDmUC3Yy2KNPJkyfpIyPeaMQwuAhWewUvyyD6iUFxY2TKZBDQ4LpfKFN7A2UC1gTKBMyH2ZWJKP+sPCBo9MdVh1VGlJKxwn2ABxenf/L1EbdS/ueDA48fP64OZzcNDQ00wrh06RJJDk+8cuUKJfJbDji6mVvEnTt3qqur6+vr1RtaBaun7oU9Ktpe8y4IlAmItEWZbt++7ezsXFBQoEo3uAiWw6/gZavixbH2FNdFpkyygMbX/aqu1wUOB8oErAmUCZiPbqBMROqqf42ZNVn7sIfib8u2l32wqTDnL//2oZhOOV+YPfWtNW+pAwFrAGUCIm1RJsX2cMvhw4efPXtWsd0jVFFRwdJ1L4KVXcGraC6O1S3OcpaXl0+YMEH3CxSZMimS+hhf96u9Xhc4FigTsCZQJmA+uocyPXz4MDY+lqzpQLX6tybti/K8MHvK/H+Zb/afTWjoM1sPNiQCBkCZgIiBMmlf6ky2H3Dmzp1LpuHp6dm7d29+x5HuRbCyK3gVzcWxusUZsifmKYbKJAtocN2v9npd4FigTMCaQJmA+egeyqTYrCl11b8GBI3W3tckvmjrmKAxq99abXZfUmyPhTishz2X21kcKBMQkSlTi6irqyMd0n5hoXsRrOwKXi26xduCbkDHXvcL7AfKBKwJlAmYj26jTIzyz8rHjh8XHBGyNH15TlHenr/uI02iv7RMKSERoZEToj4//rm6GLAYUCYg4hBlAqAVQJmANYEyAfPRzZRJsT1D74sTX/zr6pVRk8b7+vsOHjyY/o6PnpC2Ju3EiRO4HB8oUCbwOFAm0FlAmYA1gTIB89H9lAmAZoEyAREoE+gsoEzAmkCZgPmAMgELAmUCIlAm0FlAmYA1gTIB8wFlAhYEygREoEygs4AyAWsCZQLmA8oELAiUCYhYSplyc3O3b9+uTm0JGzZs2Lt3rzq1tWRnZ+fn56tTLQOUCVgTKBMwH6RM1Pm9C4BlKCgoeBfKBAQspUzz589/+eWX1aktYcKECW+++aY6tbWIM0dZECgTsCZQJmA+8CsTsCBQJiACZWoRUCYHAmUC1gTKBMwHlAlYECgTEGmjMmVkZOzevTsnJycsLCwpKYklFhUVTZ061d/fPzY29quvvuKZq6urExISAgICQkJCFi1axKe+1c2vinz48OHly5fzUMT27dvXrVtHCxUVFQsWLAgKCqKcqampP/zwA8/T1NSUlZUVGBg4duzY/Px8UZkMSt28eZO2NjY28hQOUybqO4KDg6ngjh07xK20GhkZ6efnl5iYWFtb22w6lEl9OgJgAaBMwHxAmYAFgTIBEZkynR01RvtSZ7IpxNNPP01D/4KCgiNHjig2PXBzc8vMzCwvL1+7dm2fPn2qqqoo/ccffxw4cGBycvKxY8co55o1a2pqagzyqyJfuHChR48ebBPx6NEj2pqdnU3L9BbIi0pLSwsLC8PDw8eNG8erR2H79u2bm5tLVkbS4uXlxZXJoNTOnTtpX99//z1P4VCtKMicOXNKSkoouIuLC3kd27Rp0yaqPFWJNs2YMcPT0/PWrVsG6QqUCcoELAmUCZgPKBOwIFAmIGKgTM2mKDaFGDlyJJ8mu7GxccCAATQU5hkWLlwYHx9PC7W1teQhV65c4ZsUw/yqyERoaOgbb7zBlo8ePUq6cvPmTb6VQZ5De/nmm29o+cGDB+7u7ps3b2ab6uvr+/Xrp3thnliKIDEjebt///7juf4XqpW3tzcJG1tduXLliBEjFNsboX1t3LiRpdPqsGHDSAtl6WwVyqQ+HQGwAFAmYD6gTMCCQJmASNuVKTk5ma9WV1eTeyxZsoSUIz09ndwgOjra19dXsdnCc8899+yzz5JmlJWVkc8Y51dFJrZu3Tpo0CB2vVxCQgL5BksncUpLS4uKiqKCo0aNcnJyKi4upvSamhoKfv78eR6BgnNlkpUyhmq1ePFivlpaWkoFSa6YENLb4ZuSkpKmTZsmS2fLUCb16QiABYAyAfMBZQIWBMoERNquTOLjECorK8kQSIo2COTm5rKtd+/eJe2ZOXPmU0895e3tffHiRYP82gct3Llz58knnywqKqqvr+/Tp8+BAwdYemBg4JQpU44ePVpVVXXu3DkXFxe26cyZMxT88uXLPMKsWbO4MslKGUO1SklJ4atffPEF7aKuro7ti94R37Rs2TLyMVk6W4YyqU9HACwAlAmYDygTsCBQJiDiWGW6deuWs7Pz/v37hSw6kDuNGDGCTMkgv1aZiLi4uDlz5mzbtm3AgAHsd6pr166Rk1y4cIFlYLc8Mfkhs3JyciopKeHFfXx8mDIZlDJmgg2+mpeX169fP1poaGigfRUWFvJNERERixcvlqWzZSiT+nQEwAJAmYD5gDJ1JEuXLs3MzFSngg4HygREHKtMRGJiore3N39Ow7lz58rKymjh0qVLn3zyCbsLiExp+PDhrEGQ5ddGJsh/nnjiCX9//9dee42l3L9/38XFZcuWLYrNkaKjo0lRuPzExsYGBQXdvn1bsT2GgfSMKZNxqfLycto7pbNVEUrv2bMny3n58mV6F/z2qvj4eD8/P/YYwF27dlHAyspKg3QFygRlApYEygTMB5SpI5k6dSof5YBOBMoERAyUSftSZ9ITm3v37i1atKhXr14eHh6urq70d+vWrYrtmQqDBg3q3bv30KFDSXtmzpzJnq8gy6+NTDx8+HDIkCE9evT4+uuveeL7779PYb28vNzc3Oj0piBcfq5evUp+RXbk7u5OAcUL8wxKGT8xjyKMHj3a09OTBCwqKoqb1Y0bNyIjIymxf//+7BF5xukKlAnKBCwJlAmYj7Yrk3ZOEt0JRpQWTkiiaCK3Yk4SirBnz568vLzQ0NCIiAhx/hAaiFBAvrpp0ybKxpZZKdov1XPs2LGUrampifp4ij9x4sRjx47xUgZTl2jfbG5uLg10fHx85tmgcYyieY/qKKB9gDIBEZkytZGGhgZypEuXLpHkiOlXrlyhdP6UbY4sv53cuXOHmh3d34WoBTt//vx3332n3mBYqllqamrEO5Q47A1qn7YnS7cyUCZgTaBMwHzIlEn73aru16uK7RtHceYQ2QQjLZ2QRBu5FXOSUIShQ4fGxcUdPHhw/fr1zs7OtBe2yc/Pjz/0liCH4d+8sv2Sgx06dGjFihW9evUimVm8eDGtUv1dXV35U31lX8TqvtlTp06NGTOG5PAjGzQ8UjTvURUHtBNQJiDSTsoEQLNAmYA1gTIB82GgTM2mMCYIM4cYTDDS0glJlMcjM1o6JwlFIEvhEWJiYvgVIMbKFBQUxJapLClNREQEW3348KGHh8eHH37IVmVTl+i+WUXvwjztewQdAJQJiECZQGcBZQLWBMoEzIdDlInPHGIwwUhLJyRRRWa0dE4SiiAqCkWbNWsWWzZWJrEUeZp4OwHtotkBlu6bVSTKpHqPoAOAMgGRZj/RALQTUCZgTaBMwHw4RJm4URhMMKK0cEISVWRGS+ckUUV49dVXuWWplGnu3LmiMomlwsPDyej4qqqgDO2bVSTKpL29G7Q3UCYgAmUCnQWUCVgTKBMwH45VJoMJRkTsmZBEkehEi+YkMVCmyMjI1atX803PP/+8Y5WJw9+sYns2lOoJFrrvEbQ3UCYg0rnKlJubu337dnXqz2RnZ+fn56tTQXcBygSsCZQJmA/HKpMin2CkpROSKJrIjBbNSWKgTKmpqT4+PnV1dU1NTSRgPXv2bIUyyaYukb3ZlJSUsLCw69evk0ex+5dU+5IFBI4FygREOleZ5s+fzxsf7dRtcXFx/AbOjkFbB9B+QJmANYEyAfNhoEzalzqTDdWgXzbBSEsnJNFGZrRoThIDZSJvIfmh/VKR2bNni3OV2K9Msifmyd7sxYsXKVqfPn3EB1SI+8rLy6Ot2udJAMcCZQIiXUeZtNfudjxdoQ7WAcoErAmUCZgPmTK1EdkEI+00IYnSqtlFmpqayGEuX76s3uAgZG/WgMTERK0lAocDZQIibVem4uLi6dOn+/r6jh8/nt+NqdgmUYiMjPTz86OPdm1tLUuklicrKyswMHDs2LH5+flcmXSnbqOcfEI5No0bNdrBwcFhYWHiRHOKZF8tmjtO0asD5o5rV6BMwJpAmYD5aCdlAq0jLS1N+5sVcDhQJiAiUybtL+26P7Zv27bNxcVl1apVZWVle/bs4d96bNq0qU+fPtnZ2SUlJTNmzPD09GRfoGRmZvbt25fkpKioiCTHy8uLKZPu1G0vvvginxphwoQJlHnOnDkUkILQTklmjPcl+yVcd+44Ra8OEzB3XHsCZQLWBMoEzAeUCVgQKBMQMVCmZlMePHjg4eGxbt06VXpjY6O7uzu/iJdWhw0bRmZC+Sl98+bNLL2+vr5fv34GF+aplMnb25vdJEmsXLlyxIgRinxfSsvnjlM0dZiAuePaEygTsCZQJmA+oEzAgkCZgEhblImchNyDP8CGw5ykurqapyQlJU2bNq2mpobSz58/z9Ojo6PtV6bFixfzTaWlpU5OTqRDsn3xVS2yueMUTR0mYO649gTKBKwJlAmYDygTsCBQJiDSFmU6efIk6Qq/d4hz5swZSmcTsjGWLVsWFRXF0sVbKMVnzzSrTCkpKXzTF198QaHq6upk++KruujOHado6qD7GB7gKKBMwJpAmYD5aLsybdiwYe/evepUQwyKYBIS0AFAmYBIW5Tp9u3bzs7OBQUFqvSGhgYnJ6fCwkKeEhERsXjx4vr6ekovKSnh6T4+PlyZtFO3qZSJ4Jvy8vL69eunyPfFV40R545TNHWAMrUrUCZgTaBMwHy0XZla0aEaFBEnITHv9CDmrblFgDIBkbYoE5GQkDB8+PCzZ88qtgveKioqWHp8fLyfnx97Et2uXbvIaiorK2k5NjY2KCiIXEuxPbaBjIsrk3bqNpUy9ezZk82gcPnyZdopby1l+5JN9SabO07R1MGguQZtB8oErAmUCZiPrqZMItprVMyCeWtuEaBMQMRAmbQvdSbbjzxz584lS/H09Ozduze/iejGjRuRkZFkRP3792ePs2PpV69e9ff3d3FxcXd3p8ZQvDBPO3WbSpko5+jRo2lHFDYqKoq7kGxfsifmyeaOUzR1sLO5Bq0DygSsCZQJmA9HKVNeXl5oaGhERASfKqSiomLBggVBQUFhYWGpqak//PCDqoju7CJ8EhLt9CAGATMyMvbs2aOtA0E7Onz4MF/dtGkTZWPLrFROTk5ISMjYsWMpW1NTEw01aBcTJ048duwYy4aJTbofUCYgIlOmFlFXV0cewhoBETY/m+qZddTUnD9//rvvvhMTm4XbS01NjXjnEkd3Xwa0Yu444FigTMCaQJmA+ZApk/a7Vd2vVxVbLz506NC4uLiDBw+uX7/e2dm5vLyc0mkUQv5TWlpaWFgYHh4+btw4sYhsdhH+lap2ehDjgLp1IPz8/PizdwlyGP6F7gTbfCOkYYcOHVqxYkWvXr3IZxYvXkyrycnJrq6uJEuK/GtaTGxiXqBMQMQhytQB4Aef7geUCVgTKBMwHwbK1GwKg3pxMgQ+a0dMTAy/jIRDvsGvM1FsRXRnF1EevwrF4PI2bUBZHYyVKSgoiC1TWbKaiIgItvrw4UMPD48PP/xQwcQm3REoExAxizLFxsZmZGSoU4GZgTIBawJlAubDIcok6kFycvKsWbMU2/VsaWlpUVFRvr6+o0aNcnJyKi4u5kV0ZxdRDJXJOKBuHZTmlEksFRoaKn6DS3sxHkhhYhPzAmUCIsafdADaDygTsCZQJmA+HKJMommQ8JD20EJgYOCUKVOOHj1aVVV17tw5FxcX9qAnVkR3dhHFUJmMA+rWQdEo09y5c0VlEkuFh4evXbuWr6oK6oKJTUwKlAmIQJlAZwFlAtYEygTMRzsp07Vr18iCLly4wBJpgVZFw5mgN7uI8rgyidODNBtQWwe2HBkZuXr1ar7p+eefd6AycTCxibmAMgGRzlWm3Nzc7du3q1M7g65TE+sAZQLWBMoEzEc7KdP9+/ddXFy2bNlCKfX19dHR0U5OTqLhyGYXEZVJnB7k3r17xgG1dWDLqampPj4+dXV1TU1N27Zto/22VJnaY2ITWUzQMUCZgEjnKtP8+fN5o+QQWj0vnANr0uo6WA0oE7AmDlam//mf//nLX/7yPrAeJSUl6rOh3TBQJu1LncmGTFfojfTu3dvLy8vNzY1GqK6urqLhyGYXEZVJNT2IcUDdOhDkLSQ/vXr1olKzZ88Wp0CxU5lkT8xry8QmeXl5tFX7SAnQMUCZgEg3UyaDB+cY48CatLoOVgPKBKyJI5Xpv//7v9PT07UzPAArUFxc/NVXX6nPifZBpkwO4c6dO9XV1Qa/pchmF5HRbEBdmpqaaC+XL19Wb3AErZvYJDExEZfqdSJQJiDSdmWiRnv69Om+vr7jx4/Pzc3l6Tt27IiMjPTz86OPfG1tLUukFikrKyswMHDs2LH5+fn2iEpRURFJiL+/f2xsLPUOPF07NZx2XjhFPkuecU10K688PlWdtgIK5qZrCVAmYE0cqUzUeMGXLAt1Y9SFq8+J9qFdlQnISEtL0/5sBToMKBMQkSmT9pd23R/bt23b5uLismrVqrKysj179vBvQzZt2tSnT5/s7OySkpIZM2Z4enqy71YyMzP79u1LXkEiRE7i5eVlrEykLm5ublSqvLx87dq1FLOqqkqRTA2nnRdOkc+SZ1ATWeUV4Yd33QoomJuuJUCZgDVxpDJhIGtxoEwAtB9QJiBioEzNpjx48MDDw2PdunWq9MbGRnd3d/4IGVodNmwYSQXlp/TNmzez9Pr6+n79+hkoExUcMGAADax5ysKFC+Pj4xX51HDGF8XxSe0MaiKrPFvlU9XJKqBo6jABc9NJgDIBa+JIZdq0aZP6gwWsBJQJgPYDygRE2qJM5A+kDexnHxGmE9XV1TwlKSlp2rRpNTU1lH7+/HmeHh0dbaBMFIHyL1myhCwlPT2dvIXy+/r6KvKp4bTKpDupnUFNZJXnqwxZBRRNHSZgbjoJUCZgTcynTE1NTSdOnHj77bdfeOGF0aNHDx48mP7SMqVQOr4Q6kSgTAC0H1AmINIWZTp58iTZhXirD+PMmTOULt6ruWzZMpIWli7eWik+k0ZLZWUl5Scn2SDAb5fSnRpOq0y6k9oZ1ERWeb7K0a2AoqmD9hE4gAFlAtbEZMp0/PjxSZMmRU2IWvXOW3/+5C97K/eXXCz/8K8f/akk/zcZaZHjo2gr5VEXAx2CdZSp2ZlAsrOz8/PztcsAtBooExBpizLdvn3b2dm5oKBAld7Q0ODk5FRYWMhTIiIiFi9eXF9fT+klJSU83cfHx0CZbt26RfH379+v3vA44tRwqnnhZJPaGdREVnm+qgVz07UOKBOwJqZRpocPH6anp4eEhmza9T5pkuyV9Zfs4NBgykn51SFAO2MdZWr2aVHiY8fj4uL4DE6to/1mC2m/yMDhQJmASFuUiUhISBg+fPjZs2cV27VqFRUVLD0+Pt7Pz489yWnXrl0kIZWVlbQcGxsbFBRErqXYnrJARmTcBiYmJnp7e/Nr/86dO1dWVqbIp4ZTzQtnMEueQU1klVeEaeVkFVA0dYAyyYAyAWtiDmUi/3nppZdmz5tTWH1Eq0mq14HqwzPmvkj5YU0dDJSJIypT29FesuIo2i8ycDhQJiBioEzalzqT7TeZuXPnklR4enr27t2b3/Nz48aNyMhI8pD+/fuzp8+x9KtXr/r7+5PGuLu7k0sYX5hH3Lt3b9GiRb169fLw8HB1daW/W7duVeRTw6nmhVPks+QZ1ERWeUV4Yp6sAoqmDlAmGVAmYE3MoUzp6emz5s0+UluqFSTdF+WcHjuDSqkDgfbEXMqkOyeJbE4P45lAtKFEZaKCFJZnls1VkpGRsWfPnry8vNDQ0IiICF5EO1uIQRBx7hEV2qlIdCNjKpIuC5QJiMiUqUXU1dWRQmhnB2FTt6nmraZm8Pz58999952YaAyJGcW5dOmS6htMO6eGk01qZ1wT3cqrsLMCQBcoE7AmJlCm48ePB4eGHKg+rFUjg9fHVYcDQ4JwX1NH0unKpP1uVffrVUUyJ4nBnB4GM4HohhKVSVyWzVWi2K6bHzp0aFxc3MGDB9evX+/s7Ex5FL3ZQgyC8G9S2SpHdyoSbWTFVg1MRdI1gTIBEYcoEwCtAMoErElXV6ampqbo6OiNf/mDVoreylnrHza6b7++T/R5ckTAr97enqHKsP7Pv584aaI9z9D7r//6r88//5yGmzRW1p2uoV1p4+MB/va3v52ycebMmf/8z//Uvl+e4fTp0xcvXtT9CcIhdAVlajZFkcxJYjCnh8FMILqhFIkyGcxVothchQSG//tiYmJ4BPHyOeMgfO4RvpUhm4pEe2EepiLpskCZgEhXUKZr167N1kP7sxXoTkCZgDXp6sp04sSJiPGRWl+as3huDw3abOFRYymCOujjHDx4cMiQIX379g0ODvb19XVxcYmNje3IIWMbHw+wYMGCXr16/eIXv6BhvbOzM43mFy9efOPGDW0GomfPnoMGDWr2QUatwyzKpDsnicGcHgYzgeiGUiTKZDBXiWJzFdFekpOTZ82axZZFsTEOIkM2FYmuMmEqkq4JlAmIdAVlun///mE9tN/agO4ElAlYk66uTG+//Xbqb1eqRChz97vMkdyecvvtn945eK44fetvn3R9UqtMy9ampK81uqPps88+I4tYsWLFP/7xD5Zy5cqVhISE9vspxuGQEUVGRrLlH3/88ejRo6NGjaLBcV1dnTYDvU0SqieffLI9ujSzKJPunCQGc3oYzASiG0qRKJPxXCWqW42pCBVky6LYGAcxQHcqEl1lwh3PXRMoExDpCsoErAmUCViTrq5MMZNjcg7nqUQoYmoUU6akN3/NE1e9v0arTFR2YvREdVCB4ODggIAAg9+UdJ8HILtTn6F7a/73338/f/58MjS22tDQQCbD7hVRPR5Ad4+KfKeiETGuXbvm6ur6m9/8RjcD1YEOXU1NDU9xFGZRJt05SQzm9DCYCUQ3lCJRJuO5SgyU6UVhthDjIPZgMBeKoqkG6DpAmYAIlAl0FlAmYE26ujL5B/jvqfxIJUIDhgxkyrS9/AOtJokvKuvr76cO+jN1dXU0FJaNvxX58wBkd+orhvf3/+53v/Py8rp+/bpiuxhvzJgx//Vf/6U8PryW7VGR71SrTMS8efPI2diymIH2npCQ8Mtf/pJfmuVAzKJMimROEoM5PQxmAtENpatMinyuEkXjKqIyqWYLMQjC5x5hqxzZVCSqyIqmGrKAoOOBMgERKBPoLKBMwJp0dWUaNmxY0YWjKhFy6e3ClOlAdZFWk8QXlaUI6qA/8/XXX1OQQ4cOqTfYMHgegOxOfeNb82nAOtHGli1bnnrqqW+//Zali48HkO1Rke9UV5nS0tJ+8YtfsGXKwA4XY/DgwadPn348u2PoCsqkfakz2dCdk8RgTg+DmUB0Q8mUSTZXiaJxFVGZVLOFGASRPTGvSjIViSqyoqlGXl4ebW2PyzhBS4EyARFqb/fu3fsuAB1LQUEBlAlYk66uTH56vzLZr0y2X5mkd8aze/dl1zgZPA9gguRO/WZvzb9+/bqXlxcNr6mr44l8SG2wR0W+U11lWrlyJQ2R2TJlCA4O/psNskQqSF73n//5n4+XcACdrkwtRXdOEtmcHsYzgeiGkiGbq6RFtCJIK6YiSUxMxHV6XYR3oUxAAL8ygc4CygSsSVdXpkkxk7T3Mtl/YR6VHT9pvDroz9y9e7dnz57r169Xb7Bh8DwA2Q8Czd6az5TJ2dn52LFjPJErk8EeFflOdZUpJiYmLCyMLasy0ND/F7/4RXvM82s6ZQLNkpaWpv3NCnQKUCYgAmUCnQWUCViTrq5M6WvTl61NUYkQf/zDy79p5vEPr6Yvf/Ot36iDCkydOvWZZ5758ccfxUS2avA8AJm9GN+azy7Mi46OXr169eDBg2/evMnSuTIZ7FGR71SrTKdPnyYV5NeVqTJQNTw8PNrjpwMoEwDtB5QJiECZQGcBZQLWpKsr04kTJ8Iiw1UitGHnRqZMfdz6vJWz9uOqQ7KHjAdHhHx54kt1UIELFy7069dvypQp586dU2y3D5WWlgYEBLCHjMueByCzF8Xw/n72+IcbN248fPiQXGjy5MnsxiTxXhfZHhX5TsmIgoKCamtr6b3827/9229/+9unnnqKHIl7IM9AkE39+te/Jq9jTylwLFAmANoPKBMQgTKBzgLKBKxJV1cmkorxE8dn/DlT5UKzkuYwaxJR5aFS4yZEGDxAnHH27FmyEbKIJ598smfPnmQ17GFiivx5ADJ7UeT395OiuLi4cH26cuWKp6fn73//e+VxZZLtUZHvlD/dgSpPMaOiorZs2SLOKyU+/oFsivTp448/5lsdCJQJgPYDygREoEygs4AyAWvS1ZWJOH78+OigMR9XHVYZ0ar30/1DA9yecnviySdGBPxq3Z/eEbdS/oCggPJjPz37u1lu375dVVX197//Xb1B/jwAA1pxa75IK/bYFYAyAdB+QJmASBuVacOGDeJTiOxEVio7Ozs/P1+d2locG80h5Obmbt++nS13fPXEPcr+BUrbKvbo0aOUlBQ+Y3tWVtbnn3/+eJb/A8oErIkJlIn4zeq0mFkvHKktVVmT7EU5Y2ZNfiPtDXUg0J6YS5k+/fTT5cuXz58/X/YQPAMMOi0A2gkoExBpozKpLluwE1mpuLi4N974qcNdunQpv1KjdYjRugjUU/CJJTq+euIeZf8C5fErVloKCWF4eDhfLSwsHDlypOw7XygTsCbmUCb63M6bH0cWdKBa/VuT9kV5KOfs+NmyTztoJ0ykTGfOnHFxcVmzZs2WLVv4czjsx6DTsjhtHy0BGVAmINKllElk6tSp4nwY3QNRmToXg39Bq5WpqanJ29t73759Ysozzzwje5YVlAlYE3Mok2KzppWr3gwIGq29r0l80daAoIDX3nwdvtTxmEiZqMUX58tqKQadlsXplqOlLgKUCYg4RJny8vJCQ0MjIiJ27NjBN1VUVLCHBoWFhaWmpv7www+qUtQCBwcH01ZeKisriy3n5uYOGTLEx8dnno2rV68aBywuLp4+fTq1xuPHj+cTcvBoDFqOjIz08/NLTEysra3l6RkZGXv27NF9C0VFRdQW+fv7x8bGfvXVVzy9uro6ISEhICAgJCRk0aJFBjPpkTNQNQIDA8eOHZufny8qk1g93YBUsd27d2uPEqMVb0fco+xfoDyuTC06AmVlZa6urqpHB9N/KiYmRkzhQJmANTGNMjHKj5WPHT8uOCJkafrynKK8PX/dR5pEf2mZUoLHhYRHhZeUf6IuBjoEsyhTdnY29dDu7u7Uo7Pxvax3USQ9eutGG1pYz5qTk0OZk5KSWKKsMrpdnSy/KvLhw4eXL1/OQym2yzDWrVvHlmV1vnnzJm0SHyXC0a2MdrSk+wZB64AyAZG2K9PQoUPj4uIOHjy4fv16Z2fn8vKfbv2lyDRGLy0tLSwsDA8PHzdunFjKy8trzpw5JSUlmZmZLi4u9AFXhMH6qVOnxowZQy3SRzYaGhoMAm7bto0irFq1iobsZAv8eyhx6E/jCvYkJNrjjBkzPD09+WTcsrdADbKbmxtVj1bXrl1LxdkzbEkJBg4cmJycfOzYsSNHjqxZs6ampoaF0kLF+/btS20aNbBkOPSuuTLx6skCyo6S0qq3I+7RODjP1tIjQEeeOjIWhHPgwAEqqPIoBpQJWBOTKZNi++7n8y+Ov7EqNWJS5Ci/5wYPHkx/IyZGvJ624tOKY80+Hw+0H52uTGdHjdG+1JlsT66fP3++t7c39ejU68h6F0Xeoxv0bbLBgS4U5+mnn6Z+rqCggDowpeVdnSy/KvKFCxd69OjB39ejR49oK38eo6zOO3fupFLaqWxlldGOlrRvELQaKBMQMVCm7WcO/tOWBa4bZ47a9uui2p+mqVBBn036tPIeMyYmRveaLvr4UyPwzTffsFUqRS0nNSBsdeXKlSNGjFAeH9Mb/9TMAz548MDDw4N/cSPCozU2Nrq7u2/cuJGl0+qwYcOowWGrum+B8gwYMIDG9CyRWLhwYXx8PC3U1tbSrq9cucI3yaC60X43b97MVuvr6/v166dVJllA2VFqxdthyypl0g3Os7XiCEyZMoXPAMmh/xFlPnv2rCpdgTIBq2I+ZQJdlq6gTM2mMDZs2ECdk2LrtGS9i0GPbtC3iahGG1oozsiRI3kcg8rodnUG+VWRidDQUH4D8dGjR0kFdW/iEutMikUapn1yo25lGKrRkrYaoNVAmYCITJn+VHXIMzs2+ZO33vkyk/4Ofi/hyLcn1Zlsn03xo5qcnDxr1iy2TC1DWlpaVFSUr6/vqFGjnJyciouLeSlxbF1aWkpbqYkwVibdgNS8iN/jiKicpLq6mm9KSkqaNm0aW9Z9C5SZiixZsoTarvT0dBKS6Ohodhk2NZjPPffcs88+S5pRVlZGLTwvq6KmpoaCnD9/nqdQEK0yyQLKjlIr3g5bVimTbnCerRVHgHqH1NRUHpPx97//neIcP35cla5AmYBVgTIBh2FGZTLoXQx6dIO+TXdwwHOqoDhUlq8aVEa3qzPIr4pMbN26ddCgQewqu4SEhBd/nklMaWGdFUllGFplUlUDtBooExCRKZPPloVLSlZnVWaxF1lT0AevqzPZPpu6E/0RgYGBU6ZMOXr0KLV+586dc3FxOXDgAC+VkpLCS33xxRfUBNXV1Rkrk27AkydPUlnxZh4Oj3bmzBnKc/HiRb5p2bJl1FKxZd23UFlZSUWoadogwK+pvnv3LrWEM2fOfOqpp7y9vcXIImy//InbBLXwWmVSJAFlR6kVb4ctq5RJNzjP1oojMGnSpFdeeYXHZDBv/Prrr1XpCpQJWBUoE3AYZlQmg97FoEc36Nt0Bwc8pwpVHIPKKHpdnUF+VWTizp07Tz75ZFFRUX19fZ8+fcRatajODG1lWLpWmfCcDEcBZQIiMmVy2zgz48tMrky03P/dWHUmzWeTN2LXrl2jVuXChQssnV3TKyoTwUvl5eX169dPeXxMT8vinZOygLdv33Z2di4oKOA5OTxaQ0ODk5NTYWEh3xQREcF/Y9F9C7du3aKwske9cagFGzFiBDWe6g02qJGk/ZaUlPAUHx8fXWXiiAFlR6kVb4ctq5RJNzjP1oojsHTp0smTJ6sylJeX9+zZkw6FKl2BMgGrAmUCDsOMymTQuxj06LK+TTY44DlVqOIYVEaEd3UG+VWRGXFxcXPmzNm2bduAAQP4T0MtrbMK1chDNVrSrQZoHVAmICJTpue2vSL+yrTm+B+DP1ihzqT5bPJG7P79+y4uLlu2bFFs5hAdHU2jfFGZaBjNVi9fvjx8+HB2ua84pk9JSQkLC7t+/To1Dk1NTQYBExISKAK7W6axsbGiooJFEKPFx8f7+fmxB8zs2rWLylZW/nR3luwtJCYment78wsEzp07V1ZWRguXLl365JNP2F1A1HjSrg1mRIiNjQ0KCqJeQLE9s4FaWq0yyQLKjpLSqrejaJRJFpxna+kR2Ldvn4eHB78/ivG73/2OjoCYwoEyAWviYGXau3fvu8CSkFqYUZkUee+iyHt0Wd9mMDjQRWsUssrIujpZfm1koqSk5IknnvD39xd/CDKoc3l5OcXRfssoq4yiGS1pqyGLCZrlXSgTEJApU1Ft5eD3El49mv7Ol5npxzc9m7NQdi+TbiNGvP/++7179/by8nJzc6OzztXVVVQmMofRo0d7enqSRURFRbHPsjimv3jxYnh4eJ8+fXr8fFekLGBDQ8PcuXOpwaFolIHf1SNGu3HjRmRkJO2rf//+7FlzLF2Rv4V79+4tWrSoV69epAG0L/q7detWxXat9aBBg2hHQ4cOpZZw5syZ2hs1OVevXqWmktpGd3d32pHuhXmygLKjpLTq7SgaZZIF59laegToL+XhDzFiBAQE5OTkiCkcKBOwJg5WJvUHC1iJrqBM2pc6kw1RmWS9iyLv0Q36NtngQBetUcgqI+vqZPm1kRXb5GZDhgzRXp4uq7PsiXmyyiia0ZK2Gnl5ebTVYKQCZECZgIhMmQhypKAPXu/3bmzwByt0falZ7ty5U11dbfDVRk1NjexGIF0MAtbV1VGTYjBFEnHlyhXK06J2g1pvKnLp0iXVJI0sFH+0twFNTU3nz5//7rvv1BseRxuQt3uyo9SKt6NFFpzToiOQnp4eGxvLV0+fPj1w4ED2jHgtUCZgTaBMwGF0ujK1BVnvotjXo4sYDA7sRFYZ3a5Okee3n1bUWVYZYxITE7UuB+wBygREDJQJdC7ar4q6Pvfu3QsJCeFPvHj99ddVM/CKQJmANYEyAYdhamUCHUNaWpr2ZytgD1AmIAJlajvXrl2brYf9X5DpEhsbm5GRoU7tRkCZgDWBMgGHAWXSpZ16ZWA1oExABMrUdu7fv39YjzZeMtftgTIBawJlAg4DyqQLemXgEKBMQATKBDoLKBOwJlAm4DCgTAC0H1AmIAJlAp0FlAlYEygTcBhQJiI7Ozs/P1+daiM3N3f79u3q1OZoUSkxs0FNgBmBMgGRLqtMGzZs2Lt3rzrVhhkbJftb4EePHqWkpLAnKGRlZX3++efqHN0FKBOwJlCmn1i6dKnBrHbAHqypTKozJy4ujk8sqGL+/Pl8Zg/7aVEpMbNBTdoDfILaGygTEOmyymTwvLgObpREWt1A2d8Ck1mFh4ez5cLCwpEjR7b6EaZdHCgTsCZQpp+YOnWqOL8naAXWVCb7zxz7u16RFpVqUWbHYv9xAK0DygREzKhMnUirGyg7G9WmpiZvb+99+/bx1WeeeWb//v2P5+omQJmANelyylRcXDx9+nRfX9/x48fn5uayxB07dkRGRvr5+SUmJtbW1vLMGRkZe/bsycvLCw0NjYiIUE0jUFRURK2kv79/bGzsV199xdO1u6C/Q4YM8fHxmWfj6tWrFRUVCxYsCAoKCgsLS01N/eGHH3hx2unu3btzcnJoU1JSEk8H5lIm7Wlg/E/XPdO0Z05WVhbfSr0mrQYGBo4dOzY/P1/seg32ZVBKi0FmsSYGu6uurk5ISAgICAgJCVm0aBF7jt/NmzepSGNjI8/G0c2vPQ74mDgcKBMQabsyadtARd5WsDaQPtH0wafW5vDhw9T4ZGdnU86JEyceO3aMh2XKRK10cHAwBRH7ZXsaJfubDlkXr22jtA2UIq+AQaOqyEcjZWVlrq6uP/74I0+hmDExMXy1OwFlAtakg5TpyLcngz9Y0exk5Nu2bXNxcVm1ahW1PtQ6s2+qKGyfPn2oaS4pKZkxY4anpyefPZOa5qFDh8bFxR08eHD9+vXOzs7l5eVsE7Vrbm5umZmZlLJ27VqKUFVVJdvFqVOnxowZQ43vRzYaGhqoN6JGs7S0tLCwMDw8fNy4cT9V0bbTp59++sUXXywoKDhy5AhPB52uTGdHjdG+1Jls6J4Gxv903TNNe+bQifHqq6+yUnT69e3bl3pr6tqpl/Xy8uJdr8G+DEppMcgs1kS2O+rgBw4cmJycTCMeOpnXrFlTU1ND6Tt37uzRo4d2AiVZfu1xwMfE4UCZgIiBMn18oeK5ba/0zZo9ZsdyWYer2wYq8raCfaLJMQ4dOrRixYpevXqRzyxevJhWqUEgW7h58ybPSQ3RnDlzqMumBor2QgrENtnTKNnZdMi6eN02SttAKfIKGDSqBqMROoARERFsmXHgwAHKLEpUtwHKBKxJRygTNdm/zFl07FLV3Qf/oL+0rNuIP3jwwMPDY926dWJiY2Oju7v7xo0b+eqwYcOoEWSr1LZSO9jU1MRWY2JiWHNM2QYMGECfapZOLFy4MD4+XncXDINf7WngSMPHb775hq3STkeOHMl3CjhdQZmaTVEkZ5oK7T9d90xTNGcOHxPQXujU3bx5M0uvr6/v16+frvyI+7K/lNJcZnF0IiLurra2lpavXLmiykODDxqFaB+DLsuvaI4DPiYOB8oERGTKtO+bzwb8cW7yJ2+982Xm0qNrhr6fqO1w7WkDlcfbCvpEBwUFsXT6XJPVcEN4+PAhRfvwww/ZKuX09vZ+9OgRW125cuWIESPYsj2Nkj1Nh6yLV+RtlEEXrwgVMGhUjUcjU6ZMIYFkywyKRjHPnj0rJnYPoEzAmnSEMgV/sKL8b1/zVVqmFGH7T9AojdoX9kURhzV/1dXVPCUpKWnatGlsmdpWsRFMTk6eNWuWYvtdnkotWbKEhn3p6enUqEVHR/v6+urugqFqT2/evJmWlhYVFUWlRo0a5eTkVFxczDbRTmlHPCfgmEWZZKeB8T9d90xTNGcOHxPU1NTQXs6fP8830UnIfUa2L+NSKowzi6MT2e6o13/uueeeffZZGtaUlZXRcIGH0sUgv1aZ8DFxLFAmICJTphFbk5aUrM6qzGKv5aVvaztcWRuoyNsKVRsYGhoq3rBEmXl9KKcoD6WlpRSEff9iT6NkT9Mh6+IVeRulVSbdChg0qsajETogqampfBPx97//nfIfP35cTOweQJmANekIZer/bmzDg3/wVVqmFGH7T5w8eZLaF/HiYOLMmTOUePHiRZ6ybNkyauPY8oTHbzOltphaZFqorKykUtRibhDIzc3V3QVD1Z4GBgZOmTLl6NGj1KmcO3fOxcXlwIEDbJNqp4BjFmWSnQb2/9P5maZozhw+JmCnLnvgLIMsi/uMbF/GpVQYZxZHJ7LdEXfv3t26devMmTOfeuopb29v8bOmiyy/VpnwMXEsUCYgIlMmt40zM77M5MpEy9oOV9YGKvK2QvWJDg8PJ13hq35+fvznF8qZkpLCN33xxRe0r7q6OsW+RsmepkPWxbOtum2UVpl0K2DQqBqPRiZNmvTKK6/wTcrPX2l9/fX/fV/cbYAyAWvSEcpk569Mt2/fdnZ2LigoEBMbGhqcnJwKCwt5SkREBP8GSzaQvXXrFoXSPqxGdxcMKrh8+XK2fO3aNWrpLly4wFZpgVZlo2fAMYsy6Z4GLfqni8oknjlslY0J6uvr6dQtKSnhm3x8fFjXa7Avg1JajDPzmhjsToTGGSNGjKBRiCpdhiq/6jjgY+JwoExARKZMv8p7WfyVaUVZhrbD1W0DFcO2okXKRPBNeXl5/fr1Y8v2NEr2NB2yLl6F2EapGihZBQwaVePRyNKlSydPnsw3EeXl5T179qSAYmL3AMoErElHKJOd9zIRCQkJw4cPZ9f+NjY2VlRU0EJ8fDw1x+zBXLt27aI2q7KykuU3GMgmJiZ6e3vzCw/OnTtXVlamSHZBpKSkhIWFXb9+nRrZe/fuubi4bNmyRbGNSqOjo2mnstEz4JhFmRS90+D+/fv2/9PFM008c5qamsSvUWNjY4OCgmh0otjuG6Y+nnW9xvuSldLFIDOvicHuLl269Mknn7C7DmgUQseETV1CnT29ZW1nL8uvaI6D9mMiiwnsBMoERGTK9PGFioF/nMfuZVpe+vYzm1/S7XC1baBi2Fa0SJlIFVipy5cv0174XEz2NErapkMXWRcva6NUDZRBBQwaVYPRyL59+zw8PPgdXMTvfvc7fvdXNwPKBKxJRyiTYvcT8xoaGubOnUvNkKenZ+/evdlVwjdu3IiMjKRmq3///uxhNTy/wUCWtGfRokW9evWiVszV1ZX+bt26VZHsgrh48SL1ARS/h+0e0Pfff5+2enl5ubm50UiFIshGz4DTFZRJ+1JnsqF7Gtj/TxfPNNWZIyrT1atX/f39qWN2d3enCOJVcwb7MiilxSCzWBPZ7mjAMWjQINo0dOjQJ554YubMmeyWA9kT82T5Fc1x0H5M8vLyaKv2kRLATqBMQESmTMTh2r/6/2npU+/OCfzza7IOV7cNVORtRYuUiVqh0aNHU2TquKOiovgXJfY0StqmQxdZFy9ro1QNlCKvgEGjajAaob1QHfgze4mAgICcnBy+2p2AMgFr0kHK1CLq6uqo1WNf5HCuXLlCiS0db1GvQKUuXbqkmoRbdxcq7ty5U11djS/F7afTlamlaE8Dh//Tm5qazp8//91336k3GO7LoJQWOzMb7I59uPjTcpulpfkZiYmJ9oyEgAwoExAxUCb70baBimFb0SJqamqM741s+45kXbydbZSsAsaNqmw0kp6eHhsby5ZPnz49cOBA9jTz7geUCViTrqhMwKSYTplAR5KWlqb92QrYD5QJiDhEmYADuXfvXkhICHt0xOuvvy7O4dvNgDIBawJlAg4DytROXLt2bbYexj+Tgm4GlAmIWEGZ0PR1TaBMwJpAmYDDgDK1E/fv3z+sh/bKENCNgTIBESsoE5q+rgmUCVgTKBNwGFAmANoPKBMQsYIyga4JlAlYEyjTT2RnZ+fn56tTHcSGDRv27t2rTjXEoIhjq+rAaOZSpk8//XT58uXz58+X3eNrgMF/p10R/1kG/7jc3Nzt27erU4HJgTIBESiTnTx69CglJYXPTpuVlfX5558/ngW0DCgTsCZQpp8QH366dOlSPtuMQ7DzqakiBkXi4uL4NBdtr6oYrY2YSJnOnDnj4uKyZs2aLVu23Lx5U725OQz+O+2KeJYa/OPIAw2eS95q2n6ygbYAZQIinaJMZmwEtm/fHh4ezlcLCwtHjhypesIeaBFQJmBNoEw/IQ5Gp06d+tprrz2+vU20YoRtZxGHV7UtmEiZqMX39fVVp9qNnf8dhyOepQa0kzJ1qZPNgkCZgEinKJPpGoGmpiZvb+99+/aJKc8888z+/fuFXKBlQJmANelyylRcXDx9+nQazo4fPz43N5cl7tixIzIy0s/PLzExsba2lmfOyMjYs2dPXl5eaGhoRESE+EzP6urqhISEgICAkJCQRYsWsQfs0DD38OHDPA9VmMqyZT4YpZ0OGTLEx8dnno2rV69WVFQsWLAgKCgoLCwsNTX1hx9+4BGoArt3787JyaFNSUlJPF0FG2Fr62kQmRUhNwgODqat4lvLyspiqy2qqiI5tjya0qrjLGIWZcrOzqaD4O7uTgeNdf9FRUU0FPD394+Njf3qq6/EzLoHTfYPVQz/p1p0z1KDCKIyif84GgTQamBg4NixY/Pz80VlkkW7efMmbWpsbGSrIrq10p5sdp78wFFAmYBIG5Xp0aNHmZmZzz//PGs0Nm/ezHtDRdIk6jYCsq7BoLdlpajpoBaG9k7ZqAWjZpmaqYkTJx47doyXUiQ10W18dPuvsrIyV1fXH3/8ka0yqCWMiYkRU0CLgDIBa9JBynTk25PBH6zo924s/ZVNRk5s27bNxcVl1apV1MxRk8q+yKewbJrtkpKSGTNmeHp68vnpaOQ6dOjQuLi4gwcPrl+/3tnZmc29Te3jwIEDk5OTqfE9cuTImjVrampqlMdnKCeo0ecjSz4YPXXq1JgxY6iN/shGQ0MD9Uw0Hi0tLS0sLAwPDx83bhyPQBV4+umnqWxBQQHtiKerkNXTOLKXl9ecOXPoXVPHRoeFegi2qXVV1T22YrRWHGcVna5MZ0eN0b7UmRTlxIkTJBXe3t500OjNUkfr5uZGB5ne1Nq1a+kgVFVVsZyyg2ZwQAz+BSpkZ6lBBFGZxGWqfN++fWlAQ8MLGjTQmcNPbFm0nTt39ujRQztRkqxW2pPNzpMfOAooExAxUCbqZJ//c8pT784J+uB1WYdLbV3//v1JY4qLiydPniw2GrImUbcRkLWEBr0tazoWLFhw6NChFStW9OrVi7Rn8eLFtEotDxkOv1haVhNt4yPrv6jRJpf7qRI/c+DAAcqs8ihgP1AmYE06Qpmoyf5lzqJjl6ruPvgH/aVl3Ub8wYMHHh4e69atExMbGxvd3d15y0urw4YNo2EcW6V2k1rwpqYmthoTE8MGkbW1tTQcvHLlCkvnGDTidl6YR0NMivzNN9+wVarAyJEjeQVkyOopoo1MY/pHjx6x1ZUrV44YMYItt6KquseWwaK17jir6ArK1GwKY8OGDfSOFNs7HTBgAHUAfNPChQvj4+MVw4Nm5wFR/U9VyM5SEVUEXWWietL/bvPmzSy9vr6+X79+uhfmidFo5EFDEO2zeg1qpTrZ7Dz5gaOAMgERmTIdqj0xaFNc8idvvfNlZuqn64dtXqDtcMkW+vbtu23bNrZK7QA5Bms0DJpERa8RkLWEBr0tlQoKCmLLVJbkh1vNw4cPqdX98MMPFcOaqBofg/5rypQpJGM/B/gJagOplTt79qwqHdgJlAlYk45QpuAPVpT/7Wu+SsuUImz/CRrDUSvGv+BnsAFcdXU1T0lKSpo2bRpbpnZTbL6Tk5NnzZql2FrM55577tlnnyXTKCsrozEly2DQiBt4yM2bN9PS0qKionx9fUeNGuXk5FRcXMw2UQVopzynDFk9jSOLDX1paSltZQPcVlRV99gyWLTWHWcVZlQmesv0xpcsWUL+kJ6eTr1sdHQ0u83J4KAZHBDZv0CL7Cw1iKCrTDU1NVTP8+fPs3SC3gI/sQ2i6SKrlaI52ew8+YGjgDIBEZkyjcxbvKRkdVZlFnu9eez32g6XOQP7AZnxwgsvsEbDoElU9BoBWUto0NuqSoWGhoq3htK+2FszqImq8THovyh4amoqT2f8/e9/p/zHjx9XpQM7gTIBa9IRytT/3diGB//gq7RMKcL2nzh58iS1YuItNIrtyWaUePHiRZ6ybNkyGv+x5QmP34VPI0gaR7Llu3fvbt26debMmU899ZS3tzeLoGrE586da48yBQYGTpky5ejRozR6PnfunIuLy4EDB9gmVQVkyOppHDklJYUX+eKLL+g41NXVKa2qqu6xZbBorT7OImZUpsrKSnrjpAcbBNg9SwYHzeCAyP4FuuiepQYRdJWJ/e/4I3QJGrXwE9sgmgzdWimak83Okx84CigTEJEpk9vGmRlfZnJlomVth8u+D/rb3/7GU2bMmMEaDYMmUWmuERBbQoPeVlUqPDycpIiv8oIGNVFFMOi/Jk2a9Morr/B0Bvua6euv/++bXNAioEzAmnSEMtn5K9Pt27ednZ0LCgrExIaGBicnp8LCQp4SERHBf34xaK85NP4bMWIENbu0HBkZuXr1ar7p+eef11UmWl6+fDlbvnbtGrWtFy5cYKu0QKsOUaZmIxO8SF5eXr9+/dhyK6qqe2wZLFrbj7NiTmW6desWHRndpycZHDTZATH4FxjDz1LjCLrKVF9fT/+7kpISlk74+PiwE9s4WrOInx3l8ZNN0RwE0N5AmYCITJn+eesi8VemV4+mazvce/fu9erV66OPPmKrDx8+fOaZZ1ijYdAkKs01AmLXYNDb2qlMBjVRRTDov5YuXTp58mSezigvL+/Zsye1nKp0YCdQJmBNOkKZ7LyXiUhISBg+fDi7wrixsbGiooIW4uPjqQ1lj+3atWsXtYyVlZUsv6y9vnTp0ieffMJuBKJml2KyqSRSU1NpNFlXV9fU1LRt2zZqNHWVKSUlJSws7Pr16zRkpK7FxcVly5Ytim1sGh0dTRVwiDLdv3/fODJVj61evnyZ3gKfhKd1VdU9tmK0VhxnFWZUJiIxMdHb25tfgHfu3LmysjK2LDtosgNi/D9VoXuWGkfQVSYiNjY2KCiIHE+x3QZN4wx2YhtEo0EDvQvtoEG3VmyTeLLRJ0h78stiAocAZQIiMmXaefYTz+xYdi8T/R3y3nzdDvfXv/41fbq//PJL6l/oo+3q6sp7Q4Mm0bgRELsGg97WTmVS5DXRNj6y/mvfvn0eHh78rmDG7373O34zFWgFUCZgTTpCmRS7n5jX0NAwd+5cauw8PT179+7NrkW+ceNGZGQkjQL79+/PHonD88vaa2phBw0aRBGGDh36xBNPzJw5k90FRA09taq9evVyc3ObPXu2eP2SOAC9ePEiNeK0rx62e+Xff/99CuXl5UWlaNRCXYtDlIkWjCNT3UaPHk2Hgt57VFQUH4m2rqq6x1aM1orjrKIrKJP2pc5kQ1QmUs1FixbRWUE9Kx0x+rt161a2SXbQDA6Iwb9AhewsNYggU6arV6/6+/uTHbm7u1PdxBNbFk32xDxZrRTNyaY9+fPy8mir9pESwCFAmYCITJmIPefKfpX3slvWLP8/LZV1uOQ8L730EjUL1OLRB5k+6fyeH4Mm0bgREFtCg97WfmWS1UTb+Mj6L2qOqJTqEa8BAQE5OTliCmgRUCZgTTpImVpEXV0djdvY10WcK1euUGKLRmOsCH9SNqOpqYkaffHGD3u4c+dOdXV1e3x93mzkmpoa8RLtZjEOqHtsRVpxnDmdrkxtgeyI3vilS5e0s8I3e9BUGP8LVOiepS2KwKAT+/z589999516Q6ui6daqWRITE+35BgG0DigTEDFQppZCjd4vf/lL9nM0x6BJtJPW9bZa7K+Jbv+Vnp4eGxvLV0+fPj1w4ECKKWQBLQPKBKxJV1QmYFJMrUyg7aSlpWl/tgKOAsoERNqoTP/+7/++ffv26urqv/71r/Pnz/f09Lxz5446U7fg3r17ISEh3Nxef/112WzswE6gTMCaQJkcxrVr12brYf+vE2YHyqQLTgzgEKBMQKSNyvQf//Ef0dHR3t7e//zP/zxv3jzdR4MCoAuUCVgTKJPDuH///mE9WneRmxmBMumCEwM4BCgTEGmjMgHQaqBMwJpAmYDDgDIB0H5AmYAIlAl0FlAmYE2gTMBhQJkAaD+gTEAEymQPjx49SklJYTcyZWVlff755+ocoOVAmYA1gTI9xoYNG/bu3atONcSgSHZ2dn5+vjq1tTg2WnsAZVKRm5u7fft2dSoArQLKBEQ6WJmWLl3Kp2gzEdQCh4eHs+XCwsKRI0c2+9g90CxQJmBNoEyPoZ3toVkMisTFxfH5Z9ve34jRuibdVZla/b+bP38+n4rEgbS6PsDUQJmASAcr09SpU1977TV1atemqanJ29t73759fPWZZ57Zv3//47lAi4EyAWsCZXoMA/+RYWcRM/Y3LaW7KlOr/3ftpEytrg8wNVAmINJGZaqurk5ISAgICAgJCVm0aBF/gGdRURG1MP7+/rGxsV999RVLzM3NHTJkiI+PzzwbV69epcSMjIw9e/bk5eWFhoZGRETwJ3dTh3j48GG2TNDAgPKwZVYkJyeHdjp27FjKRhqTnZ0dFBQ0ceLEY8eO8VKKpCaKLcju3bspSFhYWFJSEqXQriMjI/38/BITE8VH/5WVlbm6uv744488JTU1NSYmhq+C1gFlAtakyylTcXHx9OnTfX19x48fT820otc+KvLGtKKiYsGCBdT+UmZqHH/44QeWrhtEC/MfbR+gyCOzIjSIDw4Opk1ikaysLLaq29/IAip6B0GMxtDtJGR9WMdgLmXSPYW0w4gW/e+o+6d/U2BgII0G8vPzVcqk+y8jbt68SQEbGxt5CsfO+th5egNTA2UCIm1RJrKIgQMHJicnk6UcOXJkzZo1NTU1iq2NcnNzy8zMLC8vX7t2bZ8+faqqqij91KlTY8aMoQbzIxtsHljq+4YOHRoXF3fw4MH169c7OztTKUqnJm7jxo18X9RM8WaQijz99NPUeB46dGjFihW9evWi9mrx4sW0SpUhvaHGkOWU1YQHefHFFwsKCqjyNPCgreRdJSUlM2bM8PT05HNwU9dM/SBbZhw4cIAyixIFWgGUCViTDlKmI9+eDP5gRb93Y+kvLas3/8y2bdtcXFxWrVpVVlZGQ3/2642qfVQMG1PqRWjMWlpaWlhYGB4ePm7cOJauDaKLrA9QDCN7eXnNmTOH2muqEtWfBq9sE+3u1VdfVST9jSyg7kEQoym27+10OwmD+ncAna5MZ0eN0b7UmWzonkK6w4gW/e8oYN++fclqyMfIjujE4GMF2b+M2LlzZ48ePbSTwNpfHztPb2BqoExAxECZ3j+9d3huouvGmb/Ke/lgzZfqzYpSW1tLbc6VK1fExMbGxgEDBtBomKcsXLgwPj6eLWt/3KZmh9qipqYmthoTE8N6KGNlCgoKYstUkFotrjQPHz70+P/Zuxewqqq8f+CiHg0xxQeVsbRwXnJUQBFQUEAKzfsFRR3ykqakqPnqqCPmaEViZiIijEljF7UkLxCXLjqaqJVgKBjmKOEFDRCmFNjzvjXllO//92fVarv22dsDB47ss7+fx4dnn7XWXmcd0MP+evbevw4d3nzzTeluK6FJevbsyZ6XRjo7O/Ono4fdunWjt0r2cNiwYZTH2DZz6tQpeuEnT56UN0JdITKBMdkiMlFGenjT9A/O5Vy/8U/6SttmU9ONGzfoHXPVqlVCu/z9Ubrbm6kcHYPSmyO9RUqKSdSo/Q4QCDO7ublVV1ezrsWLF/fo0YNty0OO8veNHJ9Q7ZsgyWbT+CVh4fobSVOITHdtkdT/Cpk9jJDq8rOjn0tcXBxrLysra9euHTtW0PiREUprFNuUZZosX4+Ff71B1xCZQE4tMm3+9G2X9WFz3vvzc4dj6KvrhknKX7j0FtS7d++HHnqIfmFlZmbSe5dU+5k2veHMnj2b3o6io6PpDSo0NNTDw4PtYvZtR94yZ86csWPHSneLTPJdBgwYID+tnZ6LvSjtldAk9Fxsm71J0ng+yYwZM0aMGMG2af5FixbxLvLVV1/R+AMHDsgboa4QmcCYbBGZ/LYtzPryM/6QtqlF1v8LOnCk9zL+eREnf3+U7vZmevny5aVLlwYHB1NLr169HBwcUlNTlZOoUfsdIGnOLP9/rIyMDOpih7/akcnshGrfBEk2m8YvCY3124BeIpPaXyGzhxGSxT+7goICmvb06dN8GE3LjhU0fmQaLF+PhX+9QdcQmUBOLTL91+aps9OWx2bHsj+Umny3LRAHSdL169cTEhLGjBlz//33u7m5FRYWZmdn09sUvdu8IMPPDDf7tiMPPPTriX5JSYrINGHCBHlkku8SEBBAb8L8Id9ReyXySU6cOEEjafG/ziHNnTuX3pnZ9mOPPfbUU0/xLsLepT/77LcDEqgHRCYwJltEpvbrwspv/JM/pG1qkfX/4ujRo/ReJr/GgxHeZLXfTH18fIYNG5aenk6pIy8vz2Qy7d69WzmJGrXfAZLmzFFRUXyXQ4cO0fJKSkqku0UmsxOqfRMk2WwavyQ01m8DeolMGn+FlIcRksU/O/ZzYQVAGMqr7FhB40emzcL1WPjXG3QNkQnk1CKT09oxaw7H8Mj03Mcvmv2Fy9GbTI8ePej98OrVq82bN1e7oRz9Kpk3b568Re3XTVBQ0PLly3l7v3796hqZtFcin6S8vNzBwSElJYX3BgYG8v/EjIyMHDp0KO8iWVlZLVq0KCsrkzdCXSEygTHZIjJZ+CnTtWvX6F1yx44dQrvwJqvxZlpcXEwHpvn5+ewhbdDDBolM2jMTvsuWLVvatWvHtuWRSfh9ozah2jdBks2m8UtCbf22oZfIpPFXiOOHEZLFPzv6NUw/l7S0ND7S3d2dHSto/MgspLEeSfFzB7uEyARyapHJI2m2/FOmVX+PU/7CPXfu3HvvvcfOJ6f3w+7du7O6BREREW5ubvw0h7y8vMzMTLYdFRXl7+9/8eJFei9i5wCr/bpZtGgRvfWVlJTQsMTERIoodY1MkuZKhEkmTZpEO7I7/m3fvp3eabOzs1nXzp07O3TowE+bJ6tXr+YXU0G9ITKBMdkiMll4LROZPHkyvXezSzNv3rx58OBBSfH+KKm/mVZWVppMps2bN0u1V5KEhobSu2eDRCbtmelXAts+f/48rZ9XT5JHJuH3jcaEZr8JwmxqvyTU1m8beolMkspfIbXDCMt/dmFhYfT7mHKvVHu/Bwpm/FhB7Ucm1f7HJ/3glP/xaeF6JMXPXVKfE/QLkQnk1CIT/XrtsnHKM1nPxWavf+Fw4kObpil/4dJbX+fOnVu1avXggw+2bt16zJgx7GTyioqK6dOnt2zZkpJGmzZt6GtCQgLbpbCwkBKOo6NjM9l1vGZ/3dBbE73X0SROTk7jxo3jH7Yrd9GITBorESa5dOlSUFAQvdm2b9+e3WKHd9GLoh3l90Dq06fPpk2b+EOoH0QmMCZbRCbJ4jvmlZeXT5gwgY4mXVxc6N2cX58jHA5qvJlu3LiRdnR1daU3azrCoN4GiUyS5sz0+6Bv3760ZnrXDg4O5sep8pCj/H2jNqHZb4Iwm9ovCY3120BTiEzKP+KgWmb/CqkdRlj+sysqKvLy8qJA5ezsTD8L+bGC2o9MUr9jnuXrUf713rJlCw1Q3lIC9AuRCeTUIpNk8S/cCxcu0JsMv3UnR7+DqP3cuXNVVVVCl4VqamrobUp+lnL9WL4S9lqU73jR0dFhYWFs+/jx4506dWJ3GQVrIDKBMdkoMtVJSUkJvffxynpq1N5MS0tLc3NzG+P/17VnLigokF+sYgmNCS35Jqj9krhX7nlkqiuzf4XUDiMEaj87OlY4ffr02bNnhXamHj8yC9cjiIiIsOT/CEBHEJlATiMyAVdRUdG/f38W3hYsWGDjWoX2CpEJjKkpRibQKd1FJju2dOlS5cdWoGuITCCHyAT3CiITGJMRI1NxcfE4c7Q/0oG7QmQCaDyITCCHyAT3CiITGJMRI1NlZeVec+p0uhQoITIBNB5EJpBDZIJ7BZEJjMmIkQkaCSITQONBZAI5RCa4VxCZwJgQmaDBIDIBNB5EJpDTS2SKj49PSkoSWxvU+vXrk5OTxVaLWbk7qa6ujoqK4ncIjI2N/eijj+4cYlcQmcCYGjgyvfXWW+vAkHbs2GHLyIS/aWAo9O9rHSITyNyTyBQZGcmqw1luypQpvNZCIwkPD+flEOvByt0JZcKAgAD+MCUlpWfPnne9Mbp+ITKBMTVwZBL/YYGR2DIyic8NYO8QmUDunkSm4cOHz58/X2zVZIPIdG/V1NS4ubnt3LlT3tK1a9e3335bNsquIDKBMSEyQYNBZAJoPIhMIGdlZKquro6JienXr9/AgQOTk5Pj4uK2bNnCe/ft20fpyMvLKyws7JNPPmGN8fHxXbp0cXd3n1irqKiIj5ejwBAbG+vj48NmFiKT2ZlJbm7u5MmT+/Tp079//+nTp/Mb2Kampo4cOdLDw2Pw4MG0ANa4Zs2a119/fdOmTf7+/jNmzKCn4wWXWBf9jvDz86NeoRCT2dnkuxPaDgoK8vT0jIiIOHPmDGukad944w36Fg0YMCAwMFA+PjMzs02bNt988w1vIYsWLRoyZIi8xZ4gMoExITJBg0FkAmg8iEwgpxGZ3sp7v+eWmU6xY73+Grn/i6Nid62VK1e2b9+eMgCliKFDh7q6uvJgQ3nAycmJAlVWVhYNc3R0zMnJofZjx455e3tT4NlVq7y8/I4Zf0U7tm3blgIJpSPKHpbMTHmjU6dOc+bM+eCDD/bv379ixYqCggJqT0xMNJlMy5Yto1hCiYWX5w4JCXnggQdGjx69Y8cOGk8bTz/9NO+iZxw/fnxaWho9Ee1OCYp1qc0m350OY2hV69evp91HjRrl4uLCyojTtA8++GB4ePi77777/PPPN2/enF4C24XmoRDFtrndu3fTPEKOshuITGBMiEzQYBCZABoPIhPIqUWm1/MyXF4Om/Pen587HENfu2ycokxNdChPqYYiBHtYWVlJ2YAFm5s3b3bs2JGOifngadOmTZo0iW3f9cS8GzduODs7x8XFsYdlZWXt2rW768xnzpxp1qzZhQsXeJdUO1WHDh1WrVolb2QowPTs2bOmpoY9FCKTm5tbdXU1e7h48eIePXpImrPx3WmFtPi1a9eydnrYrVs3ym9S7bQUF/kzDhkyhD/jsGHDZs6cyba5U6dO0Ss6efKk0G4fEJnAmBCZoMEgMgE0HkQmkFOLTI8kTJ+dtjw2O5b9eTo92m/bQmEMO6Bnn+Qwjz/+OAs2ubm51DV79uyVK1dGR0dTYAgNDfXw8GDD7hqZaE7a/fTp07yFdr/rzBROevfu/dBDD1HCyczMpHhDjTk5OTSefQwloAAzZ84c/lCITPIAk5GR4eDgQJlQYza+O0tutE7eNWPGjBEjRki108pfOD372LFj2faAAQMWLVrEu5ivvvqKpjpw4IDQbh8QmcCYGjIyxcbGiv+wwEgQmQAaDyITyKlFJqe1Y9YcjuGRibbbrwsTxrD88OWXX/KWUaNGsWCTnZ1NXRRdXpDhl/3cNTKdOHGCdue32yYULSyZ+fr16wkJCWPGjLn//vvd3NwKCwuPHj1K4/nVRHIUYPhpdZIiMkVFRfGuQ4cO0SQlJSUas/Hd2eLpqXnX3Llzg4ODJcUz0njai20/9thjTz31FO9iWHT87LPPhHb7gMgExtSQkWnPnj379u0T/22BMZSWlsbFxYl/JxpH40UmeYGO+hXrqN9e9kdeqMTuq5TYBiITyKlFpp5bZso/Zfrv919QfspUUVHRsmXLXbt2sYdVVVVdu3Zlwebq1avNmzdXu9sb5YR58+aJrTJlZWUODg5paWm8xd3d3ZKZOcpOPXr0oGR17do1Gr9jxw5xhCLACJGJ8K4tW7a0a9eONjRm47uXl5fT4lNSUnhXYGAg+8xKIzJFRkYOHTqUdzFZWVktWrSg74bQbh8QmcCYGjIykePHj9Pv9ZfAYCgnbNy4kd5Jxb8QjaPxIpP8V2/9inXUby/7Iy9UYvdVSmwDkQnkXlKJTHvOfNx5Qzi7lumZrOe6xU1VXstEZs2a1b1798OHD58/fz4qKqpNmzb8Jg0RERFubm78HLa8vLzMzEy2TSP9/f0vXrxIwYZf2CMICwvz9fWliCLV3k2BgspdZz537tx7773HLkCiZEULY9WfJk+eTNvsiqCbN28ePHiQ7agdmSir7N69m7bppdHu/A1ZbTb57pMmTfL09GT369u+fTslqOzsbDatWmTauXNnhw4d+NVTzOrVq+mbIG+xJ4hMYEwNHJkAbMA2kQnqTShUYvdVSmwDkQnk1CIToYzkvXXe/evG+25bYDYvSbUf5jzxxBNOTk50uE9hYMyYMfyCnIqKiunTp7ds2ZK6KErR14SEBNZVWFgYEBDg6OjYrFmzU6dO/TadTFFRkZeXl8lkcnZ2pqTBT8yT1GemENW5c+dWrVo9+OCDrVu3psVUVlZKtR/7TJgwgXKLi4sL9bLLiiRFgBEiEz1d3759aRdKa8HBwfyjHrXZ5LtfunQpKCiIdmzfvj27dR6fVi0y0VLphfAb6DF9+vTZtGmTvMWeIDKBMSEygf40SGQyWx5E/rtTqPXxxhtv0K/A/v37Dxw4cO/evRQD6Lepr6/vo48++sEHH7Bh8r006ngcPHhw6tSptK+/vz8dpnz99de8S6g3wtsFymFmX46kXu1EbbwwM71S4TycpKQkdtcpjVehLFRi31VKbAORCeQ0IlNdVVVVPfzww5s3b5Y3UsCgJHPu3Ll6fD5Mb4+nT58+e/as2FFLbeYLFy5QO7upt1xJSQm18/cubTzbFBQUyK9K4iyZja2ExTZLREdH0xspf3j8+PFOnTqp3YTdDiAygTEhMoH+aESm/V8c9fprZNvYcRoFSST18iDyyCT8z+UDDzxACWHPnj0LFy5s2bIlxYmZM2fSwzlz5lA8uHz5srBXiHodDzrWoWSVkZGRkpISEBAwaNAg1s6faPSv9UZ4u0AYpvZy1KqdqI1Xzpyfny+/zVR1dTX1sv951XgVykIl9l2lxDYQmUDOysj06aefJiUl5ebmHjlyZMqUKS4uLqWlpeIgHRI+DrKNioqK/v3785teLFiwQCiha2cQmcCYEJlAf9QiE2Uk1w2TeEES2jabmjTKg2hEJn5iek1NDcUGHgmqqqo6dOjw5ptvCnuFqNfxkLty5Yr8FJeQO+uNqJEP03g5ZqudaIyXzC1gwIAB/GKA9PR0k8nE8yEnvAploRL7rlJiG4hMIGdlZPr8889DQ0Pd3NweeeSRiRMnmr2VnIbi4uJx5mh/emMDYWFha9asEVuhQSEygTEhMoH+qEWmPn99Wn6rKNr2+mukOEizPIhGZJLfWpdShPw/Mmlffvgij0xqdTwocixdujQ4OJh27NWrl4ODQ2pqKusKubPeiBr5MI2XY7baicZ4YWYmISGhc+fONJVUe/00P4Nf41UoC5XYd5US20BkAjkrI5OVKisr95pj+clsoF+ITGBMiEygP2qR6f7YcUJBEmoRB2mWB9GITPKMFBAQQHmDP/T09OQF4+WRSe1yYR8fn2HDhqWnp+fk5OTl5ZlMJnZ/J+VeauTDNF6OZK7aifZ45QJKS0vvu+++ffv2lZWVOTo68qVqvAploRL7rlJiG4hMIHdvIxMYGSITGBMiE+iPWmTqs1X8lKnPX82cC6dRHsQGkam4uJjCQ35+PmtnFwtZE5k0Xo4cr3aiPd7sAsLDw8ePH5+YmNixY0f2UZX2q1AWKrHvKiW2gcgEcrqITPHx8UlJSWJrg7KmFJ41+3IGrEGHyATGhMgE+qMWmfZ/cfR3r0z+7VqmV8xfyySplwexQWSqrKw0mUzs5lQUIUJDQx0cHKyJTJL6y1GrdqI2XlLMzKSlpbVu3drLy4ufaqj9KpSFSuy7SoltIDKBnI0jU2RkJHv3qJMpU6bwO4w3EmtK4VmzL2fAGnSITGBMiEygP2qRSapNTX23zm0bO67PX59Wy0uSenkQG0QmsnHjxlatWrm6ujo5OdFxMC3Aysik9nLUqp2ojVfOzNARQJcuXYQz6zRehbJQiX1XKbENRCaQs3FkGj58uPziTAvZIDLdW8asQYfIBMaEyAT6oxGZ6kStPIgNlJaW5ubmNuyJamovR63aidp4y2m8CnmhEruvUmIbiEwgZ2VkqlPFtvj4+C5duri7u0+sVVRU9NtEd6LMEBsb6+PjM3DgwOTkZHlkMjuzpL6S1NTUkSNHenh4DB48mF9sqSxJJxTQo176BeHn50cDhDt9KyeU7yvVVl8ICgry9PSMiIiQ30JQo8ieMWvQITKBMSEygf40VGSCxiMvVGL3VUpsA5EJ5DQi074z2X22Pn3/uvE+r843+2F7XSu2HTt2zNvbmwLPrloa//1B+7Zt25YCCQUkih+urq4sMqnNrLaSxMREk8m0bNkyyiQUV/hH3yGKynXC6QD0jOPHj09LS6PnohkoQbEusxPK992wYQOtav369bTvqFGjXFxc+H8zhagX2VtiyBp0iExgTIhMoD8GiUxNtvIJ3BOITCCnFpl25/+904aJ7JLO+Zl/6Rr3hDI11aNimyUn5t24ccPZ2TkuLo49LCsra9euHUUmjZnNroTm6dChw6pVq+SNTIiicJwQmdzc3PhVlIsXL+7Ro4ekPiHfl1ZIK+fnV9PDbt26UX5jD0PUi+wZswYdIhMYEyIT6I9BIhMqn4AcIhPIqUWmP2x5Un7j0IVZa/y2LRTG1KNimyWRidUSOH36NG+hGSgyacxsdiU5OTk0nt+fRi5EUThOiEzyAJORkeHg4EBvmGoT8n1ZcqN18q4ZM2aMGDGCbYeoF9kzZg06RCYwJkQm0B+DRCYAOUQmkFOLTE5rxwjl6dqv++WqQrm6VmyzJDKdOHGCZmCn4zIULSgyac+sXMnRo0dpvPxqIk55fxohMkVFRfGuQ4cO0TwlJSVqE/J92crpqXnX3Llzg4OD2bbGvXyMWYMOkQmMCZEJ9AeRqckyYIkSm0FkAjm1yPRIwnT5p0xPp0crP2WSs7BiG4WEefPmia13Kisrc3BwSEtL4y3u7u4UmbRn5vhKrl27RuN37NghjlCkF0kRmQjv2rJlS7t27WhDbUK+b3l5Oa08JSWFdwUGBvIPrDQikzFr0CEygTEhMoH+IDI1WQYsUWIziEwgpxaZ3szLcnk5jJene2DjH5XXMtWjYltUVJS/v//Fixcp2MgvJRKEhYX5+vpSRJFqb6hAQYXd/kFtZrWVTJ48mbbZFUE3b948ePAg2/GukYniCqt2cP78eZqBl10yO6F830mTJnl6erIrRbdv304JKjs7m0+rFpmMWYMOkQmMCZEJ9AeRqWkyZokSm0FkAjm1yETezj/QK3FW29hxfbfOVeYlqV4V2woLCwMCAhwdHZs1a3bq1Kk7ppMpKiry8vIymUzOzs6UNNiJeZL6zGorKS8vnzBhAuUWFxcX6pVfVqQdmejp+vbtS3tRWgsODuaf9pidUL7vpUuXgoKCaK/27duzW+exdjatWmQyZg06RCYwJkQm0B/rI5OyuEdda4aojRdm3rt3r3A2S1JSErtx08GDB6dOnerr60sjFy1a9PXXX8uHCTQKg9DvcnoW/nDDhg00jG2zvWgxtPiBAwfSMIoxdChAT/roo49+8MEHfC9J5RUpv1GSevUSY5YosRlEJpDTiEwWaqSKbfQmc/r06bNnz4od6jOrraSkpITaLb9HKM82BQUF8guTuLtOyFZSp1vsGLAGHSITGBMiE+iPRmTa/8VR320L7l83nr6a/e9VJuTO4h51rRmiNl45c35+vvxOTdXV1dTL/v+SjnhiY2MzMjJSUlICAgIGDRr0y+LMCVEvDELRhd8bl0ycOJHXjmSLoWC2Z8+ehQsXtmzZkmLPzJkz6SG9KIo3ly9fZiPVXpHwciTN6iXGLFFiM4hMIGd9ZLI/ys+gbMCANegQmcCYEJlAf9QiE2WkBzb+cW76yucOx9BXsyfxMyGy4h51rRmiMV66c2ZmwIAB/Hz69PR0k8nEgwp35coV7dNdQtQLg2hHJn5WPe1L4YdHmqqqqg4dOrz55puS5isSXo529RJjliixGUQmkLuHkanJlowLCwtbs2aN2AoNDZEJjAmRCfRHLTJ5b503570/81tF0Ta1iINqhciKe9S1ZojGeGFmJiEhoXPnzjSVVHsJMj8JnoLT0qVLg4ODad9evXo5ODikpqbKd5QLUS8Moh2Z5HtReJP/Fyw9Lzvq0nhFwsvRrl5izBIlNoPIBHL3MDKhZJzBITKBMSEygf6oRab7Y8cJBUmoRRxUS37+Rl1rhmiPV54ZUlpaet999+3bt6+srMzR0ZHdzYn4+PgMGzYsPT09JycnLy/PZDLxLiVhWvn1x0JkmjBhgjwyyfcKCAigUMQf8h01XpEwg3b1EmOWKLEZRCaQu4eRCQwOkQmMCZEJ9EctMnn+dY68IAlteybd8YEPJ08Cda0Zoj1eGZlIeHj4+PHjExMTO3bsyD6qKi4upiyRn5/PBrBLnuoXmYKCgpYvX867+vXrV9fIpPGKhBm0q5cYs0SJzSAygZweI9P69euTk5PFVouh7FsTgcgExoTIBPqjFpn2nPm408sTeUES2qYWcVAtIQnUtWaI2nhJMTOTlpbWunVrLy8vfppcZWWlyWTavHmzVFv/MTQ0lKJI/SLTokWL3N3dS0pKampqKJVRRKlrZJLUX5Hy5WhULzFmiRKbQWQCuXsSmSIjI9l7YP2Eh4fzCzvrAWXfmghEJjAmRCbQH7XIRFIKDvXcMtMpdix9pW2x+1dCEqhrzRC18cqZGfq93qVLF+EUtY0bN9LMrq6uTk5OdDRM89QvMl28eJEyDC2G5hk3bhwvhKLcSyMyqb0i5cvRqF5izBIlNoPIBHL3JDINHz5cfnmkLaHsW9OByATGhMgE+qMRmaxR15ohauMtV1pampuba/15a3T0UFhYyM5XsYblr0iteokBS5TYDCITyFkZmaqrq2NiYvr16zdw4MDk5OS4uDhez01SqdIWHx/fpUsXd3f3ibWKior4eDlWzI3epf38/Pz9/eU33Y6NjeUP1Ureoexb04fIBMaEyAT600iRCaxnwBIlNoPIBHIakWn/F0f9ti1sty6MvqoVWli5cmX79u0pJqWmpg4dOtTV1ZV/Oq1Wpe3YsWPe3t4UpXbVUvvfkJCQEJpt/PjxaWlpNInJZKIExbpGjx7NqiOolbxD2TddQGQCY0JkAv2x18jUZKudQFOAyARyapFp35nsLq9MmZf+7Asfr/3L3zc9tGmaMjVRzGjbtm1iYiJ7WFlZSeGERSaNKm2SZSfmUWRyc3Pj1zQuXry4R48ebJtHJrWSdyj7pguITGBMiEygP/YamVDtBDQgMoGcWmTqnfSU/Mah0Qc2+G1bKIxhYYN9sMM8/vjjLDJpVGmTLI5M8myTkZHh4ODA3sR4ZDJb8g5l3/QCkQmMCZEJ9MdeIxOABkQmkFOLTE5rxwjl6dqv++XyQi4nJ4fCxpdffslbRo0axSKTRpU2yeLIFBUVxR8eOnSIJiwpKZFkkUkyV/IOZd/0ApEJjAmRCfRHd5GJDjiSkpLEVjuF2imNBJEJ5NQi039tnir/lGnOe3/23bZAGFNRUdGyZctdu3axh1VVVV27dmWRSaNKm1SbeebNmye23imkFn+4ZcuWdu3asW15ZOJ4yTuUfdMLRCYwJkQm0B/dRaYpU6bwS6vtHmqnNBJEJpBTi0yJJ1Jc1ofx8nSur0xSXstEZs2a1b1798OHD58/fz4qKqpNmzb8PUqtShuhkf7+/hcvXqScU1NTwxoFlJcoybCSCTQ5PQuvxcQjk1rJO5R90wVEJjAmRCbQH0SmJgu1UxoPIhPIqUUmkvDpO7/f/ESbtWN6bpmpVs6bMs8TTzzh5OREOWTJkiVjxozhVwqpVWkjhYWFAQEBjo6OzZo1O3Xq1G/TyVBkore7vn37uri4NG/ePDg4mH8QxCOTWsk7lH3TBUQmMCZEJtAf6yOTWk0SOnTYu3cvH7ZhwwZeq+TgwYNTp0719fX19/enY4uvv/6aD2N1SOiXN3XNmDFDqo0KsbGxPj4+bH4emeo0iVlmh5ktoqJW9sTsYEkxM30fhDNwkpKSVq1aJWm+CtROaTyITCCnEZnqqqqq6uGHH968ebO80fIqbQJe/7qgoEB+YZKSWsk7lH1r4hCZwJgQmUB/rI9MajVJPD09+S1uycSJE/mnQ3SAQikoIyMjJSUlICBg0KBBfBgdIjzwwAOjR4/esWPH/v37qYXyWNu2bePj4ymfBAUF8fnrNIlZymFmi6iolT0xO9jszPn5+c2aNeO9FDKpl/2nr8arQO2UxoPIBHJWRqZPP/00KSkpNzf3yJEjU6ZMcXFxKS0tFQfVC49MDQ5l35oIRCYwJkQm0B+NyPRmXpZ7wrQ2a8fQ1zfyMsXuWho1STQik9yVK1fk56XQIULPnj35mf03btxwdnaOi4tjD8vKytq1a6ecR3sSNcIwtSIqamVPzA5m28oFDBgwgF+EkJ6ebjKZLl++zHsZ4VWgdkrjQWQCOSsj0+effx4aGurm5vbII4/QGx29Y4gjNGkUkQsLC1uzZo24A9gRRCYwJkQm0B+1yLQ7/+8dX57Ar3um7XfyD4qDNGuSaEQmSgtLly4NDg728PDo1auXg4NDamoq66KwMWfOHL4Xu/Xt6dOneQsdmrB5LJ9EjTBMrYiK2bInaoPNzkwSEhI6d+5MU9H25MmTR48ezdo1XgVqpzQeRCaQszIyWQlF5IwMkQmMCZEJ9EctMnkmzZHfXZe2PZJmi4M0a5IIkWnChAk8Mvn4+AwbNiw9PZ12z8vLM5lM7JZQkuJEFFZdhJ09wowdO5bNY/kkaoRhGkVUlGVPNAYrZyalpaX33Xffvn37ysrKHB0d+VI1XgVqpzQeRCaQu7eRCYwMkQmMCZEJ9EctMt0fO06o4Ugt4iDNmiRBQUHLly/nI/v168fai4uL6bg/Pz+ftbPrfNTSDgUMBweHtLQ03uLu7k7z1GkSNcIw7SIqDC97oj3Y7ALCw8PHjx+fmJjYsWNH9lGV9qtA7ZTGg8gEcohMcK8gMoExITKB/qhFJp9X58/NWMkj09Pp0f1e/a0IvZxaTZJFixZRvCkpKampqaGcQMf6rL2ystJkMrE7StHRf2hoKIUijbQTFhbm6+t77do1qfa2exRUaJ66TmKWcpjZIipqZU/MDmbbypkJBb/WrVt7eXnNnz+ftWi/CtROaTyITCCni8i0fv365ORksbUu5KWxJVTHbhoQmcCYEJlAf9Qi0/4vjnaNe+JPH6x97nDMkg9epG2zNRwl9ZokFy9e9PT0bNmyJXWNGzeOn1BHNm7c2KpVK1dXV+qig1dKWRppp6ioiGIGRQtnZ2fq5fPUaRKzlMPMFlFRK3ti5GTsWAAAgABJREFUdrDazFLtR3BdunQRzqzTeBWondJ4EJlAzsaRKTIykv23izZhWHh4OL+FTP3IS2NLqI7dNCAygTEhMoH+qEUmqTY1+W1b2G5dGH1Vy0sCoSZJTU1NYWGh/EokrrS0NDc318JzzGie06dPnz17Vmiv0ySWM1tERa3sidnBdaLxKlA7pZEgMoGcjSPT8OHD+UfNGiwcZiGhNDZrQXXsew6RCYwJkQn0RyMyWajxapIAaqc0EkQmkLMyMtWp1HV8fHyXLl3c3d0n1ioqKvptIhnlsNjYWP4OwIpl07u3n5+fv7+/8M5AD4OCgjw9PSMiIvgdz5WlsSVUx24CEJnAmBCZQH+sj0xW1iRpbBo1T8ShYBiITCCnEZleO5n2SMJ0p9ixHkmzzX7YXtdS18eOHfP29qYotauW2ufGymGjR49++umnWW9ISIirq+v48ePT0tLoKUwmEyUo1rVhwwZ6rvXr11PXqFGjXFxc2GfjSxSlsSVUx24CEJnAmBCZQH+sj0xNHGqegBIiE8ipRabkk6ku68N4ebrfvTJZmZrqUerawjPuhGFCZHJzc+P3hlm8eHGPHj2k2ud1dnbm1R3oYbdu3SjFSeZKY0uojt0EIDKBMSEygf7YfWQCUEJkAjm1yOSeME1eni4yfYXvtgXCmHqUum6QyCTPPxkZGQ4ODpWVlSy/0bPzrhkzZowYMUIyVxpbQnXsJgCRCYwJkQn0B5EJDAiRCeTUIpPT2jFCebr26365HYtcXUtdN0hkior6rerDoUOH6OlKSkpY7W9aAO+aO3ducHCwZK40toTq2E0AIhMYEyIT6I+uI5P1hUqgMch/Lrb8GcnLzmjXnEFkAjm1yNQrcZb8U6alH8b6bVsoDpKxsNQ1hZ958+aJrQrCMCEyEd61ZcuWdu3aSbU38HRwcEhJSeFdgYGB7PMoZWlsCdWxmwBEJjAmRCbQH11HJvkxhIWlTsAG5D8XK4vJ1OnHKi87o11zBpEJ5NQi094zR1w3TGLXMi39ILZb3FTltUz1KHVNwd7f3//ixYsUsWpqan6ZSEEYJkQmijqshtv58+fpSfm/skmTJnl6erLb22zfvp0SVHZ2tmSuNLaE6thNACITGBMiE+iP3UQmC891ARuQ/1ysZPmPVSg7o11zBpEJ5NQik1Rbns7n1fka5enqUeq6sLCQsr2jo2OzZs1OnTp1x3QywjAhMj355JN9+/Z1cXFp3rx5cHAw/6To0qVLQUFB1Ni+fXt26zzWriyNLaE6dhOAyATGhMgE+tMgkSk1NXXkyJEeHh6DBw/m5+ubrQ0i1VYUeeONN7Zs2TJgwIDAwEB5RRGz5U2WLFmyd+9ePmbDhg20L9vmxxDKGiYHDx6cOnWqr6+vv7//okWLvv76az4DK2lCBwrUNWPGDN4uUA4zW2VFUlm2xnhhZnp1wlk6SUlJq1atog21V6H2jGbVo4SL8rWrMfujlx/byYvJaHxDzP6VUP5YNSZRlp3RqDmDyARyGpHJQo1X6tosikz0xijVXowkv3KJY+sR7gsqL40toTp204DIBMaEyAT6oxGZ9p3J9kiazQqS7D1zROz+VWJioslkWrZsGR2z0oEv+0WuVhtEqv1l/+CDD4aHh7/77rvPP/988+bN2X98qpU3oaN5fs9cQofOTz75JNvmh+bKGiZ0DEQH6xkZGSkpKQEBAYMGDeIz0AIeeOAB2nfHjh30RLxdIAxTq7Kitmy18cqZ8/PzmzVrxnurq6upl/3fsNlXofaMaupRwsXCb5HZH710Z2Ti29rfELN/JZQ/Vo1JlGVnNGrOIDKBnPWRycZ4ZKoTeWlsCdWxmwZEJjAmRCbQH7XIRHmp84ZwXpCk04aJ1CIOkqQbN2506NCBfSTCadQGkWp/2dNxMD+Df8iQIeyQ2mx5E8myyCRpnsF15coV+QkwtICePXtqXELAyIdpVFkxu2yN8ZK5BQwYMIBfipCenk455PLly7yX4a/C7DNqCKl7CRflCpXM/ugZZWS66zfE7F8J6c4fq/YkyrIzGjVnEJlA7h5GpvrV2g4LC1uzZo3YCjqEyATGhMgE+qMWmbz+Gim/VRRtU4s4qPY8fvknJIxGbRCp9vhYnm3mzJkzduxYSaW8iVTfyESRY+nSpcHBwR4eHr169XJwcEhNTWVdtAB6Uj5SjXyYRpUVs8vWGC/MzCQkJHTu3Jmmou3JkyfT62LtZl+F2WfUEFL3Ei7KFSqZ/dEzysh012+I2b8S0p0/Vu1JlGVnNGrOIDKB3D2MTKi1bXCITGBMiEygP2qR6f7YcUJBEmoRB0nS0aNH6ahUfqkS0agNIilOKaHjaZ4QlOVNJEVkmjBhgiWRycfHZ9iwYenp6XRMn5eXZzKZ2N2lJMUC1MiHaVdZUS5be7xyAaWlpffdd9++ffvKysocHR35UtVehfIZ5bMJQupewkW5QiWzP3pGGZnq9A2R/5WQ/1i1J1GWndGoOYPIBHL3MDKBwSEygTEhMoH+qEWmvlvnCp8yUYs4SJKuXbvWvHnzHTt2yBs1aoNImsfHHC9vQttBQUHLly/nXf369TMbmUbLapgUFxfTsXJ+fj57yC4WsiYyaVdZ4SysymJ2AeHh4ePHj09MTOzYsSP74Ej7VTDyb5SakFr8oSUlXMyuUGD2R88oI1OdviHyvxLyH6v2JMqyMxo1ZxCZQE5Hkcn6QmeWly8DG0BkAmNCZAL9UYtM+7842uWVKZHpK547HENfadvsDXal2hPJunfvzq4YuXnz5sGDByX12iCS+vGxWnmTRYsWubu7l5SU1NTUUKKgg2CzkUlew6SiosJkMm3evJna6Yg5NDSUFmBNZJLUq6yoLVttvKSYmUlLS2vdurWXlxf/UKWystLsq1B7RjUhdS/hYnaFSmZ/9JK5yCTV5Rsij0xCaRqNSZRlZzRqziAygdw9iUyW1BxTjrGy0JlUl/JlYAOITGBMiEygP2qRSapNTf1ejbp/3Xj6qpaXpNoPKyZMmEBH2y4uLq1atWIXw6jVBpHUj49zVMqb0OEyHda3bNnSyclp3LhxY8eONRuZhBomGzdupKlcXV1pLzo+btOmjZWRSa3Kitqy1cYrZ2boqKVLly7CiWRmX4XaM6oJqXsJF7MrVDL7o5dUIpPl3xB5ZBJ+rBqTKMvOaNScQWQCuXsSmTTuWMNZMqZO6lS+DGwAkQmMCZEJ9EcjMtVJSUkJHcoLd3kyWxtEm9nyJvR7nQ6d+b1xLVRaWpqbm2v2vKx6U6uyYnbZkvp4y6m9CrVnVOKBpE4lXCxn9kevxvpviKQ+ibzsjHbNGUQmkLMyMlVXV8fExPTr12/gwIHJyclxcXG8dpykUknMbM0xgdkx8kJnGiXXzNZbk+pYvgxsAJEJjAmRCfSnoSITNFkWfmRkB+RlZ7RrziAygZxGZNpz5mPPpDltY8dpfNi+cuXK9u3bU0xKTU0dOnSoq6sr/yRcrZKYsubYHTPWMjtG/hFuiErJNbV6a1Idy5eBDSAygTEhMoH+GDwy1a8oShOk8UKsLOGiMbM4VD8QmUBOLTK9nX+g48sTWHm6uekrH9wYoUxNFDbatm2bmJjIHlZWVlJEYZFJu5KYJSfdKccIkUlZck2j3ppUx/JlYAOITGBMiEygPwaPTHZTFKXxXkjjzXwPITKBnFpk6rFlhvzGofMz/+K3baEwhkWOgoIC3vL444+zyKRdSUwZh5SUY4TIpCy5xp7UbL01qY7ly8AGEJnAmBCZQH8MHpnAmOgQWfyXAAamFpmc1o4RytO1X/fLxXJcTm1N5y+//JK3jBo1ikUm7UpiyjikpBwjRCZlybWPPvqomUq9NamO5cvABhCZwJgQmUB/kpOTdX2GFUBd1dTUIDKBnFpk6pFwx6dMURmrlJ8yVVRUtGzZcteuXexhVVVV165dWWTSriQmrzmmRjlGiEwhipJrGvXWpDqWLwMbQGQCY0JkAv358ccfo6OjkZrAOFJTUz/55BPxXwIYmFpkkl/L9HR6tNlrmcisWbO6d+9++PDh8+fPR0VFtWnTht/+QaOSmFBzjDUKlGOEyGS25JpavTWpjuXLwAYQmcCYEJlAl27duvXaa6/FARgAHRzv3btX/DcAxqYWmci7BYd/uWPeVtU75lGeeeKJJ5ycnCiNLFmyZMyYMfx6IY1KYkLNsd+mk1GOESKT2ZJravXWpDqWLwMbQGQCY0JkAgAA0BmNyFRXVVVVDz/88ObNm+WNapXErKRdck2t3prl5cvABhCZwJgQmQAAAHTGysj06aefJiUl5ebmHjlyZMqUKS4uLqWlpeKgRlC/kmuWly8DG0BkAmNCZAIAANAZKyPT559/Hhoa6ubm9sgjj0ycOPHMmTPiCE31Ln1mZck1aAoQmcCYEJkAAAB0xsrIZCW7LH0GFkJkAmNCZAIAANCZexuZwMgQmcCYEJkAAAB0xi4jU3x8fFJSkth6L1i4kurq6qioKHaRFYmNjf3oo4/uHGKHEJnAmBCZAAAAdMbGkSkyMjImJkZsbWhTpkzh5aEaRL2XbeFKKFYFBATwhykpKT179mzYeww2QYhMYEyITAAAADpj48g0fPjw+fPni60NzcKgYrl6L9uSldTU1Li5ue3cuVPe0rVr17fffls2yg4hMoExITIBAADojJWRKTc3d/LkyX369Onfv//06dP5ne727dtHMcPLyyssLOyTTz5hjfHx8V26dHF3d59Yq6io6LeJFFJTU0eOHOnh4TF48GDakTVu3bo1KCjI09MzIiJCfnc+yhixsbE+Pj4DBw5MTk62JKiYXaHZl6Nc9sGDB6dOnerr6+vv779o0aKvv/6aT6u9ErPrz8zMbNOmzTfffMOHEZp2yJAh8hb7g8gExoTIBAAAoDMakWn/F0d9X13Qbl2Y37aFtC12SxId5Xfq1GnOnDkffPDB/v37V6xYUVBQINUGAycnp5iYmKysrJUrVzo6Oubk5FD7sWPHvL29KajsqqVRRjYxMdFkMi1btozixBtvvMFKMG3YsIGmWr9+fVpa2qhRo1xcXK5evcrG03O1bduWsg0FIcokrq6u2pHJ7ArVXo5y2fRNo1yUkZGRkpISEBAwaNAgPrPGStTWT68uMDCQz8Ds3r2bBgs5ys4gMoExITIBAADojFpk2nvmiOsrk+a89+fnDscs/SC226apytR05syZZs2aXbhwQd548+bNjh070tEwb5k2bdqkSZPYtiVnuN24caNDhw6rVq2SN9K0zs7Oa9eu5Q+7detGqYaNp664uDjWVVZW1q5dO43IpLZCsy+H0Vj2lStXaK9Tp05JmivRWP+wYcNmzpz5y3S/oglp2pMnTwrt9gSRCYwJkQkAAEBn1CJTr8RZs9OWx2bHsj/LPlznt22hMIaO+3v37v3QQw8tXrw4MzOTAoNUe24bHevPnj175cqV0dHRlApCQ0M9PDzYLhrZg8vJyaEZ2AdTHMszNDlvmTFjxogRI2ijoKCAuk6fPs276Bk1IpPaCs2+HEZY9uXLl5cuXRocHEx79erVy8HBITU1VdJcicb6BwwYsGjRIt7OfPXVVzT+wIEDQrs9QWQCY0JkAgAA0Bm1yOS0dsyawzE8MtF2+3Vh4iBJun79ekJCwpgxY+6//343N7fCwsLs7Gw61qfU8YIMvxjJksh09OhRmkF+qRI5ceIENdL8vGXu3LkUWngXv0M3GTt2rEZk0lih8uWwXYRl+/j4DBs2LD09nXJdXl6eyWTavXu3pLkSjfU/9thjTz31FG9nWPr67LPPhHZ7gsgExoTIBAAAoDNqkck9YZr8U6Y57/3Zd9sCcZAMhY0ePXpQDrl69Wrz5s3V7vY2evToefPmia13unbtGs2wY8cOeWN5ebmDg0NKSgpvCQwMZOezlZWVUVdaWhrvcnd314hM2itk+MthD+XLLi4upjCTn5/PHtIGPWSRSWMlGuuPjIwcOnQob2eysrJatGhBEwrt9gSRCYwJkQkAAEBn1CLTttz9LuvD2LVM9PV3r0xWXst07ty59957r7q6WqrNId27d2fFiyIiItzc3PiZdXl5eZmZmWw7KirK39//4sWLlElqamp+mUhh8uTJNBu7kufmzZsHDx6kjUmTJnl6erK72G3fvp0SSHZ2NhsfFhbm6+tLWUuqvcsCJSKNyCSprFDt5Uh3LruiosJkMm3evFmqzUihoaG0EhaZJM2VqK1/586dHTp0YM/LrV69muaRt9gfRCYwJkQmAAAAnVGLTCQ5N/WRhOlOsWN7Jz2178wv4USOIkfnzp1btWr14IMPtm7desyYMZWVldROoWL69OktW7akJNCmTRv6mpCQwHYpLCwMCAhwdHRs9ustE8wqLy+fMGEChQoXFxean13zc+nSpaCgIAoh7du3Z7ee4+OLioq8vLwoyTg7O4eEhGifmCeprFDt5UiKZW/cuJGGubq6Ojk5rVu3jmbgkUljJWrrp2ehBWRlZbGHTJ8+fTZt2iRvsT+ITGBMiEwAAAA6oxGZLHThwgUKG/x+3xzFHmo/d+5cVVWV0GWhkpISmoHXemLY0/Eww9XU1Jw+ffrs2bNCuwazK1R7OYLS0tLc3FyzJ85pr8Ts+qOjo8PCfrtU7Pjx4506ddK4Cbt9QGQCY0JkAgAA0BnrIxNYr6Kion///vy+EQsWLNi6deudQ+wQIhMYEyITAACAztzDyFRcXDzOHOFjpXpr7PnBSohMYEyITAAAADpzDyNTZWXlXnOUJ93VT2PPD1ZCZAJjQmQCAADQmXsYmcDgEJnAmBCZAAAAdMZeI1N8fHxSUpLYei9YvpLq6uqoqCh2RVNsbOxHH30kjrAviExgTIhMAAAAOnNPIlNkZCQvedRIpkyZon2f8bqq95otXwklq4CAALadkpLSs2fPet9sUBcQmcCYEJkAAAB05p5EpuHDh8+fP19sbVCWBxUL1XvNFq6kpqbGzc1t586d/GHXrl3ffvvtO0fZFUQmMCZEJgAAAJ2xMjJVV1fHxMT069dv4MCBycnJcXFxW7Zs4b379u2jpOHl5RUWFvbJJ5+wxvj4+C5duri7u0+sVVRUxMcLUlNTR44c6eHhMXjwYNqLt2/dujUoKMjT0zMiIuLMmTOskTJGbGysj48PW4klQcXs8khubu7kyZP79OnTv3//6dOnFxcXm13zwYMHp06d6uvr6+/vv2jRoq+//prtrr0Ss4snmZmZbdq0+eabb3gLzTlkyBD+0P4gMoExITIBAADojJWRaeXKle3bt6eYRPFm6NChrq6uPB5QNnBycqJAlZWVRcMcHR1zcnKo/dixY97e3pRVdtVSK9iamJhoMpmWLVtGWeKNN95YsmQJa9+wYQNNtX79+rS0tFGjRrm4uLCys/REbdu2pWxDQYgyiXwlZqktj0JLp06d5syZ88EHH+zfv3/FihUFBQVm10zfOopGGRkZKSkpAQEBgwYNYjNrrERt8YReYGBgINtmdu/eTYPlIcrOIDKBMSEyAQAA6IxGZEr8LOW/Nk9ts3ZMzy0z9545InbXpgvKBpRt2MPKykrKACwe3Lx5s2PHjnRMzAdPmzZt0qRJbPuuJ7nduHGjQ4cOq1atEtppWmdn57Vr1/KH3bp1o1RD46k9Li6OtZeVlbVr104jMmks78yZM82aNbtw4cJvo2tpr/nKlSu016lTpzRWorZ49nDYsGEzZ85k2wzNRnOePHlS3mhPEJnAmBCZAAAAdEYtMiWeSHFZHzbnvT8/dziGvrq+Mmn/F0eFMeyYvqCggLc8/vjjLB7k5uZS1+zZs1euXBkdHU3BIDQ01MPDgw3Tjh8kJyeHdmcf+8ixPEOT85YZM2aMGDGC1kDtp0+f5u30dBqRSWN5lGR69+790EMPLV68ODMzkyIQ20W55suXLy9dujQ4OJh27NWrl4ODQ2pqqsZK1BbPtgcMGLBo0SLeRb766isaf+DAAXmjPUFkAmNCZAIAANAZtcj0X5unzk5bHpsdy/5QavLdtkAYw4LNl19+yVtGjRrF4kF2djZ1Uep4QYZfj6SMH4KjR4/S7vJLfZgTJ05Qe2FhIW+ZO3cuhRbWzm7PzYwdO1YjMmkv7/r16wkJCWPGjLn//vvd3NzY0ynX7OPjM2zYsPT0dPo+5OXlmUym3bt3a6xEbfFs+7HHHnvqqad4F2Hp67PPPpM32hNEJjAmRCYAAACdUYtMTmvHrDkcwyMTbbdfFyaMqaioaNmy5a5du9jDqqqqrl27snhw9erV5s2bq93wbfTo0fPmzRNbZa5du0a779ixQ2gvLy93cHBISUnhLYGBgTNnziwrK6P2tLQ03u7u7q4RmbSXx1F26tGjByUrSbHm4uJiyjP5+fnsIW3QQ4pMGitRWzzbjoyMHDp0KO8iWVlZLVq0oAnljfYEkQmMCZEJAABAZ9QiU+/Ep+SfMq048LLftoXiIEmaNWtW9+7dDx8+fP78+aioqDZt2vCgEhER4ebmxk+uy8vLy8zMZNs00t/f/+LFi5RJampqWKNg8uTJNDO7kufmzZsHDx5k7ZMmTfL09KTEQtvbt2+nEJKdnU3bYWFhvr6+lLWk2rssUCLSiEyS+vLOnTv33nvvVVdXS7XJitbAyjEJa66srDSZTJs3b5ZqL1gKDQ2llVBkkjRXorZ4snPnzg4dOrDnZVavXk3z8If2B5EJjAmRCQAAQGfUItO+M9m/e2Xy3PSVzx2OWfX3uIc2TVNeyyTVfg7zxBNPODk50eH+kiVLxowZwy/IqaiomD59esuWLamLohR9TUhIYF2FhYUBAQGOjo7Nam+Z8Nt0MuXl5RMmTKBQ4eLi0qpVK37Nz6VLl4KCgiiHtG/fnt19jrUXFRV5eXlRjHF2dg4JCdE+MU9SXx6FqM6dO9MzPvjgg61bt6ZXROlIMrfmjRs30jBXV1d6+evWraNJWGTSWIna4qXam2fQGrKysnhLnz59Nm3axB/aH0QmMCZEJgAAAJ1Ri0yEMpLftoXt1oXRV7N5SVBVVfXwww+zD144Sj4UQs6dO0e98nYLlZSU0O7sYxm5CxcuUDsLM1xNTc3p06fPnj0rb9Smtjw2P78DuJrS0tLc3FzluXPaKzG7eBIdHR0W9svZj8ePH+/UqZPaHdjtAyITGBMiEwAAgM5oRCZLfPrpp0lJSRQbjhw5MmXKFBcXF0oR4iCwTEVFRf/+/dmtIxYsWLB161ZxhH1BZAJjQmQCAADQGSsj0+effx4aGurm5vbII49MnDhReY87bcXFxePMUX6sVD+NPT9YA5EJjAmRCQAAQGesjExWqqys3GuO8qS1+mns+cEaiExgTIhMAAAAOnNvIxMYGSITGBMiEwAAgM4gMsG9gsgExoTIBAAAoDObNm3CDRvA9vbv35+eni7+dQQwAEQmAAAAnaGD17i4uJdffnl9o/nv//7v1atXi612Yfr06WKT4a1YseJPf/qT2Hqnl1566ZNPPhH/LgIYAyITAAAA3OHYsWM9evS4deuW2KF///rXv+il0Vexw9h++OGHP/zhDwcOHBA7AKAWIhMAAAD8Jisry83NLTAwUOywC6mpqb/73e/oq9hheCNHjuzWrdtrr70mdgAAIhMAAABw77zzjre3d1xc3KxZs8Q+uzBz5swnnniCvoodhre6VmhoaHR09E8//SR2AxgbIhMAAAD8f0lJSf7+/iUlJQkJCbGxsWK3/rGz8q5fv45z85TS09Nnz579P//zP0/Uog1xBICBITIBAADA/7344ouPPvpoZWUlbS9cuHDv3r3iCP1LTU1lny/RV5ybJygtLfX29qaNn376KTo6OjQ0tLy8XBwEYFSITAAAAIZGh8jLli0bPXp0dXU1axkxYkR+fv6do+wBT0o8O4EcRSYKTmz7tdde69evX2Fh4Z1DAAwKkQkAAMC4bt26FRkZ+cc//vG7775jLbdv33Z3d5ck6c6Buie/Vx7um2fW7Nmz5WWXDhw44OnpidvoAfwfIhMAAIBhUUyisESRSX4/8evXr7MTtOyM8MkSzs1TevXVV1evXi1vKSws7NevH26jB4DIBAAAYETV1dWjR49etmyZcHu048ePh4eHy1vsg5CRcG6e0ueffz5y5Eihsby8HLfRA0BkAgAAMJzKyspHH330xRdfFDv+7/9ef/31lStXiq06pzwTT9kCP/zww+9//3v6KrTjNnoAiEwAAADGUlJS4u/vn5SUJHbUorxEqUls1Tmznynh3DylkSNHfv7552IrbqMHhofIBAAAYCDnz5/39vZ+5513xI5fhYeHHz9+XGzVObPpyGyOMrjVq1e/+uqrYuuvcBs9MCxEJgAAAKM4deqUl5dXVlaW2CFDger69etiq56pnYOn1m5krKCt2PqrW7duzZgxw8PD45///KfYB2DXEJkAAAAM4dtvv+3du/e0adM0biBOXe7u7rdv3xY79Ezj0ySznz4ZGS9oq5SdnT1o0KCnnnqK124CMA5EJgAAAKOoqKj405/+5OXltX37dvmNxbn8/PwRI0aIrTqnkYs00pRhyQvaMpcuXaKkRHmJUpO8HcA4EJkAAACMpaioaPr06QEBAenp6cLt0fbu3btw4UJ5i95pn32n3WtM8oK2lKs3btz4wAMPvPjii2YzNoBBIDIBAAAY0YkTJ4YOHdqtW7djx47xxtjY2ISEBNko3bvr50gan0EZEy9oy8/Ei4mJoa/iOAAjQWQCAAAwqHXr1kVERAQEBEyfPr2oqIhaZs2a9eGHH4rj9OyuieiumcpoPv/888GDB8vPxPvxxx9p+8iRI+JQAMNAZAIAADAiSZJ69+5dWlp669at7du3e3l5/elPf/Lz8/vqq6/Eobr1r3/96+GHH/7d3dAYnJvH/fDDDz169EhISJCfiXf06NGBAwdSdpINBDAQRCYAAAAjomPixYsX84eUoNavX//II4/Y/SUrlJHEJrhTVVWV2FR7jdPmzZvFVgBjQGQCAAAwnO+//97Ly+vixYtCu9ljZTuDyFQ/paWl7GNJsQPAABCZAAAADGf79u1z5swRW40BkaneEhIScB8IMCZEJgAAAGO5deuWj49PYWGh2GEMiEz19uOPPw4cOFB+i0UAg0BkAgAAMJaUlJSIiAix1TAQmazx8ccfBwYG2v0FbwACRCYAAAAD+fnnnwcNGpSTkyN2GAYik5WefPLJpKQksRXAriEyAQAAGEhmZubYsWPFViNBZLLS1atXe/fuXVFRIXYA2C9EJgAAAAMZOnTo4cOHxVYjQWSy3ssvv7xgwQKxFcB+ITIBAAAYxZEjR4YMGXL79m2xw0gQmaz3/fff+/n5nTx5UuwAsFOITAAAAEYxbty4jIwMsdVgEJkaRFZWFsXvn376SewAsEeITAAAAIZw8uTJQYMG4RgXkamhhIeH79ixQ2wFsEeITAAAAIYwderUd955R2w1HkSmhnLhwgUvL6/q6mqxA8DuIDIBAADYv7Nnz/r4+KCczv8hMjWoVatWPfvss2IrgN1BZAIAALB/kZGRf/vb38RWQ0JkakA1NTVeXl7/+Mc/xA4A+4LIBAAAYOcuXbpEx7Xff/+92GFIiEwNa+fOnRMnThRbAewLIhMAAICdW7x4cUJCgthqVIhMDeunn34aMmTI+++/L3YA2BFEJgAAAHtWWlrau3dvSZLEDqNCZGpwOTk5/fv3//e//y12ANgLRCYAAAB79uyzz7700ktiq4EhMjWGuXPnbtq0SWwFsBeITAAAAHbrm2++6dmz57fffit2GBgiU2MoKyvr3bt3eXm52AFgFxCZAAAA7FZsbOxf/vIXsdXYEJkaSVxc3Lx588RWALuAyAQAAGCfJEnq1atXWVmZ2GFsiEyN5N///refn9/JkyfFDgD9Q2QCAACwT/Hx8UuWLBFbDQ+RqfFkZWUNGTLk559/FjsAdA6RCQAAwA599913np6ely9fFjsMD5GpUU2YMGHXrl1iK4DOITIBAADYoddee23u3LliKyAyNbJ//OMfffr0qampETsA9AyRCQAAwN7cunWrX79+586dEzsAkanxrVy5EjcdATuDyAQAAGBv3nnnnWnTpomtUAuRqbFVVVV5eXlduHBB7ADQLUQmAAAAu/LTTz8FBATk5eWJHVALkckG3nrrrfDwcLEVQLcQmQAAAOxKWlrahAkTxFb4FSKTDVBuHzJkyPvvvy92AOgTIhMAAID9uH379qOPPnrs2DGxA36FyGQbubm5fn5+33//vdgBoEOITAAAAPbjwIEDI0aMEFtBBpHJZhYsWLBhwwaxFUCHEJkAAADsB+Wljz76SGwFGUQmm6moqOjdu/fVq1fFDgC9QWQCAACwE8eOHQsJCbl9+7bYATKITLaUlJT05JNPiq0AeoPIBAAAYCcmTpyYmpoqtsKdEJls6datW4GBgR9//LHYAaAriEwAAAD2IC8vz9/f/z//+Y/YAXdCZLKxo0ePDhw48McffxQ7APQDkQkAAMAeTJ8+/e233xZbQQGRyfaeeuqphIQEsRVAPxCZAAAAdO/cuXPe3t74j3xLIDLZXmlpae/evcvKysQOAJ1AZAIAANC9uXPnvvbaa2IrmIPIdE9s3rx59uzZYiuATiAyAQAA6Nvly5c9PT2/++47sQPMQWS6J3788ceBAwcePXpU7ADQA0QmAAAAfVuyZMnmzZvFVlCByHSvHDlyZNCgQTh9FPQIkQkAAEDHysrKevXqJUmS2AEqEJnuIdwHAnQKkQkAAEDHnn322XXr1omtoA6RqUHs2bOH/uK9UkerV69+5JFHXnrpJbEDoGlITk6+deuW+NcdkQkAAEC/vvnmm549e3777bdiB6hDZLLe8ePH9+3bJ9XLP//5T7EJoMkoLi6Ojo5Wnj6KyAQAAKBXa9euXb16tdgKmhCZrLdu3bqamhrxYBPALlBqSk5OFv7OIzIBAADoEh2z9urVq7y8XOwATYhM1qPIJB5mAtiRDRs2CH/nEZkAAAB0KS4ubunSpWIr3A0ik/UQmcC+ITIBAADYg//93//18PC4cuWK2AF3g8hkvXsVmWpqaj7++ONnn3126OND+/TtQz/Kvn37Dn38cWqhdpwrCA0FkQkAAMAevPrqq/PnzxdbwQKITNa7J5HpwIEDjz726KDgQQtWPbNp35Y3juxMK8yir/H7Exf9ZXHg4MDHHnuMxoi7AdQdIhMAAIDu/fDDD97e3ufPnxc7wAKITNazcWSqqqpasWKFT3/f519dSzFJ7c+Lr73k298vOjqaxotTANQFIhMAAIDuvfXWW7NmzRJbwTKITNazZWSi/BMRETFi/MjduXuVMUn4Q2NGTRj9xBNPIDWBNRCZAAAA9O3WrVv9+/cvKCgQO8AyiEzWs2VkWrFixfDxI/afyVAGJLN/aOSosNHR0dHiRAAWQ2QCAADQtz179kyZMkVsBYshMlnPZpHpwIED/fx83skRP19K/SJz1V+fC3tq4rBJIyIWTovblyDvpfG+/X1xXRPUGyITAACAjv3888+BgYEnTpwQO8BiiEzWs01kqqmpefSxR9e8GiPkpR3Hd/+hb89mMqZWJmHMC9vWPhb62F3voffll1+ePn1a3nL9+vVjx47985//lDcqvfDCC2+99ZbYWmv9+vXJyclia301yGzffvvtRx999Le//S0tLe3ChQtitxXi4+OTkpLEVus0yEu2EiITAACAjmVlZY0dO1ZshbpAZLKebSLTxx9/7B8UIGQh+uMT5MuSUvc//H7oxGGPePVQRib6Myh4EM0gTnqnqVOnBgUFyVsOHjxIM586dUreqBQSErJkyRKxtVZ4ePgzzzzDtiMjI2NiYu7srxv5bPXz7rvvdunSpW3btn5+fh4eHiaTKSws7K5h0kJTpkx58sknxVbrjB49+umnnxZbbQuRCQAAQK9u3749ZMiQw4cPix1QF4hM1rNNZIpeGT13ZZQQhF55N57lpaCRg1O/yGSN0ZtXKSPT/GefefbZZ8VJ79QYkUlu+PDh8+fPF1tt6MMPP2zRosXChQv552YXLlyYPHnyzZs37xxYT4hMAAAA0LRQWBo6dKjYCnWEyGQ920SmkNBHN+3dIgShiAVTWWR69cO/KWOS/A/tGzokVJz0TtqRibZpgK+vr7+//6JFi77++ms+jEWml19+2c/Pj3q3bt3Ku2JjY9nD+Pj4Ll26uLu7T6xVVFSkMSFJTU0dOXKkh4fH4MGDaV9hNkIbtFpPT8+IiIgzZ87wHdesWfPGG29s2bJlwIABgYGB8sXQ8vr06aP2mRK9hL179/KHlBNoErattlSaipbk4+MzcODA5ORkeWSiZbz++uubNm2iXWbMmCFpzs8Gm/0GyiPTvn37KHZ6eXmFhYV98sknfExjQ2QCAADQqzFjxrz//vtiK9QRIpP1bBOZPLw838jeJQShoBHBFGmcXZyVGUn4Q/t69fESJ70TpQLKGDdlPvzwQx6ZXnrpJYoHGRkZKSkpAQEBgwYN4jtSZHJ1dR0/fnxaWlpMTIzJZKIAwLr4Ef+xY8e8vb3piH9XrfLyco0JExMTaZJly5ZlZmZS/uEfYfHZ6CDe0dFx/fr19IyjRo1ycXG5evUqG0OLefDBB8PDw999993nn3++efPmWVlZ1F5SUuLg4ECx5NcnEVH6Wrt2LX9IuY7nH7Wl0ott27YtJToKM5Tf6JvAd6FlPPDAA7TgHTt27N+/X9Kc35JvIOUoJycn6qWXs3LlSnr5OTk5fLZGhcgEAACgS59++ikdoPz8889iB9QRIpP1bBOZunXrti8/XQhC/QJ9KNI85P6wMiMJf2hfmkGc9E4UmdhnVgLliXlXrlyRt9MRv5ubW3V1NXu4ePHiHj16sG35hyQaJ+bJJ7xx40aHDh1WrVolDvp1Nspyzs7OPH7QQ3ppK1asYA9pMZTN+EdJQ4YMYQv47LPP6Cn27NnD2pU0Io0cXyqtk5YRFxfH2svKytq1aydPQT179pR/oqUx/12/gfQaO3bs+Morr7BGMm3atEmTJvGHjQqRCQAAQJcmT568b98+sRXqDpHJeraJTB5eHspPmfwG96fD9wfcHlRmJOEP7etpwadMvr6+Z2TeeustnmQuX768dOnS4OBgDw+PXr16OTg4pKamsh3piH/mzJl8noyMDOqtrKyUNCOT2oQ5OTn0pGY/QmGz0cJoQG5uLm+fMWPGiBEj2DYtRv4sc+bMGTt2rPTrtG+//TbvEmhEGrNLLSgooAnl9xgMDQ2VpyB6at4lac5/128gvVh6rtmzZ69cuTI6OpryIT0XLYbv0qgQmQAAAPSHjlEGDBjwn//8R+yAukNksp5tItPgx0KU1zINnTiMjqRbO9531+K2tO9jQx4TJ72T9rVMPj4+w4YNS09Pp+yRl5dnMpl2797NhtERf1RUFN/r0KFDtFdJSYmkGZnUJjx69CjtLr88iWOznThxggYUFhby9rlz51KeYdvCvShoPO0l1d4wvUWLFs8//zzvEgiRZsKECTzSmF0qW8b58+f5LpTN5ClIuCWGxvx3/QZmZ2dTy+LFi1+Q4Zd4NTZEJgAAAP2h44ydO3eKrVAviEzWs01kWrpi2dPR84QgNG/Ngma1nkt+URmT5H/mroyKXhktTnonjchUXFxMG/n5+aydNuihPDIRvteWLVvatWvHtuWRibbnzZvHtjUmvHbtWvPmzXfs2MG65Nhs5eXlDg4OKSkpvD0wMJB/SqMWmaTazNa1a9dvvvmG9xL+kF778uXLeXu/fv1YpFFballZGS0jLS2N7+Lu7q4RmdTmlyz4Bl69epW+JxofkTUqRCYAAACdOXfunLe3948//ih2QL0gMlnPNpHp448/7h84QAhCbx1729S6FR3B/+6hLpv2/f/PoP76fvLAxwOVkSkgKMCaukyVlZUmk2nz5s1S7UU7oaGhlBbkkalFixbs4fnz57t3786rJ8kjU1RUlL+//8WLF69fv15RUaEx4eTJk2mSkydPSrWXKtEyhNkmTZrk6elJYYa2t2/fTvtmZ2ezMRqRidIORZFhw4bl5eVJtTNnZGT06dOH3WR80aJFlHlKSkpqamoSExPpFbFIo/Haw8LCfH19KeNJtbmCUo1GZFKbnw2+6zcwIiLCzc2Nn69ILyEzM5NtNzZEJgAAAJ2ZN29ecnKy2Ar1hchkPdtEJjrODgoJWvNqjJCFZi2fzT5oIi1atqCvylK2tFfIoyFqN9fmNCITbW/cuLFVq1aurq5OTk70ktu0aSOPTHT037dvXxcXF4oNwcHBFC1YlzwyFRYWBgQEODo6sjk1JiwvL58wYQIlE5qQxvDrlPhsly5doqXSc7Vv357dOo8NkBRZRR6ZCMUwGkA73nfffZRS6Nl5dV3KchTDWrZsSesZN26c/Cw7taUWFRV5eXlRoHJ2dqZptU/M05jfkm8ghczp06fT7h06dKAF0NeEhAQ+eaNCZAIAANCTy5cv0zHHd999J3ZAfSEyWc82kUmqrcTax7fvOzl7hUQUtWahc8cOPDj9l4e7vJfGe/t5HzhwQJyu7kpLS3Nzc/nRvFJBQYH8EqO70p6wpKQkJyeHfZRk1oULF2gAu01CnVy7do12/Oqrr4R2SpW0fvnlSZzaUmmX06dPnz17Vmg3S21+nq/u+g2kMEkrP3fuXFVVldjXaBCZAAAA9GTx4sWbN28WW8EKiEzWs1lkIkuWLRky9nHlzR5Sv8hMyty2IWXTa39/U95OI4eOG7ZsxW+X0EATpPxIqklBZAIAANCN0tLS3r170+9vsQOsgMhkPVtGpqqqqgmTJw4ZO3R3rvhZk/IPjRk69vFJf5xsy08koB7CwsLWrFkjtjYZiEwAAAC6sXLlypdeeklsBesgMlnPlpFJqk1Ni5ct6ePbV3ldk/wP9fb19V7652XIS2AlRCYAAAB9qKys7Nmz540bN8QOsA4ik/VsHJmYDz78YNDgQL/A/pHR8zbt2/LGkZ0Uk+grbVNL/8D+gYODPvzoQ3E3gLpDZAIAANCHmJiYNWvWiK1gNUQm692TyCTV3kvg0OFDi5cvCX5ssIeXB/0o6evg0MF/+vPSjz/++K73xwOwECITAACADlRVVfXq1auiokLsAKshMlnvXkUmANtAZAIAANCBV155Zfny5WIrNAREJushMoF9Q2QCAABo6v71r395eHhcvXpV7ICGgMhkPUQmsG+ITAAAAE1dYmLiM888I7ZCA0Fksh4iE9g3RCYAAIAm7fvvv+/Tp09xcbHYAQ0Ekcl6FJneeuutdQD2aMeOHYhMAAAATdr27dvnzJkjtkLDQWSy3jp8ygR2DZEJAACg6bp165aPj8/Zs2fFDmg4iEzWQ2QC+4bIBAAA0HS98847U6dOFVuhQSEyWQ+RCewbIhMAAEAT9dNPPwUEBOTl5Ykd0KAQmayHyAT2DZEJAACgiUpNTZ04caLYCg0Nkcl6iExg3xCZAAAAmqLbt28PHjz4+PHjYgc0NEQm6yEygX1DZAIAAGiKPvzww1GjRomt0AgQmazX4JFp/fr1ycnJYivAPYLIBAAA0BQNGzbs4MGDYis0AkQm61kZmSIjI2NiYuQt4eHhzzzzjLwF4B5CZAIAAGhyjhw5Ehoaevv2bbEDGgEik/WsjEzDhw+fP3++2ArQZCAyAQAANDljx47NyMgQW6FxIDJZz5rIFB8f36VLF3d394m1ioqKqDE2Nnbr1q20sWbNmtdff/3ll1/28/Pz9/dnjRw9DAoK8vT0jIiIOHPmjLwLoAEhMgEAADQtJ06cCAwM/Pnnn8UOaByITNZTi0wne3kr/whjjh075u3tPXz48F21ysvLqXH06NFPP/00bYSEhLi6uo4fPz4tLS0mJsZkMlGCYjvSUayjo+P69eupa9SoUS4uLlevXpXPDNBQEJkAAACalj/+8Y979uwRW6HRIDJZTyMy3bVFMndinjwyubm5VVdXs/bFixf36NGDNm7evOns7Lx27VrWTg+7deu2YsWKXycAaEiITAAAAE1IQUFB//79b926JXZAo0Fksl6jRqaZM2fy9oyMDAcHh8rKyjNnzjRr1iw3N5d3zZgxY8SIEfwhQANCZAIAAGhC6Ohwx44dYis0JkQm6zVqZIqKiuLthw4doqRUUlJy4sQJ2igsLORdc+fODQ4O5g8BGhAiEwAAQFPxj3/8w9vb+4cffhA7oDEhMlnPyshEAWnevHlCC49MhLdv2bKlXbt2tFFeXu7g4JCSksK7AgMD5Z9HATQgRCYAAICmgo4at23bJrZCI0Nksp6VkSkqKsrf3//ixYvXr1+vqamR7oxMLVq02L17N22fP3++e/fuvF7TpEmTPD09i4uLaXv79u2UoLKzs3+bFKDhIDIBAAA0CZcvX6bjv++++07sgEaGyGQ9jcik/CMOkqTC/8femcBVcWT7X1HMiEYlaIwxOjiP8amACyCgbIr7gqKIYVyyuJIYYuICxheijMQ4iSJgTIiJEeOIUUGBcYsxanwR/BN3jRqRoBHEGFH6vffJe5P5JJ//mVtjpa3qqnvhLt33cr4fPny6q6pPb+eeqt+91X3OnQsNDW3ZsmWTJk2+/vpr5WHJ9Mwzz/Tp08fLy8vNzS0iIqKqqopsde3atfDwcChs27YteXWe2iaC2BCUTAiCIAhiCObPn7927Vq2FLE/KJmsRySZrAck0yuvvAILp0+fVj+5RLl8+XJJScnt27fZCgSxHSiZEARBEER/bt682atXL+iY2QrE/qBksh4HSCYE0RGUTAiCIAiiP0uWLHnrrbfYUsQhoGSyHvtJptjY2NTUVLYUQRwLSiYEQRAE0Znbt2/37Nnz7t27bAXiEFAyWY/9JBOCGAGUTAiCIAiiM8uXL3/jjTfYUsRRoGSyHpRMiGuDkglBEARB9KS2trZHjx41NTVsBeIoUDJZj60kU1lZ2auvvjplypRvv/2WrUMQ/UDJhCAIgiB6smrVquTkZLYUcSAomazHVpKpa9euo0eP/uCDD6qrq9k6BNEPlEwIgiAIohvQE/fq1evGjRtsBeJAUDJZj00kU0VFRZMmTUpKStgKBNEblEwIgiAIohuZmZkvv/wyW4o4FpRM1mMTyXThwgWQTGfOnGErEERvUDIhCIIgiD789NNP/v7+5eXlbAXiWFAyWY9NJNPZs2dBMmnmq0UQfUHJhCAIgiD68MEHH8yePZstRRwOSibrsYlkysvLa968+a1bt9gKBNEblEwIgiAIogN///vf+/bte/HiRbYCcTgomazHSsl04sSJYcOGtW3b9u2332brEMQAoGRCEARBEB3YvHnz9OnT2VJED1AyWY+VkqmysjI3NzfMBFuHIAYAJROCIAiCOJp//OMfwcHBJ0+eZCsQPUDJZD1WSibC0aNHmzRpUl5ezlYgiN6gZEIQBEEQR7N9+/b4+Hi2FNEJlEzWYxPJRN6Yd/bsWbYCQfQGJROCIAiCOJRffvklPDz8q6++YisQnUDJZD02kUwXL17El4wjxgQlE4IgCII4lKKiopiYGLYU0Q+UTNZjE8lUU1MDkmnv3r1sBYLoDUomBEEQBHEcv/7665AhQw4dOsRWIPqBksl6bCKZgJiYmMceeyw6Ovry5ctsHYLoB0omBEEQBHEcBw8eHDp0KFuK6ApKJuuxlWSqq6srKSkpLCysqalh6xBEP1AyIQiCIIjjGDNmzJ49e9hSRFdQMlmPrSQTghgTlEwIgiAI4iCOHTsWERHx66+/shWIrqBksh6UTIhrg5IJQRAEQRxEXFxcfn4+W4roDUom67GTZHrrrbdycnLYUhtx4cKFkydPqktu3bp19OjRH374QV1oEDIyMtatW8eWqigrK3v11VenTJny7bffsnWI1aBkQhAEQRBHAAOakJCQf/zjH2wFojcomazHTpJpzJgxs2fPZkttBKiL8PBwdcmBAweaNGny9ddfqwsNwuTJk5955hm2VEXXrl1Hjx79wQcfVFdXs3WI1aBkQhAEQRBHMHXq1C1btrCliAFAyWQ9KJnsjVwyVVRUwJGXlJSwFYiNQMmEIAiCIHbnwoUL/fr1+/nnn9kKxACgZLIe6yVTfn7+qFGjfH19IyMjMzIySKFaMoGeAZETGBgYEhKSlJT0/fffk/LS0tL4+PjevXv3799/2rRpV69eFRUymJVMr7zyyvbt22ktDJqzsrLo6o4dO0aMGOHv7x8bG3vs2DFSKNpvamrqRx99tGrVqqCgIDj+9evXy+0oppcHpqenBwQEDBgwICcnRy6ZIMJgFmC7gpIJQRAEQezOzJkzN2zYwJYixgAlk/VYKZmys7Pd3d0XLlxYVFS0ceNG0CqkXC2ZVq5cCRKisLAwLy8vNDR04MCBUHjnzp0OHTrA52vPnj07d+5MTk4+ffq0ZiHdFwUkU1hYWK2KvXv3qiWTn5/fihUraPuJEydS0QKap1WrVmlpacXFxUuWLGnZsmVJSYlkv1FRUR07dhw/fnxBQQFsBScLCkpkh2wCha1btwb1CJoKpB1sLpFMZ8+ehSM/d+4cW4HYCJRMCIIgCGJfrl692rt3759++omtQIwBSibrsUYy3b1719PTc+nSpWyFeGLed999R7TNmTNnYIHJe6tZyAOSqYkWZiUTiKv27du//fbbtGrq1KmTJk2S7Bckk7e39/3798nq/Pnzu3fvLrKjmK5Ju3btVq9eTcqrqqratGkjkUwgI5s3b37r1i22ArERKJkQBEEQxL689NJL2dnZbCliGFAyWY81kqmkpKSJ4DkctWSqqKhYsGBBRESEr69vz549mzZtmp+fD6qjV69eXbt2BRFSVFQESkMxSRq+kIdM8zujYtOmTZZIptLSUmg2Y8aMJUuWpKSkJCcnR0dHw1FJ9guS6dlnn6WrhYWFcPxHjx7VtAMNTp8+DVXqF/pBlaZkOnHixLBhw9q2bauWXojNQcmEIAiCIHbk+vXrMAb6r//6L7YCMQwomazHGsl05MiRJoLncNSSKSAgYPjw4bt37wZxVVZW5u7uvnXrVsX0ZvDMzMyxY8c++uij3t7eZHKaZiGD2WeZGMk0YcIEIloOHz4MzUAXLVdBnr8S7RckU2JiIjV18OBBsADCSWTn+PHjUHXp0iW6SUxMjKZkqqyszM3NDTPB1iG2AyUTgiAIgtiRRYsWvf3222wpYiRQMlmPNZLpxo0bbm5uMO5nK1SS6erVqyAhTp06RcphAVaJZKKAXOnevTsoELOFBLOSCWrh80tr+/XrR0TL9evX4YC3bNlCq3iY/UaZoLVZWVlt2rSR2KmqqmratGlBQQEt8fHx0ZRMBPKDVXl5OVuB2AiUTAiCIAhiL2DY1LNnz/v377MViJFAyWQ91kgmID4+vlu3bidOnFBM0+pAupByKplu377t7u6+du1axSQnoqOjQVGAZLp48eKuXbvIM0KgQMBIWlqaZiHdF8WsZEpKSgKhUllZWVdXl52d3axZMypaEhISvL296WTCsrKyoqIiyX5BL8HmRONdunQJql566SWRHbIcGxsbGBgIelIxjddBXEkkE3lj3tmzZ9kKxEagZEIQBEEQe5GamvrnP/+ZLUUMBkom67FSMlVXV0+YMAFUkJeXV4sWLUaOHEnK1RPz3nnnHajq2LFjq1atYHceHh6gQEBsPP7441DeuXPnRx55ZOzYsSCuNAt/29kDzEqm8vJyPz+/5s2bwx7HjRunnhpXU1Mzbdo0qPL09IQjgf+ZmZmS/YJkgm379OkDJwjiJyIiAoSfyA7Z5MqVK/7+/iAU27VrB5uLJuYRQK2JJjciNgElE4IgCILYhR9//LFnz54//PADW4EYDJRM1mOlZCJUVlaC6tDMoUS4efNmaWkpERtqLl++DBtev37dbGF9qaurO3funPqZIjWg9GAXIFfu3btHCzX3C5qHvDn99OnT/INVmnYU095Pnjx5/vx5daEmIL1AMu3du5etQGwESiYEQRAEsQswiHzttdfYUsR4oGSyHptIJheGSib7ERMT89hjj0VHR2u+5RyxEpRMCIIgCGJ7oIvt2bNnVVUVW4EYD5RM1oOSSU5sbGxqaipbalPq6upKSkoKCwtramrYOsRqUDIhCIIgiO3JyMh49dVX2VLEkKBksh6UTIhrg5IJQRAEQWzM//zP//j5+VVUVLAViCFByWQ9KJkQ1wYlE4IgCILYmPfeey8xMZEtRYwKSibrQcmEuDYomRAEQRDElvzf//1f3759L126xFYgRgUlk/WgZEJcG5RMCIIgCGJLNm3a9Nxzz7GliIFByWQ9KJkQ1wYlE4IgCILYjJ9//jkoKOjMmTNsBWJgUDJZD0omxLVByYQgCIIgNmPbtm1PP/00W4oYG5RM1oOSCXFtUDIhCIIgiG345ZdfBg4cWFJSwlYgxgYlk/WgZEJcG5RMCIIgCGIbCgsLx40bx5Yihgclk/WgZEJcG5RMCIIgCGIDfv311+jo6C+++IKtQAwPSibrQcmEuDYomRAEQRDEBnz22WfDhg1jSxFnACWT9aBkQlwblEwIgiAIYgNGjx69Z88ethRxBlAyWQ9KJsS1QcmEIAiCINby5ZdfRkZG/vrrr2wF4gygZLIelEyIa4OSCWns/Pzzz++///4qBDEYEJ3z8/NZf0WMSlxcHN4v5wUlk/WgZEJcG5RMSKPm73//e3Jy8tWrV9lPBoIYgB07dhw7doz1WsR4lJWVhYSE/OMf/2ArECcBJZP1oGRCXBuUTEij5oMPPkC9hBiWurq6lStXsl6LGI9p06Zt2bKFLUWcB5RM1oOSCXFtUDIhjRr4ALCfCQQxEm+99RbrtYjBuHjxYr9+/f7+97+zFYjzgJLJelAyIa4NSiakUfP222+znwkEMRIomYzP7NmzN2zYwJYiTgVKJutByYS4NiiZkEaNYSVTXV3doUOHUpakRA+J9u/tD905/IfllCVLoBxq2Q0QFwUlk8EpLy/39/f/6aef2ArEqUDJZD0omRDXBiUT0qgxpmTav39/1KCo0PDQ2SmJa3Zkbfxic8G5YvgPy3NSEqE8clAktGE3Q1wRlEwG5+WXX87MzGRLEWcDJZP1GFkyLV++fNOmTWwpgtQHlExIo8ZokunevXvJycn9gvqlvpcGMkn0B7XQZnHyYmjPmkBcC5RMRub777/v1asX3Ca2AnE2UDJZj5ElU1RU1CuvvMKW2p9Zs2alpaWxpYhzgpIJadQYSjKB/nk64enh40ZsLd3OyyTmD9pAy8kJk1E1uTYomYxMSkoK3iDXACWT9aBk4hkxYsQLL7zAliLOCUompFFjKMmUnJwMKmjnmUJeIGn+Qcth40YsTl7MGkJcCByRG5bbt2/36NHj7t27bAXihKBksh4rJVNqaurGjRuzsrKCg4PDwsLWr1+vroXV8PBwPz+/hISEM2fOqDdZs2ZN//79BwwYsH379rq6OoiZgYGBgwYN2rNnD92cSKZVq1YFBQWFhISojYORjz76CIxA+fTp00nhjh07QO34+/vHxsYeO3aMFFZUVBw4cKC2tpZuq6a0tDQ+Pr53795wMNOmTbt69WpGRkanTp18fHwmmrhy5YrmvhBnASUT0qgxjmTav39/v6B+fy1hf1/KP1u09N03Yp+fOHzSyIR5U1fvyFTXQvu+Qf3kzzXdv3//qIBvvvlGMQ3Kc3Jy2M0s5sKFCydPnlSX3Lp1C4z/8MMP6kIeyeRyKw+JwbbWHAxKJsOSlpYGAyC2FHFOUDJZj0gynejZl/9jG5lUTefOnePi4rZt27Zs2TI3N7fi4mJSBUPVli1bQjAsKCgYPXq0l5fX9evXySZPPvnklClTPv3003nz5jVv3hx0yLPPPgurM2fO9PDwAJFDjXfs2HH8+PFgAT657u7uIF1oFRgZM2ZMbm7uzp07FZM8a9WqFTSDA1iyZAnsuqSkBMo3bNjQpEmT7777jmyo5s6dOx06dICdgk4DI8nJyadPn4Z+sG/fviC9PjFRXV3N7wtxIlAyIY0ag0imurq6QYMH8c8v5X659d/79Giiwr2FO9MGtooaHCV5h15NTY3HA1q0aAFG6CqZMABd1EsvvcRuZjHQXYWHh6tLDhw4AHv5+uuv1YU8kpkS6kOyfi64lSeoLyiZjMn9+/d79uwJHy62AnFOUDJZj0QymS1RTD0CCAzalw0ZMmT27NmwUFtb265duxUrVpByWO3SpQtoErJJYGAgKYcNQY2EhYWR1Xv37nl6en788cdkFVp6e3vDx5aszp8/v3v37rSqR48edL9gv3379uqxwdSpUydNmgQLIJxAQd2+fZtWUc6cOQO93uXLl5lyZmIesy/EuUDJhDRqDCKZDh06FBoeymgh+AsIDyRKqdu//2HoxOF/9O/OSyb4CwkPBQusUS3eeeedRx55hC21DntIJjWNfC44SiZjAqFj4cKFbCnitKBksh7rJZM61M+cOTMmJkZ5oEZKS0tp1fTp00eOHMlvEhwcrO5TfH19V65cSZah5bPPPkurCgsLmzZtSsQPVMG+aBXsCHY3Y8YMUEcpKSmgzaKjo8EUbaAJCK1evXp17doVxFhRUdHdu3dJOS+Z1PtCnAuUTEijxiCSKWVJypwliYwQentbBtFL4aMi888WkcKUtUt5yTR7SSJYYI1qoSmZ0tPTycRuMs1ac7a3IphKrpiTTLAMDQIDA8FgUlLS999/T5sRyaS5O3pI/FxwiUEgPz9/1KhR0L1FRkbCtow1RXwW8mn0OoKSyYD893//N/hYZWUlW4E4LSiZrMd6yaQWPLNnzx4zZgwsHD9+HDqUc+fO0ao5c+ZEREQo3CahoaGgc+gqxHn62xS0TExMpFUHDx4Em/ARJlVqI4cPH4YqUD7LVdDeRMKtW7cyMzPHjh376KOPent7kwPmJZMlXxQixgQlE9KoMYhkGjxk8JrtWYwQSnhxCpFM7+3dwMsk9R9sOyh6EGtUC03JBN0Smf8QJZ7tLZpKrpgkE2iMWhV79+6lkmnlypWgWAoLC/Py8qA/Gzhw4IPdynZHD4mfCy4xmJ2dDUYWLlxYVFQE+of2TNSa5CyixNPo9QUlkwF59913X3zxRbYUcWZQMlmPnSQThP2mTZtCwKdV0OOQn4zqJZkAWpWVldWmTRtapTYCnQLE/y1bttCS+gLaqXv37iC6FFPvM3fuXFqFksmpQcmENGoMIpn8/P02Hv6EEULhIyNAeLTzasdrJOYPtgULrFEtzEomzdnekqnkikkyEWnHwE/M++6779Tlot0pqkNSuG/p1KgN3r1719PTc+nSpWyjB9bkZxElmEavOyiZjMb//u//9unT5/Lly2wF4sygZLIeO0kmYNKkSaB/rl69CssffvghKKjDhw/zm8glU7NmzbZu3QrLly5d6tatG33AlZcxCQkJ0DeRVz4AZWVlRUVFsFBcXAyNq6qq1I0JFy9e3LVrF+nOQHSBffIIbmJiYkhISHl5Oego6F/4fUlsIkYDJRPSqDGIZIKx+45Tuxkh1C8sAPRAV5/f8xqJ+YNtwQJrVAuzkklztrdkKrlikkyBgYFnVGzatIkqmYqKigULFkRERPj6+vbs2RMM5ufnkw1Fu1OkkklkELo32Cnt5NQQa/KziBJMo9cdlExG4+OPP37uuefYUsTJQclkPRLJxP+xjTjpopZM165dCw8Pd3Nza9u2LZkpoLmJXDI988wzffr08fLyAjvQg1CVwsuYmpqaadOmNW/e3NPT08PDA/5nZmYq0jfmQdfz+OOPt2jRonPnztDJjh07lvRl586dg6OCYyZ9Ir+vrKwsqNV8pQRiNFAyIY0ag0gmzV+ZgiL7Q5B90rszr5GYPxv+yqQ521sylVwx9yxTQEDA8OHDd+/eDT1KWVmZu7s7+Z5PEe9OkUomkcEjR47A5urHkyjEmvwsJL21vqBkMhQ///xzUFAQuBlbgTg5KJmsRySZbMXly5ch7FupLk6fPq3uBSRUV1fD7i5evGh5vnhyhHS+tyUkJCTgVD1nASUT0qgxiGQapPUs09CJw2GI/0jL35lNbmvDZ5mitGZ7S6aSK1LJdPXqVVg4deoUKYcFWFVLJs3dKQ9LJvVccInBGzduuLm55ebmkio1xJr8LFAyIZbw6aefPv3002wp4vygZLIee0sml2TBggWaP1shBgQlE9KoMYhk0nxj3tzUF5uYeCPnz7xMUv/NXpKYnNLwN+apJZNotrdoKrkilUy3b992d3dfu3YtFFZVVUVHR8OGaskk2p1aMqnngtfU1EgMxsfHg5ETJ04opkeV4DAYa5KzQMmEmOWXX34BmX38+HG2AnF+UDJZD0omxLVByYQ0agwimTTzMm06usX9kX9mnn2ia6c1O/75G9S7f8sZMCyMl0xW5mVSSybRbG/RVHJFKpkU0x5btGjRsWPHVq1aQYfq4eGhlkyi3aklEzMXXGKwurp6woQJIITAILShzylRa5KzQMmEmKW4uDgmJoYtRVwClEzWg5IJcW1QMiGNGoNIpn++SGdwVOp7aYwWem7RDPJDE9CseTP4z6eyha0iB0XZJJs4lQ2i2d4Nm0p+8+bN0tJSyRuBRLsTITdYWVkJB0l+StKkYWehFyiZjMPQoUMPHjzIliIuAUom60HJhLg2KJmQRo1BJBOwf//+fkH9/lqynVFEianz2rX3pMLp33x91LXQvm9QP9iWNdcgmF9aECOAkskgfPHFF0OGDPn111/ZCsQlQMlkPfpKpoyMjHXr1rGlHBBRc3Jy2NL6YL0FxElByYQ0aowjmYDFyYuHjRvBv+wh/2zRuqL3/5K35oPPPlaXQ8th44YvSl7EGmoosbGxqampbCmiKyiZDMK4ceMKCwvZUsRVQMlkPfpKpsmTJz/zzDNsKYd61nfDiIuLo4/dSpg1axZJzYS4DCiZkEaNoSTTvXv3JidMBtW0tZT9rYn/gzagl+Kfnmz5+08RZwQlkxEoLS0dOHDgL7/8wlYgrgJKJutpJJLJQiRJ2BEnBSUT0qgxlGRSTKppcfLivkH9+Oea1H9QC20WJS9CveTyoGQyAgkJCXl5eWwp4kKgZLIe6yVTfn7+qFGjfH19IyMjMzIyaPmOHTtAgfj7+8fGxh47dowU1tXVpaenBwQEDBgwICcnRy2ZXnnlle3bt9PNYaSblZVFltWS6cCBAyQVe0hISFJS0vfff083qaiogNra2lpaQoGdrl+/niynpqZu3LgRjAcHB4eFhdFyOPhOnTr5+PhMNHHlypXftkecFpRMSKPGaJKJsH///shBkSHhobNT5q7ZkbXxi80gk+A/LEMJlEOtrZ5fQgwOSibdOX/+PAzLfv75Z7YCcSFQMlmPSDKd6NmX/2MbKUp2dra7u/vChQuLiopAh9AHa0GHtGrVKi0trbi4eMmSJS1btiwpKYFyKGndujWIExBU4eHhHTt2pJLJz89vxYoV1DKIFlqllkwrV64E/VNYWJiXlxcaGjpw4EC6yYYNG5o0aaKZMUltISoqqnPnznFxcdu2bVu2bJmbmxscJJQfPXq0b9++IPM+MVFdXf2QCcQ5QcmENGqMKZkU0/dnhw4dSlmSMnjIYL/eftCdw39YTk5JgXKbvB8PcQpQMunOrFmzYPzEliKuBUom65FIJrMld+/e9fT0XLp0KVNeW1vbvn17dU89derUSZMmQft27dqtXr2aFFZVVbVp06a+kkkNqKMmD3JjAKDKQJ5pvliVkUwgjWiPPGTIEFqFE/NcD5RMSKPGsJIJQQgomfSlvLzc39//p59+YisQ1wIlk/VYI5lAooBiIT8fqSktLYXyGTNmgIBJSUlJTk6Ojo729fU9ffo0lJ88eZK2hPL6SqaKiooFCxZERESAwZ49ezZt2jQ/P59uJYKRTGpdNHPmzJiYGLKMksn1QMmENGpQMiEGByWTvsyfPz8zM5MtRVwOlEzWY41kOnLkCEigM2fOMOWHDx+GcvgYLleRkZFx/PhxKL906RJtCVpFJJkmTJigKZkCAgKGDx++e/dukGplZWXu7u40MboERjKJcqCjZHI9UDIhjRqUTIjBQcmkIzdv3uzVqxfcBbYCcTlQMlmPNZLpxo0bbm5uubm5TPn169ehfMuWLUx5VVVV06ZNCwoKaImPjw/VReHh4YsW/ZZ+o1+/frxkunr1KoiuU6dOkXJYgFUbSiZYmDt3Lq1CXACUTEijBiUTYnBQMunI0qVLYRTIliKuCEom67FGMgHx8fHdunU7ceKEYnqE6cCBA6Q8ISHB29ubztkrKysrKipSTIkEAwMDQWspprEsKCuqi5KSkkBBVVZW1tXVZWdnN2vWjJdMt2/fdnd3X7t2rWISYNHR0aDBqGQqLi4GOQTlZFWNhZIpMTExJCSkvLz81q1bcBgSg4izgJIJadSAZNq0adObCGJIcnNzUTLpxf/93//17dv3zp07bAXiiqBksp43xZKJ/2MbKUp1dfWECRNAt3h5ebVo0WLkyJGkvKamZtq0ac2bN/f09PTw8ID/mZmZUH7lyhV/f3+QPe3atQM1op6YB0LFz88PNmnVqtW4cePUVWrB884778COOnbsCM3g4ME4lUyWvzFPJJnOnTsXGhrasmVL8laJrKwsWNZ8nwTiLFgqmUAiw+ASOu+VCGJPIGwdPXqU9T+7gb8yIQbHYZIJ9rV69WoM8mpWrFjBFhmPY8eOsffSbsC+2N0jBsbB/alIMtWLysrKkpKSq1evMuUgqKD84sWL6myEMDQ9efLk+fPnVQ1/qwLRon7YSZObN2+WlpY64MefhIQEtbhCnBFLJRNocXAsdmsEsQM7duz49NNPWRe0DyiZEIPjMMmUkZGBQd4Zyc/P3759O3s77cDu3bsteZ8YYiigP922bRt7L+2DTSSTq7JgwQLN36wQJ8JSyYSfBMSRvOmo5wdQMiEGx2GSadWqVey+ESfBMU7yzjvvsDtGnIH09HT2XtoHHCgirg1KJsSI8H5pJ1AyIQbHMaNhAHbE7htxEkDMsLfTDqBkclJWrVrF3kv7gANFxLXhh6YomRD94f3STqBkQgwOSibELCiZEAkomRDEJvBDUwNJpvv37xfuK0x89YWwQWE9/Xs98cQTvfx7RQyOfHXxgkOHDtXV1bEbIK4C75d2AiUTYnAMIpkg3u79bN+LC14KGxze60E0Dh8c8fLClz/7/DOMxvpiBMkEPvD5oc9fWfwq9NHEQ6DXDhsU/sKrLxbuK7pfd5/dAHEUKJkQxCbwQ1OjSKatu7cFh4cEDew/K2Xumh1ZG7/YXHCuGP7DMpT0DwuOiIrYv38/uxniEvB+aSd0l0wZGRnr1q1jS03AEDYnJ4ctRRoZRpBMu4p3h0YMEEXjoLD+AyPD/rZ3D7sZ4ih0l0z79u0Lj4qAflnbQwb2h9582+5P2c0Qh+CqksnCLtLCZghiFn5oqr9k+rH2xxlJs/wDe6e+lwZhV/QHtX2D+i1OTla/cRJxDXi/tBO6S6bJkyfTfBGzZs1KS0ujVXFxcS+99BJddQDMASBGQF/JBNF13qsv9bYgGvcO7PPKolcxGuuCjpIJ7vji5MV9g/qa9RDo02e9PPvHuz+yJhA746qSSZ0fSYKFzawHO1CXhx+a6iyZ7ty9M3LCqCExQ7eWbufDLvMHbYaPH5GQkID9tIvB+6WdMJRkGjFixAsvvPBwvUPR/QAQHh0lE8TVcZPGWx6Nh8QMi5s8CaOx49FLMsG9fjrh6WHjRljsIUNHTRiNqsnBoGSypJn1YAfq8vBDUz0lU51SNyNpJkTVnWcK1aE2/2zR0nffiH1+4vBJIxPmTV29I5NWQcuR40clJyezthBnhvdLO2ETyZSfnz9q1ChfX9/IyMiMjAxSuH79+vDwcD8/P5D0Z86coY3r6urS09MDAgIGDBiQk5NDJRNs2KlTJx8fn4kmrly5As3ACNkqNTX1o48+gp4vKCgoJCSElhNE+6qoqDhw4EBtba2q7b8oLS2Nj4/v3bt3//79p02bdvXqVf4AlAf7XbNmDex0+vTprBXE/ugomV5a8FJ9o/HQmGELFi9k7CD2Ri/JBD3viPEj6+Uh4FEzX3bE+BWhOJFk0uxMFVN2KRAk/v7+sbGxx44dI4VqLfTKK69s376dtochRFZWFt8MOsQpU6YEBgZCj5aUlPT999/TTZjOTtJ7KpZ1oNh7uh780FRPybRl11/9A3v/teSh76tyv9z67316NFHh3sJd3QDaB/YPNPtc04ULF46aOH78uFMkFPvxxx/37du3YcOGgoKCy5cvs9UuDe+XdkIimXaePRL0/rw2b8bCf1hmqx+QnZ3t7u6+cOHCoqKijRs3kvTecPwtW7aEMSjcu9GjR3t5eV2/fp20T0tLa926NYRX6ANA53Ts2JFIJvDMvn37Qq/wiYnq6mp1oI+KioKW48ePB4NgAfYIsZhUSfYFzgOfF97b79y506FDh5kzZ+7Zs2fnzp0w7jl9+jR/AIppv08++SQcSW5uLrRk7CAOQC/JVLy3uHdgnwZE475BfZloDLH35MmT6pJbt26Bv/3www/qQp7ly5dv2rSJLTVh2+cTrLSm7ly++eaber0MwybnqItkgrsMPW8DPAR6+bzd29SmFJd2kvv37xP34AFvYVtbvCMLmykGkEwnevbl/9hGgs5UMX0n2KpVK+j4iouLlyxZAv1dSUmJ8rAW8vPzW7FiBTUFooVO31A3W7lyZXp6emFhYV5eXmho6MCBA+kmTGcn6j0ViztQ7D1dD35oqptkunf/XnBECD8fOiA8kETebv/+h6ETh//RvzsTguEvLefN6OhoeUc1ZcqU5s2bP/bYY23atAFr8Gm5ePEi28gwbNu2rVOnTjC2DgoK8vX1hTgSGxsrP0E51s+ytd6C5fB+aSdEkgk00u/XTNtzseTW3R/gPyxrqqa7d+96enouXbpUXVhbW9uuXTsavmG1S5cu5IdQaA9Vq1evJlVVVVXgjaKJeYxk8vb2hq6XrM6fP7979+6KdF8A9CvQwdy+fZusUs6cOQMfAV6H8/MKYL89evSwxvEQK9FFMsEdHxgV1rBoDFtFDopU+wzE3vDwcLqqmL7rBSNff/21upAH3I8OmxjUT/pZH5qsfG6Qdi7wYXRzc4MP9bPPPnvt2jW2nRaSc7R8QpHjJRPc38HRg5e/v6JhHhISEUqjGcGFnaSmpsbjAS1atICToqua87gs3JHl7mEEyWS2RLMzVUydWvv27dU99dSpUydNmqQ0SDKpATmkdjCmsxP1norFHSj2nq4HPzTVTTLl7y0ICuvPxNa3t2WQ+Bs+KjL/bBEpTFm7lGkGf+GR4YcOHWKNqlBHZPD4rl27gn8/3MQo7N27t1mzZvPmzaNfsMGHMz4+XvQbsSXwo+H6Yr0Fy+H90k6IJFPQ+/OKL3xFV2EZSlT1/wKiKjgn+caLQuJpaWkpLZk+ffrIkSNh4fTp01Cl/jIVpL6FkgkGYbSqsLCwadOmEM0l+5IAjtSrVy/4CID0Kioqgr6KlPO3GPY7c+ZMdQniYHSRTJ8f+tyaaBwaHqqOxvYYDavh/dbBqE/wzp07u3fv7tmzJ3y+KisrH26ogeQcRUM9HsdLJri/YZHhDfYQ8K7d+wpVZ+D6TkKAa/jII4+wpQ3CcvdwCsmk2ZkqpilwUD5jxgwQMCkpKcnJydBp+vr6Kg2STBUVFQsWLIiIiAAL8CGFbjQ/P59UWd7ZWdiBWm4QcRb4oalukmnOK3Nnp8xlAmvCi1NICH5v7wY+7Kr/Xk1d8Nprr7FGVTARGYKsl5eXql57sqyiNWlV3l49gXXw4MFz586lVcC6devo9yiiabVBQUGwO8mXE6JnV2DXGzduzMrKCg4ODgsLo0+88LNsFcHxf/fdd5MnTwbNRlarq6vhCHfu3KlpwX7wfmknRJKp7Zux1Xd/mxACy1Ciqv8XR44cAedU3wLg+PHjUHju3DlaMmfOHIjRtOrSpUu0KiYmxkLJlJiYSKsOHjwIdmBAJtmXnFu3bmVmZo4dO/bRRx/19vYmFvhRhYXDEcR+6CKZXln8qjXReM6SF1KWLKHWzI6GRZGQuJ/mI3z0ST/N0CQyqAgellA/N6gIAqwouipaJwjdhIeHx6uvvkpLNG0q0nNURwDNcE1xvGSC3nb+66802EPAu+a+8ltAU7SuodpJJDdUcgElTiIxqFjgJKK7KXESAi+Z+CdeLHyKlZFMEg9xCsmk2ZkChw8fhnIQJ8tVkJsikUwTJkzQlEwBAQHDhw/fvXs3aLOysjJ3d/etW7eSqnp1dpZ0oPUyiDgF/NBUN8k0IGrgmu1ZTGANHxkBn5Z2Xu34mMv8rS/IGTp0KGtUBRORx48f/8c//pGurhdMltWctCppr5g+J3QCa3Z2dhPVFyf379+HKjo00ZxWC+Pgpk2bQowjbXgkz67Arjt37hwXF7dt27Zly5a5ubnB4Slaz8lIjv/111/v2LFjeXm5YpohABv++OOPvIUHh2MXeL+0EyLJZOGvTDdu3ICLDDdaXQgXB+4g3FNaAn0n+Y2oqqoKquDG0SroxdWRXS2wGckE0Croktu0aaNI92UhEPq7d+8OHZLCHYCCQd8A6CKZIgdHWhONYdvBQ6KpNYi94Ja1Kvbu3auWTJqRUDG5n+gRPvrp0AxNIoOihyXUnzVRgBVFV4XrXAgwNIfxK1kW2VQsO0dJuCY4XjJBb5u9c701HjIw6rfHSBRzTiK6oYplF5B3EolBs04iv5siJyHwkkk9YCBPvDCR3+zZKeY8xCkkk2ZnCsC1hfItW7Yw5crDVwA+gIsWLaJV/fr14yXT1atXwaNOnTpFymEBVhsmmSiSDrRhBhEjww9NdZNMPfx6bjz8CRNY+4UFgE939fk9H3OZv81Htvbp04c1qgIisre394oVK5YvXx4bG9uiRYvNmzeTqlrxZFnNSauS9orpc6KewBocHEznJe/evRtCXkVFBVlVQ6fVfvXVV7Dw6afaWf9qpc+uwK6hY6C7HjJkCA0o6u8/5McPum6QibVr1z766KNnz54l5fxPEPaD90s7IZJMFj7LBMTHx3fr1u3EiROK6cIeOHAAFuBi+vn5kR8kP/zwQ1A1hw8fJu3B9wIDA6F7UEynCZ0BjeyJiYkhISEgViEKw01kOs5mzZqR4H7p0iXYI3Uqyb6g+4QNQaeRVcrFixd37dpFniWADgmskVn+zAEoGPQNgC6Sydff15poDNv69/6XWlBMsbeJFppzrtQPGEQJHuFTHh4tyUMTNSh6WEJRWZMEWEl01ZRMCxYseOyxxxSpTcWCc5SHa4LjJVPv3r0/PrzFGg/p6ddTdQb1cBL+ERT5BSTLEidRGzTrJGbvpshJCJqSiXnihYn8Zs/OrIc4hWRSBJ0pkJCQABeBisCysjJQs8rDFyopKcnHx6eyshKuJIhe6C55yXT79m0YgMHARjF9fRkdHQ3dpUgyiXpPxeIOlO89JTYRp4AfmuommZ7q8tSOU7uZwBoU2R9i2ZPenfmYy/6dLuratStrVAVEZOjA4MMDUax169ajR4+mM1Alk2VrtSatStorpg+eegJrZmbm448/Xmt6DAkiAhwArdKcVktm9Gp+p6JIn5NRTLtW9wpwGDExMWRZ3WHIjx+Az3zHjh3heNRvIpJ0OTaH90s7IZJMisVvzKuurp4wYQJcKy8vL9Dh5F5cu3YNhlAgh9q2bUu+j6Ttr1y54u/vD4Eb+l24X+qJeefOnQsNDYX2pP9mOk5o1qdPH9gLmAWfoWFXsi/RO3/Ax8An4Wg7d+4M/ffYsWPJQ67MAShcL4I4Hl0k01NdulgTjWFbGEdSa2QG1BkVEFjUo17NSKiY3E/zET7F3GhY06DoYQlFZU0SYCXRVVMyQZcBnzJFalOx4BzNhmtFD8kEfaKVHgI9vuoMzDiJ5g0lG5q9gKSccRKRQbNOYvZuipyEoCmZmCdemMhv9uzMeogRJBP/xzYSdKaK6f0Z06ZNa968OahZDw8P+A/DKuXhCwWDFj8/P2jTqlWrcePGqTtWdTO4/mAZhjfQDI4WrIkkk6j3VCzuQPneMysrC2o1XymBOAX80FQ3ydRT61emoROHg/M90vJ3TOYH/m/rl9vN/spEe7VvvvkGPpP0Z1zJZFlFa9KqvD3zObl58+bvfve7HTt2wBgXPi3086kIptXC7po1a7Zs2TLaTI382RVm1xAmqEJTdxjy41ceSCYYhe/Zs4cW8uMS+8H7pZ2QSKZ6UVlZCTeRPudGuHz5MhTy8bGuru7kyZPnz59nyiXQO3v69Gn13aeI9iWBbEKnlCDGRBfJpPkrk+XRmP+VSfKYiiKIhIrJ7TUf4VOko2FFYFD0sISisiYJsJLoyp+gYvqFISQkRJHaVCw4R7PhWtFDMkFv+8mRrdZ4CP8rk8RJNG8oaWb2ApJyxklEBs06idm7KXISgqZkYgbWjGQye3ZmPUR3yVQvNDtTxSSooPzixYuiZNnQscJ9UT8qrAkMyUBkWv9TTwM60ISEBPwK0qnhh6a6SaaBg8L42fNzU19sYuKNnD/zYVf991Hhx/V6lmnNmjWgZMizwpLJsmropFV5ez4CxsXFjR8/Pjs7u3379vSnLcm0WgjuTz311J07d6gFxfRUlWLu2RVJvB6jmmUrP34yMS86Ohok5RNPPEGnEaot2BveL+2ErSSTveGdCmkk6CKZoqIHWRONYdshQ4dQa/LRsCQSRpmgW9FH+JSHh5VMaBIZFD0soaisSQKsJLryJ/jll182a9aMXFKJTcWCc5SHa4LjJRP0tjm7PrLGQ8IGPXTF+GtInUR0Q8mq2QtIl6mTSAyadRKzd1PkJIQGSCazZ2fWQ5xLMrkwCxYs0PzZCnEW+KGpbpIpaeHL/DuaNh3d4v7IP/MYPNG105od/+zC3/1bzoBhYXwIfi1tab3emPfjjz927tyZxlDRZFnRpFVRe0UrAhYUFECU9Pf3V3/LJZlWCxEcwuLw4cPBrGKaHFhYWNi7d28yu0/y7IokXjOzbCXHT17/cO3atXv37kFnAF0jmWbNP+hiP3i/tBPOIpliY2NTU1PZUqQRoItkSlmSMntJYoOjcdJ/zFdHY8loWJFGwijxI3zqYSUTmiQGRQ9LqK2JAqwkutJJZRC6P/vss//4j/949NFH4ZTp114im4pl5ygJ1wTHSya4vynLlzTYQ6Cvf3nRP5+Yp0icRHJDFcsuoPKwk9TU1EgMmnUS+d0UOQmhAZLJkrOTewhKJgSxCfzQVDfJdODgAT4TCPw9t2gG+eIKaNa8GfznU+MVnt8TNSjK8rxMBIiYELzIqx1Ek2VLBJNWRe0VrQgI2qNTp05w5F999dtL2BTptFqI12DHzc3td7/7HURMaEPT8EmeXZHEa2aWrej4oXuAvoRGW7g4Xl5ef/7zn3kL/9qHfeD90k44i2RCGi26SCaIpaHhoQ2LxvAXFhlWr7xMokgYJX6ETz1e5EOTyKDoYQm1NVGAlUTXKQ9eXQCxGizDcULnQr7hIohsKpadoyhcUxwvmeD+wpHvOv+3hnlI/7Dgzz4/qDoDM04iuqGKZRdQ4ZxEYtCsk8jvpshJCA2QTJacndxDUDIhiE3gh6a6Saa6urqwqHA+3zz8JabOa9fekwbif/P1YRpk574bHR1t/U8fosmyokmrovaWI59We+PGDbD/7bffshUNenaFx/rjtxO8X9oJlEyIwdFFMkEsHTR40BsNisYrPljZgGgsj4SiR/gkSAyKHpZQY5MAyyC3afYcJeHa8ZIJ7i/c5cxN2Q3wEOjlwwdF2NZDFAsuIIPcoFknkd9NW0EFlSVnJ/IQlEwIYhP4oalukgnYs3dvn8A+fy3Zzkfh/LNF64re/0vemg8++5it+n+FwSHB+/fvZ80hTgvvl3bC5pIpIyNj3bp1bKlNgaFtTk4OW2oZ1myL6IIukgmAiBoQFFDfaLy1ZHtQcBBGYwfjeMmkmDwEet4d/499b57cQ8Cj+gT2pdnSETn8b1ANACUTgtgEfmiqp2QCFixeODRmmNn37dC/3ef+FjcpLiUlhTWEODO8X9oJm0umyZMn03eb2om4uDg6nb2+WLNtw5g1axadU4o0AL0kE5CcnDxy/CjLozG0jJkYg9HY8egimQC41xMnTdx1jp2eJ/oDDxk6bvjCxb+lHEXk2OQpVkdKpk2bNr2JIK5Ibm4uPzTVWTLdu3cv/unJw8YN31qq8e0m85dfVhQXH/enP/2Jn6iAODW8X9oJZ5RMzgX/AmikXugomSCuJiQkjIodbUk03lq6Y9zEcRiNdUEvyQT3Gu44qKadZeZ1NXjR8PEjJidMRg9xMI6UTOy+EcSF4IemOksmxRSFFycv7hcUsOw94YtKd53/W+bH2cEhwSkpKRh/XQ/eL+2E9ZKprq4uPT09ICBgwIABOTk5jGTasWMHaAZ/f//Y2Nhjx46RwtLS0vj4+N69e/fv33/atGnq6fL5+fmjRo3y9fWNjIwkiTVSU1M/+uijNWvWhISETJ8+HUpgd+vXryftSS30iEFBQdCAlousqbcFYDk8PNzPzw9GxupUJGB248aNWVlZwcHBYWFh6k0qKioOHDigfrSdwp8X7LRTp04+Pj4TTZB3+vNnhEjQUTIppmgMMTawf+CfP1jJx2H6t+rDt/sH98dorBd6SSblgYdAoMj4OFPycxP05gH9AxYnJ6OHOB6UTAhiE/ihqf6SibB///5BgwcNjAibtzRp7c51G7/YDGF30+EtObs+TF6WEhkVNXjwYJwx76rwfmknJJJp59kjQe/Pa/NmLPyHZbb6AWlpaa1btwZtAOoI5EfHjh2pZAKl0apVK2hQXFy8ZMmSli1blpSU3Llzp0OHDjNnztyzZ8/OnTuTk5NPnz5N2mdnZ7u7uy9cuLCoqAgUC5nCHhUV9eSTT44ZMyY3NxfaK9z7lGCP48ePLygogB3B5qBGJNbU28JFJq97gm1Hjx7t5eVFX3ACZjt37hwXF7dt27Zly5a5ubnBKZAqUU50zfM6evRo3759QTR+YqK6ulrROiNEgr6SiQCRFuJtWGT4/Ndfydr5LonG8P/dgpwFqQsjoiIwGuuLjpKJQDwkMipy8RvJ7+/a8LEpDzJ4SObOdS8tfXlgZBj05ugheoGSCUFsAj80NYpkUkzf3x86dOi1114bNmxYnz59nnjiCfgPy1AC5fV93w7iRPB+aSdEkgk00u/XTNtzseTW3R/gPyxrqqa7d++2a9du9erVZLWqqqpNmzZEMtXW1rZv315tf+rUqZMmTTpz5gxIDvJqezVgytPTc+nSpUw5CIwePXqovZ2RTN7e3iRvGDB//vzu3bsrYmt0Wzg8OPIVK1aQcljt0qUL6ByyCmZB6tCdDhkyhO4RVB/IP/49UaLz4ifm8WeESDCCZFIwGhsb3SWTgh5iYFAyIYhN4IemBpJMSKOF90s7IZJMQe/PK77wWxItWIYSVf2/OH36NOiEkydP0pLo6GgimUpLS6FqxowZIDBSUlJAjUCVr68viJNevXp17doV5E1RURFoG7IhSBFoX/IgFyEFBMbMmTPVJYxkoonngcLCwqZNm4KeEVmj2xKFAwdJq6ZPn04zkIBZtc6BA4iJiaGrmojOS1MyMWeESDCIZEKMjBEkE2JYUDIhiE3gh6YomRD94f3STogkU9s3Y6vv/kBXYRlKVPX/4vjx4yA8Ll26REtAWhDJdPjwYagC/bBcBXmg6NatW5mZmWPHjn300Ue9vb1Jto0jR45Ae/UDRQT+JbOMZEpMTKRVBw8eBCOVlZUia3RbcuTqRB9z5syJiIggy8xO+YSMmmiel6Zksv61uY0HlEyIWVAyIRJQMiGITeCHpiiZEP3h/dJOiCSThb8yVVVVNW3atKCggJb4+PgQyXT9+nU3N7ctW7b81poDNEb37t1BVimmtMXQPjc3l2nDCwxGMgG0Kisrq02bNorYGt22uroajjwvL49WhYWF0R+sGiaZKOrzgg3nzp2rruXPCJGAkgkxC0omRAJKJuu5f/9+YmIi+Xo0PT193759bAukEcAPTVEyIfrD+6WdEEkmC59lUkx5MwIDA0GiKKbDBqFCX/+QkJDg7e1NZ8eVlZUVFRVdvHhx165d5OkjkFXdunWjaYvi4+Nh9cSJE4ppntuBAwcULYHBSKZmzZpt3boVliGaw+Y07ZKmNfW2kyZN8vPzI+/r+/DDD0FBHT58mJoVSabi4mKoBa1Iawmi84JuJiQkpLy8HHQUeZ6BPyNEAkomxCwomRAJKJmsZ926daGhoWQ5Ly+vR48e+O7HRgg/NBVKJsxQhjgGzXxhdkIkmRSL35h35coVf39/d3f3du3agRigE/OAmpqaadOmNW/e3NPT08PDA/5nZmaCgnr88cdbtGjRuXPnRx55ZOzYsfRVCtXV1RMmTADp4uXlBQ3Ik0W8wGAkE+yuT58+sAmotYiICCpmNK2pt7127Vp4eDhs1bZtW/LqPFJOzIokk+iNeaLzOnfuHPQ0YB+2+vrrrxXOOCLHkZIJg7wzAgHTYZIJPcTpAPdAyWQldXV13t7emzdvpqtPPfWUfAoJ4pLwQ1OhZGI3RRC7wfulnZBIJsuBAHry5Mnz58+zFSZAuoCcuHjxovpLqcuXL0Mhfam3msrKSqhSJ2uSQOXH6dOn1Q8mUcxaI0fCvwGvYUjOC2kYjpRM7L4RJ8FhkondMeIMOItk4jP7QSF0cNu3b6dtYGyQlZVFluVpCTWTIioNSgxYVFTk4eFx584dWpKUlDRkyBBVE6RRwA9NUTIh+sP7pZ2wiWTSEfzFxuVByYSYBSUTIsEIkumvpw74rpvROn1cv/cSNWdtaGb2g3I/Pz+aDAOYOHEinccRJU5LqJkUkW5V38SA0MmGhYWpS7Zu3Qo21SIKaQzwQ1OUTIj+8H5pJ5xdMsXGxqamprKliAuBkgkxC0omRILukumjskKvVbEzdy1+4/O0ubtfe2r1n3jVJMrsJ5dMmmkJRUkR6Vb1TQw4fPhwdTIP4Ouvv4ajJY8KI40HfmiKkgnRH94v7YSzSybE5UHJhJgFJRMiQXfJ9G9rp8woWJR+OJ38vbLnz/wbaEWZ/eSSSTMtoSgpIt2qvokBg4ODk5KS1CXffvst7GL//v3qQsTl4YemKJkQ/eH90k6gZEIMDkomxCwomRAJuksmjxVjUj9Po5Jp2aEVmnkONTP7MZJpwoQJasmkmZZQkhSRbFXf2eyDBw9+/vnn1SUki/1XX/2WiQRpDPBDU7tIJvDXTZs2saVSJJtA156Tk8OWOgR77NoeNjWBkLFu3Tq21JDwfmknXEwyOcyXEIfhvJIJvdFhOKlkQg9xDLpLJp+1U9W/Mr26dwX/K5MadWa/8PDwRYsW0ap+/fqpJVOUVlpCeVLEBkimWbNmDR06VF1SXFzcrFkzPtkG4trwQ1O7SKYG+Khkk7i4OJp8BlyZprVxAOp3NNsK9enYlcmTJ9NYY0PscQt4v7QTBpFMtrqGlviSrfaFOAZnkUy8X1nijYhNcBbJxDgJeohj0F0yfVxW3H7VBPIsU2Lh0i6rp/DPMoky+yUlJfn4+FRWVtbV1WVnZ4NQUUsmUVpCzaSIdCvR2FLE5s2bPT096UNTwOuvvx4YGKhqgjQK+KGpE0gmNSNGjHjhhRfYUrthD8nkMOwkmexxC3i/tBMGkUz2uIYiHLkvxHqcRTKhX+mIs0gmdBJd0F0yAVtPfea3bmbr9HEB773A6yVFnNmvvLzcz8+vefPmrVq1GjdunDrzYZQ4LaFmUkS6lSVjSzVwJGChuLiYlvTu3XvNmjWqJkijgB+a2lEyZWVlBQcHh4WFqV+ff+DAgSlTpoBeDwkJSUpK+v7779WbaL5xPz09naxmZGR06tTJx8dnookrV65IDGqimQeAoPlSf0YyabYh5Ofnjxo1ytfXNzIykk6i1Sykp0OA5fDwcIgRCQkJZ86coeWpqakbN27kr6HkfOvq6sB4QEDAgAEDcnJyGMmkuaOKigowWFtbS5up4S8XfwsakPSAh/dLO2ETyaR5WzUvr2LZNZRYkN8g6ksibxHtCzEsTiGZNP1KHdnkGVQ0XR2xHKeQTLyToIc4BiNIJgvRzOwHI5lz585dunRJXaioxI8oLaFmUsSGkZKSAsM8svzll1926NABjD/cBHF9+KFpvSXTzrNHgt6f1+bNWPiv+eWBYvLszp07x8XFbdu2bdmyZW5ublSvr1y5EuJmYWFhXl5eaGjowIED6SaiN+5T3XL06NG+ffuCaPnEBPFgkUEeUR4ARfxSf7VkErUBsrOz4YAXLlxYVFQEI1fyqdYsZGzC/QA7MHaBsx49erSXlxeNHaJrKDlfOLbWrVtDRwXSDvobuJ5UMol2tGHDhiZNmnz33XfUCEXzcvG3IKr+SQ94eL+0ExLJZIljK4LbKrq8Fl5DiQXJDVJUviTyFs19IUZGd8l0omdf/o9po+lX6sgmieciV0csR1/JxLsH7yGKlpOghzgGJ5JM9aIBvxc1mJqamv79+xPZ9uKLLzKSHmkk8EPT+kkmGEr+fs20PRdLbt39Af7DsubgEjwbYiV9Ef6QIUM0p7fBQBCGg19//bVi2kTzjfvKwz2x/Id+tUEeUR4AyUv96a4lbe7evevp6bl06VJaJSokqG22a9eOvhwGVrt06QKjarJqyTVUny/sEaytXr2aVFVVVbVp04ZIJsmOQPWB/CM/iDOILhdzC6Lqn/SAh/dLOyGSTBY6tuZtlVxeC6+hxILkBikPSyaRt8g/MojRMIJkMluiaPkVMyDWjOcSV0csR3fJZLaEwDgJeohjcFXJZGVawqtXr47TQj3bCEHU8EPT+kmmoPfnFV/47TWLsKz5IhSIhupAOXPmzJiYGLJcUVGxYMGCiIgIX1/fnj17Nm3aND8/n2yi+cZ9xZxkEhnkqRXkAZC81J/uWtIGBrVQRX9xImgWEqhNMp4Gy7Rq+vTpI0eOJMuiayg6X/ISzJMnT9JN4AiJZJLvSITocvGSqb5JD3h4v7QTIslkoWNr3lbJ5bXwGkosyFFLJk1vUbh9IQbHZSSTZjxvsKsjalxDMqGH2AlXlUxWAt61XQvRN5IIwg9N6yeZ2r4ZW333B7oKy5qv22d+P4UoCbGSLAcEBAwfPnz37t0w7iwrK3N3dyfvP4kSvHFfMSeZRAY10cwDIHmpP921pM2RI0egiplvrVlIoDaPHz8ObdRTcufMmQNaiCyLrqHofIk19fRf+tykfEcSNC8XL5ms/62c90s7IZJMFjq25m2VX15LrqHcggS1ZNL0FoXbF2JwXEYyacbzBrs6osY1JBN6iJ1AyYQgNoEfmtZPMln4ZbxoAHf16lWIhqdOnSLlsACrVDJFab1xX3k4zsLy3LlzaTOJQTnqPACSl/rTXUva3LhxA6pyc3PNFhKozerq6qZNm+bl5dGqsLAw+sWb5jWUnG9VVRVYKygooJv4+PgQySTfkSWoLxdzC1xDMlno2Jq31cLLK7mGFlrgsUQyMftCDI6zSCber5gBsWY8b7CrI2qcRTIxToIe4hhQMlnIcnE6UKOhTrN5//79xMRE+v14enr6vn37fmuK2A5+aFo/yWThIx+iAdzt27fd3d3Xrl2rmIb40dHREBypZBK9cV8dZ8FRQkJCysvLYQBaV1cnMcgjygOgiF/qr961qA0QHx8P1k6cOKGY5mIdOHBAVKg8bHPSpEl+fn5kKu2HH34IB3/48GFSpXkN5ecbGxsbGBgIw3rFdKdhcE9f/yDaUXFxMexIM0Gb6HIxt8A1JJOFjq0Ibqvo8lp4DSUWJDdIsUwy8ftCjIyzSCber5gBsSiei1wdsRxnkUyMk6CHOAaUTBZik9GLY1C/ABm0U2hoKK3Ky8vr0aOH9S8JRHj4oWn9JJNi2YvFJAM4iMItWrTo2LFjq1atYC8eHh5UMoneuK+Os+fOnQNfadmyZZMHrz0QGeQpEeQBUMQv9VfvWtRGMX0xNmHCBIjscPBgn0y81ixkbF67di08PBzOt23btuQdQaRcEV9DyfleuXLF398fNFW7du1gc3VCA9GOJC9kE10u5hbYJOjwfmknRJJJscyxFcFtFV1eC6+hxILkBimWSSZ+X4iRMYJk4v/YRlp+xQyIRfFc5OqI5egumfg/tpEJxknQQxwDSiYLscnoxTFQyVRXV+ft7b1582ZaBSVPPfWU5hwoxEr4oWm9JZP13Lx5s7S0VPTFueiN+xLkBhk08wAQqi14qb+kTWVlJVQxb1/RLGQgh2T5M4iS84UPz8mTJ8+fP89WmKjvjhTp5bIhvF/aCYlkqheat1V0eS2/hiILSONBd8lkE+hYRBTP0dWtQV/JZBPQQ+yHE0kmzSSHfLJHUUpMSZpK3ggPcUI+nyEA5du3b6erMESBZnRVdDx8GkbFXAoykak6QZrNoqIiDw+PO3fu/GZCUeDchwwZoi5BbAI/NNVBMiEIA++XdsJWkglB7ISLSSbEHriSZEJsjhEk086zRwLee0E+a0MzyaFi8g11skdJSkxJmkrGCC1XEyXIZwj4+fnRN90DEydOpHN2RMejmYZRMe1FlIJMZEoRp9mEqwTqjrShbN26FbZldBRiPfzQ1AUlE7593+ng/dJOoGRCDI5rSCYrM6ggclxAMqGH2A/dJdPWU589/pe4mbsWv/F52uJ9b3VdM5VXTZpJDglRqmSPteKUmAxMWk61ERFR4nyGIskkOR5RGsYocQoykSlJms3hw4fzb0OBs4Zdk0esERvCD01dUDLh2/edDt4v7QRKJsTguIZkQuyKC0gmxH7oLpm6Z02fUbAo/XA6+fuPz9bwb6At0UpySIhSJXuUpMRUxGkqGSMiosT5DEWSSXI8ojSMUYIUZBJTkjSbwcHBSUlJtJzw7bffQvv9+/cz5YiV8ENTF5RMiNPB+6WdQMmEGByUTIhZUDIhEnSXTB4rxqR+nkYlU9oXb/J5DjWTHBLUkzYlKTEVcZpKxogIpo36tUmMZJowYQJRLPLj0UzDGCVIQSYxJUmzOXjw4Oeff56WE4jE+uqr3xKlIDaBH5qiZEL0h/dLO+FEkkmdhwFpPKBkQsyCkgmRoLtk+kPGn9S/Ms0rSuV/ZdJMckhQKxlJSkxJmkqFk0OaSCRTeHj4okWLaFW/fv2IYpEcjxp1GsYoE7SKpiCTmJKk2Zw1a9bQoUN/a2qiuLi4WbNmmq8EQ6yBH5qiZEL0h/dLO+F4yQQBjqb/qhfqPAw2pMHHgzgGlEyIWVAyIRJ0l0xZX231eiuWPMsE/59852n+WSZFkORQ4ZSMKCWmPE2llZIpKSkJVEplZWVdXV12djYIEtodi45HlIYxSpyCTGRKEafZ3Lx5s6enJ30yivD6669DY3UJYhP4oalQMm3atOlNBLE/ubm5vF/aCcdLphEjRqhnS1uOnSRTg48HcQyOlEwY5J0RCJgOk0zoIU4HuIfukgl4r2THHzOntUqP8X93lqZeUgRJDhVOyUhSYr4jTlNppWQqLy/38/ODnYLlcePGqbNcio6nRJCGMUqcgkxkShGn2QSb0Iy+2Y/Qu3fvNWvWqEsQm8APTYWSid0UQewG75d2wiaSSTORgmZChoyMjE6dOvn4+Ew0AUFQkkdClIeBsH79+vDwcAjiCQkJdP53RUUFGKytraXNKBYejyXJKxBH4kjJxO4bcRIcJpnYHSPOgBEkk+VoJjnkEaXElKSptBLokc+dO6d+oEiN6Hj4NIxUmIlSkIlMidJspqSkwNiDrn755ZcdOnQAI6omiG3gh6YomRD94f3STlgvmTQTKYhSVkwEAABNyElEQVQSMhw9erRv376grz4xAUFNkkdClIdBMV0f2BGMcQsKCkaPHu3l5UUi8oYNG5o0afLdd99RIwTLjyfKguQViCNByYSYBSUTIsG5JJPLY8nvXfWipqamf//+VMu9+OKLTHpcxFbwQ1OUTIj+8H5pJySSaefZI0Hvz5On3hMlUhAlZFCkE+HUeSQkeRhgp1BF394Dq126dAEVpJhmAoBs49+eb/nxRFmQvAJxJCiZELOgZEIkoGRSo3uiTkxB5rzwQ1OUTIj+8H5pJ0SSCTTS79dM23Ox5NbdH+A/LGuqJlEiBVFCBoWTKKI8EpI8DET/wK5p1fTp0+m0b00sP54oC5JXII4EJRNiFpRMiASUTGowUSfSYPihKUomRH94v7QTIskU9P684gu/5TSAZf6lqIo0J4NmQgaFkyiiPBKSPAykSj0Hes6cOSC66KomFh6PzecMIFaCkgkxC0omRAJKJgSxCfzQ1C6SCcaRmzZtYkulSDaBrj0nJ4ctbSi2tdYw7HEM9rCpieX5gu7fv5+YmEhkQHp6+r59+9gWD+D90k6IJFPbN2Or7/5AV2GZT72nSBMpUNQJGYAxY8bMnTuXLEvySEjyMFRXV0NVXl4erQoLC1NnE5cjOR4FJZPxQMlkPerIo5gLPs4ISibrsbx7cjqcRTJJRn06Ysyj4mFGYi4f9HSBH5raRTI1YBwm2SQuLo6+xt76rDJqa3oBw9bZs2ezpdbhsPOy/OXX8HkODQ0lyzDi79GjB/NCGArvl3ZCJJks/JVJESRSECVkACCKhYSElJeXg3SpqamR5JEQ5WEAJk2a5OfnR+Zef/jhh7DV4cOHFVMCO/jg8C8LsvB46urqJJ87RBdQMlmPOvIo5oKPM4KSyXos756cDmeRTMbsfYx5VDzMSMzlg54u8ENTJ5BMaiQP0zsR9pBMDsNCyQTDcZAWmzdvpqtPPfWU6PcZ3i/thEgyWfgskyJIpCBKyACcO3cOAlnLli3Jmx4keSREeRiAa9euhYeHg4hq27YteXUeKRe9Mc/y47Hwc4c4DJRMVsJEHlIiCT7OCEomK6lX9+R0oGSyBmMeFY96JNYYgp4u8ENTO0qmrKys4ODgsLAw9QsQRXlpyCbwUQ8KCoIq9Sbp6elklc8qIzEI5Ofnjxo1ytfXNzIykjxworZG0Ex3k5qaunHjRs3j10QzBw5BM4cPI5k02xA0T0Gz0JLzUsSnJrmMknxBkq2KiopAD9y5c4eWQIMhQ4bQVTW8X9oJkWRSLHtjHkUzkQKfkEETSR4JUR4GArFv+UOrFh4PYiicRTKJgh6E8e3bt9Nm8NGGaEOWSRIwzSAvioENyBvGRx5FGnycEWeRTJpO0jAPUezsJK7kIc4lmUS3W3MMw99rvkQyLOEb80iGrxLXVcT+qfkpaICrS0ZivD8rruXSesEPTe0lmTp37hwXF7dt27Zly5a5ubnRXMWivDSwSceOHcePH19QUJCWlubu7g7+RKqowOCzykgMZmdng5GFCxeCM4FIoF8bqOXKXwTpbiTHzyPKgaMIcvgoDx+DqI0iOAXNQsam6LwU8amJLqMizRck2QoODMINXQW2bt0KR8V8qgm8X9oJiWRCECPgFJJJEvRgiENfiA9MnDiRhgtRkJfEwKj65w3jI48iDT7OiFNIJpGTNMBDFPs7iSt5iBNJJtHtFo1h+HvNl0iGJXxjHtEYSZG6rsg/RZ8CybmLTElGYrw/K67l0nrBD03rJ5lA5r515MM/ZPzJY8XYntnP7TjzzwcqeMAbQNvQZC+gdDXnoanz0sAm3t7e5OkLYP78+d27dyfLajEgn5hHDd69e9fT03Pp0qVsC5U1SbobC4+fIMqBI8rhozx8DKI2mqegWUiw5LwUy07NwnxBDOqtgOHDhzOvKIAqaHDixAl1IYH3SzuBkgkxOEaQTB+UFvzb2ikQ5P+YOW3Lyf1stTjoKdJRhWaQl8RAskl984bxkUeRBh9nRHfJtP3MFz2ynwUPgcHA219+zFabEDlJfT1EkXaUZCvrncSVPER3yQT34i9HN1oyUBTdbtEYhr/XfIkaZlgib0yQjJFErivxT9GnQHLumqbkIzHenxXXcmm94Iem9ZNMbx7+wOut2Jm7Fr/xeRr87/T2ZM0pTOANamEDCjsmJoYsi/LSwCbqW15YWAhVZA6SXDJpGgRRDr5Cv4VSQ61J0t1Ijp9HlANHlMNHUR2DpI3mKWgWEiw5L0V8apqXUZHmC5JsBQQHByclJdGtgG+//RZM7d+vMQLj/dJOoGRCDI7ukunjsmKvVb8F+Q6rJsL4mGkjCnqKeFShCIL80aNHRTGQbFLfvGF85FGkwccZ0VcyQaf/xNvx1ENgSPDOlxpvGBM5SX09BIYBko6SbGW9k7iSh+gumUAvWThQ1LzdkjEMf6/5EsmwhG/MIxojKWLXlfin6FMgOneRKflIjPdnxbVcWi/4oWn9JJN3xtMzChalH04nf/OKUjVfLBb18PNzMJSHAT1ZFuWlgU0SExPpJgcPHoSbXVlZqZiTTJoGjxw5Apurn+GhUGuSdDeS49dEMweOJIcPPQZJG81T0CwkWHJeivjUNC+jIs0XJNkKGDx48PPPP0+3Uh6or6+++u3FdBTeL+0ESibE4OgumXpkPasO8rDc+91/hV81mkFP4UYVEyZMUA+I+SAPYwVRDCSbqOOVJfCRR5EGH2dEX8kEnf6cwiVqD/lDxp/YRiY0naS+HgLDAElHSbay3klcyUN0l0zdMhLUMSSxcKlooKh5uyVjGP5e8yWSYQnfmEc0RlLEriv3T81PgejcRabkIzHenxXXcmm94Iem9ZNMHivGpH6eRj8Jbx19RzN9jcjnJHlpokzQTbKystq0aUOW1ZJpzMNZZUQGb9y44ebmlpubS1tSqDVJuhvR8ZtFnQNHksOHHoOkjeYpaBYSLDkvRXBqosuoSPMFSbZSTK+DHzp0KN1KMb0Ru1mzZpqvPeD90k6gZEIMju6SqXV6jDrIw3KbN8ezjVQwib/Cw8MXLVpEa/v166ceEPNBXhIDFS5eWQIfeRRp8HFG9JVM0OmnffGm2kNarRjLNnoYtZPU10MUaUep2MhJXMlDdJdMzEBxxeG3RANFzdstGcPw95opkQ9L+M15mDbq4Z/IdeX+SVF/CkTnLjIlGYkpWv6suJZL6wU/NK2fZPr3rGfUXx6kf/Ge6MsDTZ+7ffu2KC8NbAJ3lyyDku7WrRvNMqSWTExWGYnB+Ph4MELmcdbW1h44cIC3Jkp3Izp+TSQ5cDRz+CgPH4OojSI4Bc1CxbLzUgSnJrmMijhfkHyrzZs3e3p60qm6wOuvvw526Koa3i/tBEomxODoLpn6rJ8zc9diGuTnFaUGvv8i00YS9JKSkqAvr6yshPicnZ0NUV09INYM8pIYaMkQh4GPPIo0+Dgj+kom6PTf+DyTeggMCXpmP8c2EjtJAzxEsb+TuJKH6C6ZmF+q0w6tEw0URbdbNIbh7zVTIh+W8JvzaI6RyLLEdUX+KfoUSM5dZEo0ElO0/FlxLZfWC35oWj/J9OmZQ0+8HT9392srvli54ov1ovQ1Ep97R5CXBjaB29+nTx8vLy9whYiICCqO1WLg3MNZZSQGq6urJ0yYAJ8WMAgN6MM8amuidDeS4+cpEefA0czhozx8DKI2iuAUNAsZm6LzUsSnJrqMijRfkGQruAhwLuo3Dfbu3XvNmjV0VQ3vl3YCJNOmTZveRBBDkpubq7tkgpDe+Z2El4rfeOPztMX73+qyegof5CVBr7y8HMY6ENAgJowbN04dLkRBXhIDLRniMPCRR5EGH2dEX8lEstgt/zz7z1+8ObfwNRgS8E+7KWInaYCHKPZ3ElfyEN0lEx0ogocsP5QtGSiKbrdoDMPfa75EMizhG/OIxkiK1HVF/in6FEjOXWRKMhLj/VlxLZfWC35oWj/JpNQzfY0mkrw0imn+pXoOqyVIDFZWVoLLqhMl8dQ33Y0mkhw4mjl8GCRtNE9Bs5ChvucluYx14nxBkq1SUlJiY2PJ8pdfftmhQwfyXnge3i/tBP7KhBgc3SWTYnGQFwU9CBcQw9XT7gl0LKIZ5CUxsL6oI49iLvg4I/pKJsViD1EETtIwD1Hs5iQu5iG6SyalPh6iiG93fccwFMmwxEpErksQ+Sf/KWiYq0tGYi4f9HSBH5rWWzIhiIXU1NT079+fBJcXX3xRkhGY90s7gZIJMThGkEx2wpKveG2COvIo5oKPM6K7ZLITDvMQpT7dk9NhBMmEyLG5q7t80NMFfmiKkslSrl69Ok4L+U89iCXwfmknUDIhBseFJVNsbGxqaipbajEYgSmuKpnQQ2wCSiaz6O4qVro64hj4oSlKJku5ffv2di0a8KsxwsD7pZ1AyYQYHBeWTFaCEZjiqpLJStBDCCiZzIKuglgCPzRFyYToD++XdgIlE2JwUDIhZkHJhEhAyYQgNoEfmqJkQvSH90s7gZIJMTgOk0wwrmL3jTgJq1evZm+nHUBR7aQ4rD/FgSLi2vAfJW3JBBH55s2b7NYIYgd27Nixa9cu1gXtgwtIpvv37x8V8M033yimMXdOTg67mcVcuHDh5MmT6pJbt26B8R9++EFdyLN8+fJNmzaxpSasPCQG663BNUxMTCRPyqanp+/bt49toR8Ok0wZGRkY5J2RgoKC3bt3s7fTDmzfvl2dOhNxChzZnxpNMkFMW7duHVlmuom//e1vc+fOnTx58vnz563vQcwi6Q0NhfqKKcbuGXXBUsmkmL7HWrVq1VsIYk9Wrlx57Ngx1v/shgtIppqaGo8HtGjRokmTJnT1hRdegAZxcXE0KV4DmDJlSnh4uLrkwIEDNA2aBMkrgNSHNGvWLJr2tGFYeYIAdBKhoaFkOS8vr0ePHta/s9hWvOUoyQT7WrNmDQZ5p+M///M/2XtpN2Bf7O4RAwP96ZdffsneRbthNMkEioimKlJ3E8ePH3d3d09OTl67dm1FRYX1PYhZJL2hoVBfMcXYPaMuWCqZEMQlcQHJpOadd9555JFH2FLrsIdkUjNixAgi7fSirq7O29t78+bNdPWpp57asmXLw6104y1HSSYEQRBrMLJkUgP9vq+vL1tqTyzsDXVHfcUM3jPqAkompFFjE8mUn58/atQoCMGRkZEZGRmKSVSA0ggMDAwJCUlKSvr+++9p49TU1I8++mjNmjVQNX36dMX023daWlq/fv0GDBiQk5OzevXqrKws0lhkhzdC0JRM6enpJCED2WrVqlVBQUGwIZOlAVZBGvn5+SUkJJw5c4aWyyWT6AiVB52E5u7oIcHl6tSpk4+Pz0QTV65ckRhUtC612poiPgs4940bN8KFDQ4ODgsLUx9MUVGRh4fHnTt3aAnsd8iQIXRVX1AyIQjiFFgpmUiUhn6tf//+0Btu374dhukQAKE7GDRo0J49e9SNNUM9tIfuICAggHSmagFAuwkwCD1Iu3btoMch39apexBF0MuIOiZRX8xAekPNDgjK4UzpKgzK6QBAMc2rHDFihL+/f2xs7LFjx0hhaWlpfHx879694UJNmzaNvgld0sVr2lGkV8zgPaMuoGRCGjUSybTz7BH/d2e1So/pmf3c1lOfsdUPyM7Odnd3X7hwIcQXCPfkm6SVK1dCGCosLMzLywsNDR04cCBtD6HzySefHDNmTG5u7s6dO6FkyZIlbdu2hSgJkXro0KEdO3akMUtkhzdC0JRM0Gz27NmKaSswPn78+IKCAhBpcNgQXkkbCAQtW7aEvgSqRo8e7eXlRROTQz8BIb5Wxd69e6lkEh2hfHf0kI4ePdq3b18I5Z+YqK6ulhjUvNRqa5KzgIPp3LlzXFzctm3bli1b5ubmVlxcTKrADpwgWSZs3boV7Ki7Ch1ByYQgiFMgkUwflxX3yHq2dfq4vuvnQt/KVpsg/Rr0OJ9++um8efOaN28OIuTZZ5+F1ZkzZ8LwvaKigrQUhXroaFq3bg06BxQCCCp1Z0q7iUOHDoEw8Pb2hh6HPJtHqxRxLyPqmER9MYOkAwLVt2LFCtoShBw9ZtA8rVq1gpOCxjBOgFMuKSmBjqlDhw5wQUBDwh6Tk5NPnz5N2ov6XE07ZBPJFTN4z6gLKJmQRo1IMkFM7/T25Jm7Fr/xeRr8b79qwpZT+9lGinL37l1PT8+lS5eyFSq+++479TQ2CGo9evSoq6sjqxB9IGBBmCart2/fhuivOZdAbYcxQjErmaCfuH//PimfP39+9+7dYQFUULt27WjUhtUuXbpAICar0IE10YKfmMefqebulIe7KMnEPLVByaUm1uRnAQcD2oxesSFDhtADGD58OPTKZJkAe4T9njhxQl2oFyiZEARxCkSSKedEvteqWNKfztqd3PmdBE3VBFE6MDCQLEOsBilCh+z37t2D+P/xxx8r4g4L+ggoX716NSmvqqpq06YNL5kU08sYoDsgy+oqSS+jxpK+mEHSAYkkE5xX+/bt1UOUqVOnTpo06cyZM7D3y5cv03KKZp8rsqOYzldyxQzeM+oCSiakUSOSTAHvvQDxPf1wOvmbUbCoR9ZDsYNQUlICEYR+YUOpqKhYsGBBRESEr69vz549mzZtmp+fT6ogqM2cOZO2JDGIfksEDBs2jMYskR3GCMWsZFJHwMLCQjAIIo2E4NLSUlo1ffr0kSNHkmUyG+GMik2bNtEOQ3SEinh3ilQyiQyKLrXywJr8LOBg1HuBqxcTE0OWg4ODk5KSaBXw7bffgqn9+zVEsuNByYQgiFMgkkx/WPsn6ENpf/py8fKg9+exjbgoDZFZ/fwP9AgrV66EBVGoh24UytXvd42Ojq6XZJL0MqKOSdQXM0g6IJFkghOEg5kxY8aSJUtSUlJAE8LpwN5BAvXq1atr166giIqKikD20G01+9yjR49q2oEG8itm8J5RF1AyIY0akWRq8+b41M/TaIiH5dbp/wpwao4cOQIRRP3MDCEgIGD48OG7d++G4FtWVubu7r5161ZSFfXwY6AkRl+4cIGWjB49msYskR3GCMWsZEpMTKTlBw8ehF1XVlYeP34cFs6dO0er5syZA30DWZY/yyQ6QkW8O0UqmUQGRZdaeWBNfhbMFYP2sBVZHjx48PPPP0+rlAcdyVdffaUu1AuUTAiCOAUiyeSxYoy6P13+RXrbN2PZRlyUDg0NhVE+XaXSQhTqSTl5IzYBZEm9JJOklxF1TKK+mEHSATGSacKECeSYDx8+DAcDumi5CvJs1a1btzIzM8eOHfvoo496e3vTS6HZ54JwEtmRXzGD94y6gJIJadSIJFPg+y/OKVyi/pWpV/ZDsYNw48YNNze33NxcdeHVq1chrJw6dYqswgKsiiRTTU1N8+bNP/nkE7J67969p556isQsiR1RmDYrmQBanpWV1aZNG1iorq5u2rRpXl4erQoLC6NfVkkkk+QIFfHulId7L1ieO3cuWZYY1LzUBGJNfhaSHmvWrFlDhw6lVUBxcXGzZs2qqqrUhXqBkglBEKdAJJn+mDlN/SvT4v1viX5lskQyiUI9RGwoV6cO8/HxqZdkEvUyko5J1BczSDog6F4XLVpEq/r160eO+fr163Aw8jfUgXbq3r07yCGyqtnnSuzIr5jBe0ZdQMmENGpEkmnn2SOd30mYu/s18izT43+J237mC7aRifj4+G7dupHZvbW1tSAnbt++7e7uvnbtWsUUkqKjoyEqiSQT8Nxzz4GFzz///NKlS4mJiR4eHiRmSezwRghmJRPEO2IB9gU7pckoJk2aBB0SefHOhx9+CDs6fPgwqZJIJskRKtLdqXsvOOWQkJDy8nKI/iAgJQb5S81Yk5yFpMfavHmzp6cnnf8NvP7663RKve6gZEIQxCkQSaZPTu7rsGoieZbppeI3uqyeInqWyRLJpIhDfWxsLIRuUD6KaXQLUqFekkkR9DKSnk7UFzNIOqCkpCQQKpX/v717j4riTPMHLgjmACowLbIq0XYHXZRLROSighmB4A21MeCiokbAiDj8dNUR1pGJLHgZFeQyjGSjE9CFBMVLs446ccQ7KCqEyAriBVSwWY9A958zf/2e5Z15p6zuKtEi0obv53g8VU+99dYFqJcv3VXd3KzX63Nzc2nQ5PscHR2tVqv5GwWrq6u1Wm19ff2JEyfYgEVxiPaWf7Ch1Jhrsh82LXPGzHxk7BOITNCvSUUmQ3dqmvz7tUN2LJR5wo+h+y9eERERdAFVqVSDBg1iN89QdKFpZ2dnOzs7GkUoBclEJooKS5YsoZZ0eaJF4eHh/A3EUv0Yd8K8NjLR1fCjjz6iXaUrY1BQEP9z0cOHDykXUdHe3p49iYivLhOZDNJ7aJDdnHCIqquro6GRNsr6lOnQ5KkW9iZzFDIjFg2HdOb584uIl5dXZmYmn+1biEwA8F6QikyktPaC1+9W03jqcyBRajzteWSSutQ3NjZ6enpSvHFwcKDe3vSNeQbpUUZqYJIai0VkBqAHDx7QoVlZWVHPCxYsEO6zTqeLiYmhRTRC0Rbp/+zsbEo+w4cPp50ZNWoUDff0CwO7Q9ggPeaa7IetInPGzHxk7BOITNCvyUSmN9Lc3EwXMv7xCOTZs2dVVVVv+hJ2Z2fnmDFj2F+zmLfrxyR+1a6pqRG+EZxraGigo+DX3x567R5KbU6KfIfGp1rkLY4iOTlZo9Gw6cuXLzs5OdHA+WqTPoPIBADvBZnI9GMweanX6/W3b9/+4YcfhMU3ZXKUkR+YlKB9piFSeE+REA1GtDP19fX06wEvsmPnn6LByA/xJvsxyJ4xcx4Z+wQiE/RrvRWZlLh69WpeXh5diy9cuLB48WKVSkWXZnGj3tDDv4f1QzqdztfXl41YiYmJog/57VuITADwXnjHkQlEen2IN+eRsU8gMkG/Zg6R6ebNm8HBwWq1ety4cYsWLTL5uJ5eodFoUlNTxVUwb4hMAPBe6OeRqampaYEpMu+J6F0Y4n9siEzQr5lDZAKQgcgEAO+Ffh6Z2tvbS015o3eJgzlDZIJ+DZEJzBwiEwC8F/p5ZIKfPEQm6Nfe08h09+5d4Sd2G7ofu3fp0qX//d//FRaNbd++/euvvxZXu9Gv5gUFBeLq21LYGx3gpW7Xr1//n//5H71eL2qgsP83Jdxcr5zDrq6uhIQE9h7xjIyMM2fOiFv8HSITALwX3t/I1PNL91uQGTLMSlZWVl5eHp8VDlI911tnsrf6eVPywzEiE/Rr72lkkn/wtwyZ20M//fRT/rlJ8fHx/KMe3o6wt7dAB2hlZfWzn/3MwcHB0tJy6NChK1eufPjwIW+gsP83JdyczDkUPqxWHo1MAQEBbLqkpMTNzU30FCMOkQkA3gvvb2QSXrqVD38iMkOGWVm8eDF/wrjh1UGq53rrF4kfaYh/7S7JD8eITNCvITKZNGvWrLVr14qr75DwAF+8eHHy5MkJEyaMHj26ubn51YZ9QOYc9jAy6fV6tVpdVFTEZ11cXEx+OrsBkQkA3hM/jcjU68OfzJBhVoSRSTRIvZ1eP5PKvXaX5IdjRCbo13olMpWVlc2ZM8fd3X3GjBlZWVmG7gBDv/T7+Pj4+/snJSU9ffqUN05NTT148GBmZiYtWr58uaH75e+0tDRvb++pU6cWFBTs27cvJyeHNZbq57WRSWpFdu3evXv3lClTaJHwmaEZGRlslg5hxIgRrq6ui7o1NjbKdGgwdfjC3hiaph328PCIjo7mjwSkU3Ho0CE6WD8/v+nTpwvbGx9gU1OTra3tv/3bv7FZYf9VVVVRUVFeXl6+vr4xMTHs8UTsPJs8UoPE/hikd0m4OZlzKIpMR48epQu0p6enRqO5cuUKr2u1WjoWioK8Qqc0JCSEzwohMgHAe0F5ZDI5mhgkrthSl2uDxKBA1+3S0lLehn795UMtv3S/0fBnPJqbxIYMk/sps0sGiRHE5KEZXjfkmeyK4gENbZMnT2a/ewgjk/EgZTD11TE+A/K/SJjcDfl+GJPfAI8ePaIvTUdHB2/GmTxLxrtkvF2D7HCMyAT9mkxkOvb9RZ/fJw7ZsXBS/hqpTysnubm51tbWmzZtoksMXb7ZH5N27txJP/CnTp0qKSkJCAiYNm0ab09Xz5EjR9IFurCw8NixY1RJSUmxt7enCyVdj0JDQ52dnfllS6ofunzTlbdD4I9//KMwMkmtSFun/hcuXHj8+HHKabTndL1gi/iYcenSpUmTJtF17XA39tF1Uh2aPHxhb4buqwz7gHba6Ny5c1UqFfsAPtqZUaNGffrpp998880XX3xhaWnJP2jcODIRusbRpZZN8/7pmu7k5BQXF3f69Gk6n1u2bKmpqTHIHqnU/rC1TO6S8HBkehY2o0u8nZ0dNaAe6EtMW6ysrGSL6CzRl49NM8XFxdRAND4xiEwA8F6QiUyltRc+yv+cxlOfA4lS46nUaCJ1xZa6XEsNCvQLd3p6Ot8cDSh8qH274c94NDdJaj8NsrtkcgSROjSD7MBksiuqU2Xw4MEUJCjJ0IAr/N3DeJAy+dUxPgMyZ1JqN+T7MUh/A/znf/4n/drz+PFj1oyTOkvGu2S8XYPscIzIBP2aVGSia/qovdFrTv37b86nxZ34lfNvI4/WVogbGQwvX750dHTcunWreIEA/TwLwwz9iLq5ufHnGdCPJV2z6GLEZtvb2+lyIHw/MSfshxLFAFNMvjFPuCJtXa1Wd3V1sUXr168fP348m+75OxN4hzKHz3ujOOfg4MBHBZr98MMP6RJm6N4Zun7xUxESEsJ3wGRk2rhx489+9jM2zfuvra2lnWloaHilqfSRyuwPW8vkLokik8mehc2o22HDhgm/u5YtWxYZGcmmw8LCVq5cyRcROpl0FDdu3BAWGUQmAHgvSEWmI3fOOu1eRCMpjaf/77+3f7hvqXFqkhpNZK7YUpdrqUFBJp+8xfBnMBrNpUjtp0F6l6RGEKlDM0gPTFJd0QmnE7tv3z5WbG1tHTp0KD8hokFK6qtjfAakzqTUbrBpmX5kvgEocVH0Mn6Gu8xZEn1xjbdrkB2OEZmgX5OKTD4HEikvZVRksH+xxzdPzFslbtT9E0s/WvwvJdyjR4/o9/ugoCB3d/cJEyZYWFiUlZWxRfQjGhcXx1uyH07+hyLyySef8MuWVD/sTQK1Al9//bUwMkmtSFsXXgdPnTpFi9gVR+pKx5jsUOrwDUaRpqqqii9avnz57NmzDd07I9wKnZb58+ezaZORicaA4cOHs2nh9XTixImjR4+mpVqtlq7srIHUkcrsj0F6l0SRyWTPwmbUP20lNjaWLujJycl0fQ8ODqZTx1bx8/NLSkriPZD79+9T+7NnzwqLDCITALwXpCLTuOwYGkP5eLrl7O4pB9aJ2kiNJjJXbKnLtdSgIJVPDG81/BmMRnMpUvtpkN4lqRFE6tAM0gOTVFf0WwfVhY/epTo/IaJBSuqrY3wGpM6k1G6wpTL9yHwDSJE5S8aRyfgrKDMcIzJBvyYVmYbuWJh6Po1f4ml6cMbfrnFCFy9epB+tWsHNMMzkyZPDwsJOnjxJl5jq6mpra+vi4mK26ONX7wRlV6K7d+/yyty5c/llS6of40QhupdJakXaekJCAl/ru+++o7XYMxWkrnSMyQ6lDt8g6O369evUpq6uji/6/PPPaewxGJ0Kak9rsWnjAzR0/3HO39+fTQv39vnz59nZ2eHh4UOGDFGr1WxbUkcqsz8G6V0SRSaTPQubVVRUUJGu19sF+FvzZ86cuWrVKwmcjV7Xrl0TFhlEJgB4L0hFJtv0ecLxdPuFDPsdGlEbqdFE5ootdbk2SAwKonwSERHRw8hkcvgzGO2AFJn9lNolmRHE5KEZpAcmqa7YiRU+Q5yCHD8hokFK6qtjfAakzqTUbrClMv3IfAPIkDpLxpHJ+CsoMxwjMkG/JhWZJv9+rfCvYjTtlvPKO6mYJ0+eWFpaFhYWCotNTU3083bnzh02SxM0KxWZdDqdlZXV4cOH2WxnZ6eLiwu7bMn0Y5wohJFJZsWPu/G1cnJyhg4dyqaFVzqaXrNmDW8m1aHJw2d4b21tbRYWFiUlJXzR9OnT2R/DZAYS4wO8fPnywIEDKT+wWeHecnSVHD9+PF2UDdJHKrM/BuldEkUmkz0Lm7W0tNCZkXrqTnx8fGhoqLBSXl5OR9fa2iosMohMAPBekIpM/7x/iXA8TSr/wvhVJqnRROaKLXW5FhIOCjSmbN68mS/y9vY2GZl6OPwZjHZAisx+Su2S/AjCCA/NID0wSXVFww2d2OPHj/OKq6srPyGiQUrqq2N8BqTOpNRuMDL9yHwD9IToLIm+uMbbNcgOx4hM0K9JRaZj31/8pz1R7L3X9P+w3RFHbpt4lZZERUWNHTuWve21o6ODokt7e7u1tfX+/fsN3Vel4OBg+oGXikzks88+ox7Onz9/7969hIQEW1tbdtmS6cc4UQgjk8yKtHW6FrBp2hxtl3/0gfBKR7vh7+//4MEDutzo9XqZDo0P37i3yMhIDw8P9siar776itatqKgwGJ0KUWRi7zyk8elPf/rTr3/96yFDhtAh8zsyef/19fUnTpxgb+CmizLtDPvUBZkjldoftpbJXRJFJqmehc2io6PVajV/J0N1dbVWq2XTRUVFjo6O/E3nZNu2bXS8fFYIkQkA3gtSken3lUdVuzRsPI0/uWXU3mjje5kM0qOJ1BVb6nItNSgkJSVRKmhubqZBLTc3ly7jJiNTz4c/49HcJKn9NMjukskRROrQDLIDk8muaEKj0dC4Q3HI0B0GKNLwrRsPUia/OsZnQOZMSu2G4XX9SH0DULahFY2zjcxZEu2S8XYNssMxIhP0a1KRydCdmjx+F2eXMd8td+WRO6bzkqH7TyARERH0M6xSqQYNGsTeYrt3716adnZ2trOzo1GEUpBMZKIf3SVLllBLukLRovDwcP4eYql+5COTzIq0dbomfvTRR7S3dH0MCgrilxvhFaquri4gIMDGxob3KdWhycMX9fbw4UPaW9qcvb09e+4Nq8sMJPz5FjQGUM+0nzRidQieJcr7p+vv8OHDadOjRo364IMP6Oyx24pkjlRqf9haJndJFJmkehY20+l0MTExVlZW9GWl00X/Z2dns0W0hzTLH5pEvLy8MjMz+awQIhMAvBekIhM5WH3KLWcljacf5X9uMi8ZpEcTqSu21OVaalCgX5TpN2+6JtMotmDBAuH70N5u+DMezU2S2k+D7C6ZHEGkDs0gOzCZ7IrqjY2Nnp6eFAgdHBxodeHWjQcpk18d4zMgcyaldsPwun6kvgGknpgnc5ZEu2S8XYPscIzIBP2aTGR6I83NzfRTyj8hgTx79qyqqsr47x/yOjs7x4wZw/6gxbxdP4bXrVhTUyN8c3BPyHRofPjGGhoaqI3xw216BeucPyvcILgESx2p8v2R6lmIhhnaSn19vejTxJOTkzUaDZu+fPmyk5MTe5qtMUQmAHgvyESmnpMaTd70im08KBi6P4mILtrCG3h6SGb4U0h+l0yOICYP7bVDnsmuaOu3b9/+4YcfBA3/RjhIcVJfnZ4zuRs90SvfAK8lPxwjMkG/1luRSYmrV6/m5eXR5fjChQuLFy9WqVR0dRY3gjdk8q9H5kOn0/n6+rJhMjExUfSxg0KITADwXuiVyARvp9eHPOEg1X/ID8eITNCvmUNkunnzZnBwsFqtHjdu3KJFi4wfSgNvQaPRpKamiqvvIUQmAHgv9OfI1NTUtMAUJS/IvJGfzJBnzhCZoF8zh8gEIAORCQDeC/05MrW3t5ea0vM3koH5Q2SCfo1+AMQ/EwDmBJEJAN4L/TkyQX+AyAT92pdffvnOXjcHeFN6vX7nzp3i71oAAPPTPyPT9u3bv/76a3H1zXV1dSUkJPB7hzIyMs6cOfNqE+hjiEzQr/3lL39JTk5GagLzdOzYsStXroi/awEAzE+fRKb4+Hj+qTt9oreeu5CXlxcQEMBnS0pK3Nzc3vSxcvCjQmSC/u6vf/1rQUHBHgAzQ79/lJaWir9fAQDMUp9EplmzZq1du1ZcfYd6JTLp9Xq1Wl1UVCSsuLi4HDlyRNAK+hgiEwAAAAAoojAydXV1paWleXt7T506taCgYN++fTk5OXzp0aNHKR15enpqNJorV66wYlZW1ogRI1xdXRd1a2xs5O2FUlNTDx06RL35+flNnz5d9BRpmg0MDPTw8IiOjuZPrGWrZGZm+vr60v6UlpZShtm1a5ePj88vfvGL06dP89VZZNq9e/eUKVP8/f2FnVMnBw8epE6ovnz5clY0eSBardbW1vbFixd8XZKUlBQSEiKsQN9CZAIAAAAARWQi07HvL045sG7oDg39T9Pixd1SUlLs7e0p2JSVlYWGhjo7O69YsYItohxiZ2dHgaq8vJya2djYVFZWUv3SpUuTJk2iBHK4m9QnkFKqGTVq1KeffvrNN9988cUXlpaW1A9bRL8EU2+UhY4fPz537lyVSsU+/JRWGTly5NKlS7/99tt169ZZWVlR5lm5ciXNxsXFUbx59OgR75x2deHChdQD7aG1tTXFJL6IOpk3b15hYeGxY8cM0gdCoYuyHFuLKy4upgaiHAV9CJEJAAAAABSRikyltRf+aU9UwqmtGRW70i/kj8mMMU5NFAwGDx6cm5vLZtvb2ym9sMjU0dExbNiwPYJPBFm2bFlkZCSb7skb8yi6ULLS6/VsNiQkZPXq1Ybunh0cHNLT01mdZj/88MMtW7awVXx8fFidVqTkwyNNZ2eno6PjH/7wBzZLLdVqdVdXF5tdv379+PHj+SI3Nze+XZkDCQsLozzG68ytW7cGDBhw48YNUR36CiITAAAAACgiFZncclfGHt+cUZHB/v3Hn3835cA6URsWD2pqanjlk08+YZGpqqqKFsXGxqakpCQnJ1OkCQ4Odnd3Z816GJmEbeLi4ubPn08TtbW11DP1zxctX7589uzZxqv4+fkJb1iire/cuZNNU0th2jl16pSFhQX7OCZaRNvii2QOhPpPSkriLZn79+9T+7Nnz4rq0FcQmQAAAABAEanIZJs+L/V8Go9M6RW77HdoRG0qKyspHty9e5dX5s6dyyJTRUUFLVq/fv12gaysLNash5FJGHhWr149b948mrh+/Tr1XFdXxxd9/vnnQUFBBqNVAgICKOfwWQ8PD/7aFLVMSEjgi7777jvqs7m5mS0SdiJzIDNnzly1ahVvyVCApPbXrl0T1aGvIDIBAAAAgCJSkWlsVrTwVaaEU1uNX2XS6XRWVlaHDx9ms52dnS4uLiwytbS0WFpaSj07jsLPmjVrxNVXSUWmtrY2CwuLkpISvmj69OnsJaM3ikyEL8rJyRk6dChfJOxE5kDi4+NDQ0NFxfLy8oEDB7a2torq0FcQmQAAAABAEanItOviV6pdmrgTv/rN+TT6/5/2RBnfy0Q+++yzsWPHnj9//t69ewkJCba2tvzxD9HR0Wq1mj0pgVRXV2u1WjZNLf39/R88ePD8+XN+15CIVGQikZGRlH/YZzN+9dVXlKAqKiqMV5GPTBRsiouLaZr2nA7hl7/8JV8kev641IEUFRU5OjryG6KYbdu28fupwBwgMgEAAACAIlKR6f8ez33xq7FZ0bbp4W45K4/W/l8mMUaZZ8mSJXZ2dhQeKGmEh4fz23t0Ol1MTIyVlRUtoihF/2dnZ7NFdXV1lGdsbGwGDBhw69atf3QnIBOZHj58GBgYaGlpaW9vzx6dZ3IV+chE0e6jjz5SqVTUT1BQEH9dyDgySR1Ie3s7TfPn+DFeXl6ZmZnCCvQtRCYAAAAAUEQqMr2Fzs7OMWPG7N+/X1hsa2urrKysr6+npcK6cg0NDdQze2bDW6upqRHeFiXD5IEkJydrNBo+e/nyZScnJ6nHpkOfQGQCAAAAAEUURqarV6/m5eVVVVVduHBh8eLFKpXq2bNn4kY/XTqdztfX9969e2w2MTFR9JG70OcQmQAAAABAEYWR6ebNm8HBwWq1ety4cYsWLaqtrRW3kNXU1LTAFHafEoByiEwAAAAAoIjCyKRQe3t7qSkK324HwCEyAQAAAIAifRuZAH5siEwAAAAAoAgiE/y0ITIBAAAAgCL9MDJt377966+/FlffXFdXV0JCAnv2Q0ZGxpkzZ8QtwAwgMgEAAACAIu84MsXHx6elpYmr75bxJy+9nby8vICAADZdUlLi5ubW6w9SB+UQmQAAAABAkXccmWbNmrV27Vpx9d3qlcik1+vVanVRURGfdXFxOXLkyKutoO8hMgEAAACAIgojU1VVVVRUlJeXl6+vb0xMDH84+NGjRykdeXp6ajSaK1eusGJWVtaIESNcXV0XdWtsbPxHRwKpqamHDh3Kycnx8/ObPn266JOOaDYwMNDDwyM6Olr4THO2VmZmJu3J1KlTS0tLKcbs2rXLx8fnF7/4xenTp3lLFpl27949ZcoUf39/3j/1cPDgQeqBisuXL2dFkwdCtFqtra3tixcveCUpKSkkJITPgplAZAIAAAAARWQiU8GNsvHZy+0y5nv+Lv7Y9xfFiw0GCgxOTk5xcXEUSI4dO7Zly5aamhpDd6qxs7NLS0srLy9PSUmxsbGprKyk+qVLlyZNmkQJ5HC3trY2cY/dKNKMGjXq008//eabb7744gtLS0vqhy2iX3+pNwpCx48fnzt3rkqlamlp4WuNHDly6dKl33777bp166ysrCj2rFy5kmZpDynePHr0iLd0dnZeuHAhdUI7aW1tTUmJ9zBv3rzCwkI6HIP0gRAKXRTn2DRTXFxMDYQhCswBIhMAAAAAKCIVmXKvl6h2aeJO/Oo359Po/5F7/9U4NdXW1g4YMKChoUFY7OjoGDZs2J49e3hl2bJlkZGRbLonb8yj6ELJSq/Xs9mQkJDVq1cbunt2cHBIT09ndZr98MMPKafxtXx8fNg0rUvhh0eazs5OR0fHP/zhD7ylWq3u6upis+vXrx8/fjyru7m58e3KH0hYWBjlMb6I3Lp1i87GjRs3hEXoc4hMAAAAAKCIVGT65/1LYo9vzqjIYP/WladOObBO1IZCxcSJE0ePHk2pQ6vVvnz50tD9Vj1KDrGxsSkpKcnJyRRpgoOD3d3d2So9jEzCNnFxcfPnzzf8PaFR/3zR8uXLZ8+ezaZFa/n5+QlvWKId2LlzJ5umlsK0c+rUKQsLi/b2dqrTtnhd/kCo/6SkJN6Y3L9/n9qfPXtWWIQ+h8gEAAAAAIpIRSbb9Hmp59N4ZEq7sMN+h0bcyGB4/vx5dnZ2eHj4kCFD1Gp1XV1dRUUFJQcKUdsFsrKyWPseRiZh2lm9evW8efNo4vr169QzbYIv+vzzz4OCgti0aK2AgACKOnzWw8ODvzxFLRMSEvii7777jrptbm4W9SB/IDNnzly1ahVvTGpqaqj9tWvXhEXoc4hMAAAAAKCIVGQan71c+CrTv5/ba/wqkxBlp/Hjx1PAaGlpsbS0lHp2HIWfNWvWiKuvkopMbW1tFhYWJSUlfNH06dP560VvFJkIX5STkzN06FBWF/YgfyDx8fGhoaHCSnl5+cCBA1tbW4VF6HOITAAAAACgiFRkKr7zp+G//ZTdy7TxjxmjM5cZ38tUX19/4sQJdlMQBYyxY8eyz1yKjo5Wq9X8SQnV1dVarZZNJyQk+Pv7P3jwgCIWv2tIRCoykcjISAo/7Ll8X331FSWoiooKk2vJRybKNsXFxTR979492u1f/vKXrC56+LjMgRQVFTk6OvIbosi2bdv4zVRgPhCZAAAAAEARqchEKCN55ycM2bFwyoF1xnmJUJYYPnz4oEGDRo0a9cEHH4SHh7e3t1Ndp9PFxMRYWVlRqLC1taX/s7Oz2Sp1dXUUZmxsbAYMGHDr1q1Xuvs7mcj08OHDwMBAS0tLe3t79ug83uyNItOKFSs++ugjlUpFXQUFBbGXhowjk8yB0JHSLH+UH/Hy8srMzOSzYCYQmQAAAABAEZnI1EMNDQ2UnfjDvrm2tjaq19fXd3Z2ihYpxLbI4pkSNTU1wjujpEgdSHJyskajYdOXL192cnKSemw69CFEJgAAAABQRHlk6rd0Op2vr++9e/doOjExUfSRu2AmEJkAAAAAQJG+ikxNTU0LTGH3KQH0FkQmAAAAAFCkryJTe3t7qSnK324HIITIBAAAAACK9FVkAng3EJkAAAAAQJGfamTKysrKy8sTV43s2rWroKBAXDWlq6srISGB3bmUkZFx5swZcQswS4hMAAAAAKBIn0Sm+Ph49glOP57FixevWLFCXDUyb9681atXi6umUAALCAhg0yUlJW5ubr3+JED4MSAyAQAAAIAifRKZZs2atXbtWnG1V/VuZNLr9Wq1uqioiM+6uLgcOXLk1VZgjhCZAAAAAEARhZGpq6srLS3N29t76tSpBQUF+/bty8nJ4UuPHj1K6cjT01Oj0Vy5coUVs7KyRowY4erquqhbY2Mjby9SVlY2Z84cd3f3GTNm0Fq8brJbijEZGRmTJ09meyKMTBs2bCgtLeWr0+/QfCeFkencuXNLly718fHx9/dPSkp6+vQpX0Wr1dra2r548YJXqEFISAifBbOFyAQAAAAAishEppKa7zx/Fz9kx8LJv1977PuL4sXdUlJS7O3tKYFQvAkNDXV2duZBJT8/387OjgJVeXk5NbOxsamsrKT6pUuXJk2aRJnncDepj3/Nzc21trbetGkTxZVDhw5R7GF1qW6pMnjwYEpWFKgCAwOFe+Lh4ZGens57ppzGFwkj086dOyl0nTp1qqSkJCAgYNq0aXwV2vr06dP5LCkuLqZNC0MUmCdEJgAAAABQRCoyfV3938N2R8Sd+NVvzqclard9uG+pcWqiwEAphbINm21vb1epVCyNdHR0DBs2bM+ePbzxsmXLIiMj2fRr35j38uVLR0fHrVu3iupS3VJ7BweHffv2sWJra+vQoUPfNDIJPX78eMCAAbdu3WKzYWFhK1euFDagRdTgxo0bwiKYIUQmAAAAAFBEKjK5Zi+LPb45oyKD/dv0xx1TDqwTtWGxoaamhlc++eQTlkaqqqpoUWxsbEpKSnJy8pYtW4KDg93d3Vmz10amyspKWp29fCQk1S3tA9Vv377NW1L9TSPTo0ePNm7cGBQURB1OmDDBwsKirKyMLfLz80tKSmLTzP3792mLZ8+eFRbBDCEyAQAAAIAiUpHJNn1e6vk0Hpm++HO6/Q6NqA0LNnfv3uWVuXPnsjRSUVFBi9avX79dgN+P9NrIdPHiRVq9trZWVJfq9vr161RnTwBn5s+fLxWZIiIiTEamyZMnh4WFnTx5ko6rurra2tq6uLiYLZo5c+aqVavYNMNC2rVr14RFMEOITAAAAACgiFRk+vn+pcJXmTac/g/jV5l0Op2VldXhw4fZbGdnp4uLC0sjLS0tlpaWUs+Uo6CyZs0acVXgyZMntHphYaGoLtVta2urhYXF8ePHecXV1ZXnosDAwM2bN/NF3t7expGpqamJItCdO3dYnSZolkem+Pj40NBQNs2Ul5cPHDiQtissghlCZAIAAAAARaQi01c3Tqp2a9i9TJ+fTHHZt8T4Xiby2WefjR079vz58/fu3UtISLC1teVpJDo6Wq1W8zfXVVdXa7VaNk0t/f39Hzx48Pz5c71ez4oiUVFR1DO7Waijo+PcuXOsLtWtRqPx8fGhrGXo/i2ZkhXfk6SkJEpQzc3NtK3c3FyKOsaRqb293draev/+/YbuABYcHEwZjEemoqIiR0fHrq4uNku2bdtGm+OzYLYQmQAAAABAEanIRA7fPjMxd9XgjAXe+Qkm8xKhzLNkyRI7OztKFBs2bAgPD+f3/Oh0upiYGCsrK1pEUYr+z87OZovq6uoCAgJsbGyEj1gQaWtri4iIoNyiUqkGDRo0e/ZsVpfqtrGx0dPTk2KPg4PDxx9/LHxjHmUzDw8PWoX2c8GCBcJFwjfm7d27lzbk7OxMzei0UOc8MlGgog2Vl5ezWeLl5ZWZmclnwWwhMgEAAACAIjKR6U11dnaOGTOGvVDDUfKprKysr6+npcJ6DzU3N9PqTU1NorrJbvV6/e3bt3/44QdBw38sopwmvNnJpGfPnlVVVZl8u11ycrJG87e7uS5fvuzk5CT1eHQwK4hMAAAAAKCIwsh09erVvLw8ihkXLlxYvHixSqWi1CFu9JOg0+l8fX1Z6EpMTMzPzxe3ALOEyAQAAAAAiiiMTDdv3gwODlar1ePGjVu0aJHxM+7kNTU1LTDF+GUlgLeDyAQAAAAAiiiMTAq1t7eXmkJ1cVOAt4LIBAAAAACK9G1kAvixITIBAAAAgCI/yciUlZWVl5cnrhrZtWtXQUGBuGqkq6srISGB3cWUkZFx5swZcQswY4hMAAAAAKDIO45M8fHxaWlp4mpvW7x4MX+MuAzhE8ZlUPoKCAhg0yUlJW5ubm/39D/oE4hMAAAAAKDIO45Ms2bNWrt2rbja23oxMun1erVaXVRUxGddXFyOHDnyaiswX4hMAAAAAKCIwshUVVUVFRXl5eXl6+sbExPDn3R39OhRSkeenp4ajebKlSusmJWVNWLECFdX10XdGhsb/9HRq8rKyubMmePu7j5jxgxai9dNdmvoTjIZGRmTJ0+eOnVqQUGBMDJt2LChtLSUt6RfoHNyctg0j0znzp1bunSpj4+Pv79/UlLS06dPeXutVmtra/vixQteoQYhISF8FswcIhMAAAAAKCITmY59f9HnQOLQHZopB9bRtHixwUBBwsnJKS4u7vTp08eOHduyZUtNTQ3V8/Pz7ezs0tLSysvLU1JSbGxsKisrqX7p0qVJkyZR5jncTeqjYHNzc62trTdt2kRx5dChQ5R5WF2qW0LFwYMHU7iiTBUYGOjs7Mwjk4eHR3p6OpsmFNX4Ih6Zdu7cSYnr1KlTJSUlAQEB06ZN4+1p69OnT+ezpLi4mDYtDFFgzhCZAAAAAEARqcj0be2fnX8bGXfiV785n/brP2WOzlxmnJpqa2sHDBjQ0NAgLHZ0dAwbNmzPnj28smzZssjISDb92jfmvXz50tHRcevWraK6TLe0ioODw759+1i9tbV16NChbxSZhB4/fkwHdevWLTYbFha2cuVKYQNaRA1u3LghLILZQmQCAAAAAEWkItO/5KyIPb45oyKD/Uv9bv+UA+tEbSjGTJw4cfTo0evXr9dqtRRdDN1v1aNEERsbm5KSkpycvGXLluDgYHd3d7bKayNTZWUlrc5fPuJkuq2pqaFFt2/f5o1p0RtFpkePHm3cuDEoKIg6nDBhgoWFRVlZGWvj5+eXlJTEVyf379+nzZ09e1ZYBLOFyAQAAAAAikhFJtv0eann03hkSruww36HRtzIYHj+/Hl2dnZ4ePiQIUPUanVdXV1FRQUlCgpR2wX4/UivjUwXL16k1Wtra0V1mW6vX79Oi9hDwJn58+dLRaaIiAjjyDR58uSwsLCTJ09SVKuurra2ti4uLmZtZs6cuWrVKr664e8J7dq1a8IimC1EJgAAAABQRCoyjc2KFr7KlKjdZvwqkxBlp/Hjx1OkaWlpsbS0lHqmHKWUNWvWiKsCT548odULCwtFdZluW1tbLSwsjh8/ziuurq48FwUGBm7evJkv8vb2FkWmpqYmikB37txhRZqgWR6Z4uPjQ0ND2TRTXl4+cOBA2qiwCGYLkQkAAAAAFJGKTJlXilS7NOxeJvp/xN7Fxvcy1dfXnzhxoqury9AdacaOHcs+cyk6OlqtVvM311VXV2u1WjadkJDg7+//4MEDilh6vf5vHb0qKiqKumI3C3V0dJw7d47VZbrVaDQ+Pj4UtwzdvyJTuOK5KCkpiRJUc3MzbS43N5fSjigytbe3W1tb79+/39CdvoKDgymA8chUVFTk6OjIjpHZtm0bbYvPgplDZAIAAAAARaQiE8m++l8/37/UNiPcPS/WOC8Zuu87Gj58+KBBg0aNGvXBBx+Eh4dT/KC6TqeLiYmxsrKisGFra0v/Z2dns1Xq6uoCAgJsbGyEj1gQaWtri4iIoNyiUqmo89mzZ7O6TLeNjY2enp6UfBwcHD7++GPhG/Monnl4eNBadnZ2CxYsEC7ib8zbu3cvbcjZ2Zna0AmhznlkoiOiDZWXl7NZ4uXllZmZyWfBzCEyAQAAAIAiMpGphxoaGig7tbS0iOqUfKheX1/f2dkpWtQTzc3NtDr/oCdOqlu9Xn/79u0ffvhBWOSLKKoJb3Yy9uzZs6qqKpNvt0tOTtZo/nYf1+XLl52cnKQejw5mCJEJAAAAABRRHpl+8nQ6na+vL0tciYmJ+fn54hZgxhCZAAAAAECRvopMTU1NC0wxflkJQAlEJgAAAABQpK8iU3t7e6kp7G4ogN6CyAQAAAAAivRVZAJ4NxCZAAAAAECRn0xk2rVrV0FBgbhqpIfNjHV1dSUkJPBnSGRkZJw5c+bVJmCOEJkAAAAAQJE+iUzx8fHsE5x6EX9iuLweNjOWl5cXEBDAZ0tKStzc3N7uYYDwLiEyAQAAAIAifRKZZs2atXbtWnFVmR5moR42E9Hr9Wq1uqioSFhxcXE5cuSIoBWYI0QmAAAAAFBEYWTq6upKS0vz9vaeOnVqQUHBvn37cnJy+NKjR49SOvL09NRoNFeuXGHFrKysESNGuLq6LurW2NjI24uUlZXNmTPH3d19xowZtBavm+xWmIU2bNhQWlrK29MvzXyvhM3OnTu3dOlSHx8ff3//pKSkp0+f8lVSU1MPHjyYmZlJi5YvX67Vam1tbV+8eMEbEFolJCREWAEzhMgEAAAAAIoojEwpKSn29vYUSCjehIaGOjs7r1ixgi3Kz8+3s7OjQFVeXk7NbGxsKisrqX7p0qVJkyZR5jncTepjYXNzc62trTdt2kRx5dChQ5SCWF2qW2EW8vDwSE9P511RMON7JWy2c+fOjIyMU6dOlZSUBAQETJs2ja/y8ccfjxw5khoXFhYeO3aMtj59+nS+lCkuLqati3IUmBtEJgAAAABQRCYyZV/9r5/vX2qbEe6eF3vs+4vixQYDpYXBgwdTtmGz7e3tKpWKhZOOjo5hw4bt2bOHN162bFlkZCSbfu0b816+fOno6Lh161ZRXabbt4hMQo8fPx4wYMCtW7fYLEUmNzc3vV7PZsPCwlauXPmP1t2oMa1y48YNUR3MCiITAAAAACgiFZkyrxSpdmniTvzqN+fT6P8RexcbpyaWGWpqanjlk08+YeGkqqqKFsXGxqakpCQnJ2/ZsiU4ONjd3Z01e21kqqyspNXZy0dCMt2+RWR69OjRxo0bg4KCqIcJEyZYWFiUlZWxRRSZ4uLi2DTx8/NLSkris8z9+/dpZ86ePSuqg1lBZAIAAAAARaQi09is6NjjmzMqMti/RO22KQfWidqwYHP37l1emTt3LgsnFRUVtGj9+vXbBfj9SK+NTBcvXqTVa2trRXWZbmUiU0REhMnINHny5LCwsJMnT9KBVFdXW1tbFxcXs0UUmfhbAcnMmTNXrVrFZxnKirQz165dE9XBrCAyAQAAAIAiUpHJNn1e6vk0HpnSLuyw36ERtdHpdFZWVocPH2aznZ2dLi4uLJy0tLRYWlpKPVCOcsuaNWvEVYEnT57Q6oWFhaK6TLfCLBQYGLh582a+yNvb2zgyNTU1UeC5c+cOq9MEzUpFpvj4+NDQUD7LlJeXDxw4sLW1VVQHs4LIBAAAAACKSEWmf8lZIXyVKfW7/cavMpHPPvts7Nix58+fv3fvXkJCgq2tLQ8n0dHRarWav7muurpaq9WyaWrp7+//4MGD58+f8/uFRKKioqhndqdQR0fHuXPnWF2qW2FkSkpKcnV1bW5ups5zc3Mp2BhHpvb2dmtr6/3799M0xZ7g4GALCwupyFRUVOTo6NjV1cUrZNu2bT4+PsIKmCFEJgAAAABQRCoyfVv7Z+ffRrJ7mX79p8zRmcuM72UilHmWLFliZ2dHiYIyRnh4OL/nR6fTxcTEWFlZ0SKKUvR/dnY2W1RXVxcQEGBjYyN84oJIW1tbREQExRiVSjVo0KDZs2ezulS3wshEYczDw4Pa0I4tWLBg/vz5xpGJ7N27l3p2dnamZnQeqDepyET5ijZUXl7OK8TLyyszM1NYATOEyAQAAAAAikhFJkIZyedA4tAdmikH1pnMSyKdnZ1jxoxhr9twlHwqKyvr6+tpqbDeQ83NzbR6U1OTqP7abvV6PQWze/fuiRe86tmzZ1VVVT15c11ycrJG84+3Jl6+fNnJyUnqCelgPhCZAAAAAEARmcjUE1evXs3Ly6PUceHChcWLF6tUKgoh4kY/CTqdztfXl2ewxMTE/Pz8V5uAOUJkAgAAAABFFEammzdvBgcHq9XqcePGLVq0yPgZd/KampoWmGL8shLA20FkAgAAAABFFEYmhdrb20tNobq4KcBbQWQCAAAAAEX6NjIB/NgQmQAAAABAEUQm+GlDZAIAAAAARX4akWnXrl0FBQXiqpEeNjPW1dWVkJDAnv2QkZFx5swZcQswV4hMAAAAAKDIO45M8fHxaWlp4qpiwk9bktHDZsby8vICAgLYdElJiZubm9TDzcHcIDIBAAAAgCLvODLNmjVr7dq14qpiPcxCPWwmotfr1Wp1UVERn3VxcTly5MirrcBMITIBAAAAgCIKI1NVVVVUVJSXl5evr29MTAx/OPjRo0cpHXl6emo0mitXrrBiVlbWiBEjXF1dF3VrbGz8R0evKisrmzNnjru7+4wZM2gtXjfZreHVLLRhw4bS0lK+iH5jzsnJETU7d+7c0qVLfXx8/P39k5KSnj59ytunpqYePHgwMzOTFi1fvpwqWq3W1tb2xYsXvA2tEhISwmfBnCEyAQAAAIAiMpHp8O0zE3NXDc5Y4J2fcOz7i+LFBgOlCCcnp7i4uNOnTx87dmzLli01NTVUz8/Pt7OzS0tLKy8vT0lJsbGxqayspPqlS5cmTZpEmedwt7a2NnGP3XJzc62trTdt2kRZ5dChQxSBWF2qW8OrkcnDwyM9PZ1NE8pmK1asEDXbuXNnRkbGqVOnSkpKAgICpk2bxtt//PHHI0eOpJaFhYV0UIbuDDZ9+nTegBQXF9PWhSEKzBYiEwAAAAAoIhWZvrpxUrVbE3fiV785n/b5yRSXfUuMU1Ntbe2AAQMaGhqExY6OjmHDhu3Zs4dXli1bFhkZyaZf+8a8ly9fOjo6bt26VVSX7/ZNI5PQ48eP6Shu3brFZikyubm56fV63iAsLGzlypV8llBjWuXGjRvCIpgnRCYAAAAAUEQqMv18/9LY45szKjLYvw2n/2PKgXWiNhRjJk6cOHr06PXr12u1Wko7hu636lGciI2NTUlJSU5O3rJlS3BwsLu7O1vltZGpsrKSVucvH3Hy3b5pZHr06NHGjRuDgoKohwkTJlhYWJSVlbE2FJni4uL46sTPzy8pKUlYuX//Pu3M2bNnhUUwT4hMAAAAAKCIVGSyTZ+Xej6NR6Yv/pxuv0MjbmQwPH/+PDs7Ozw8fMiQIWq1uq6urqKiguIEhajtAvx+pNdGposXL9LqtbW1orp8tzKRKSIiwjgyTZ48OSws7OTJk5TNqqurra2ti4uLWRuKTPytgMzMmTNXrVolrNTU1NDOXLt2TVgE84TIBAAAAACKSEUm1+xlwleZNv1xh/GrTEKUncaPH0+RpqWlxdLSUuqBchRa1qxZI64KPHnyhFYvLCwU1V/bLY9MgYGBmzdv5ou8vb1FkampqYkCz507d1iRJmhWJjLFx8eHhoYKK+Xl5QMHDmxtbRUWwTwhMgEAAACAIlKR6evq/x62O4Ldy5So3fbhvqXG9zLV19efOHGiq6vL0B1pxo4dyz5zKTo6Wq1W8zfXVVdXa7VaNp2QkODv7//gwQOKWML7hYSioqKoK3anUEdHx7lz51hdplthZEpKSnJ1dW1ubqb+c3NzKduIIlN7e7u1tfX+/fupQrEnODjYwsJCJjIVFRU5Ojqyw2S2bdvm4+MjaALmC5EJAAAAABSRikykpOY7z9/FD9mxcPLv1xrnJUP3fUfDhw8fNGjQqFGjPvjgg/DwcEojVNfpdDExMVZWVpQ0bG1t6f/s7Gy2Sl1dXUBAgI2NjfCJCyJtbW0REREUY1QqFXU+e/ZsVpfpVhiZKI95eHhQMzs7uwULFsyfP9/4jXl79+6lnp2dnakNnQHqTSYy0UHRtsrLy3nFy8srMzNT0ATMFyITAAAAACgiE5l6qKGhgbJTS0uLqE7Jh+r19fWdnZ2iRT3R3NxMq/MPeuJ60q1er6dsdu/ePfECgWfPnlVVVfXwzXXJyckazd9u5bp8+bKTk5PUE9LB3CAyAQAAAIAiyiNTf6DT6Xx9fVkGS0xMzM/PF7cAc4XIBAAAAACK9FVkampqWmCK8ctKAEogMgEAAACAIn0Vmdrb20tNYXdDAfQWRCYAAAAAUKSvIhPAu4HIBAAAAACKUGSSetg3wPuuqanpyy+/FH3PIzIBAAAAwBu4cuVKWVmZ+DdNgPcf5aXk5OS//OUvou95RCYAAAAAeDPHjx/fC/CT8+WXX/71r38Vf7sjMgEAAAAAAMhAZAIAAAAAAJCEyAQAAAAAACAJkQkAAAAAAEASIhMAAAAAAICk/w/nFm2QIFT0JAAAAABJRU5ErkJggg==;" vertex="1" parent="WIyWlLk6GJQsqaUBKTNV-1">
          <mxGeometry x="220" width="607.39" height="390" as="geometry" />
        </mxCell>
        <mxCell id="1HgmLcC0vFKbbUfVbBRL-2" value="&lt;h1 style=&quot;margin-top: 0px;&quot;&gt;&lt;span style=&quot;background-color: transparent; color: light-dark(rgb(0, 0, 0), rgb(255, 255, 255));&quot;&gt;Diagrama de Clases&lt;/span&gt;&lt;/h1&gt;&lt;h1 style=&quot;margin-top: 0px;&quot;&gt;&lt;span style=&quot;background-color: transparent; color: light-dark(rgb(0, 0, 0), rgb(255, 255, 255)); font-size: 12px; font-weight: normal;&quot;&gt;class ConexionDB {&amp;nbsp;&amp;nbsp;&lt;/span&gt;&lt;/h1&gt;&lt;p&gt;&amp;nbsp; &amp;nbsp; +conectar&lt;/p&gt;&lt;p&gt;&amp;nbsp; &amp;nbsp; +consultar_habitacion&amp;nbsp;&lt;/p&gt;&lt;p&gt;&amp;nbsp; &amp;nbsp; +crear_habitacion&lt;/p&gt;&lt;p&gt;}&amp;nbsp;&amp;nbsp;&lt;/p&gt;&lt;p&gt;&lt;br&gt;&lt;/p&gt;&lt;p&gt;class Habitacion {&amp;nbsp;&amp;nbsp;&lt;/p&gt;&lt;p&gt;&amp;nbsp; &amp;nbsp; -numero: int&amp;nbsp;&amp;nbsp;&lt;/p&gt;&lt;p&gt;&amp;nbsp; &amp;nbsp; -costo: float&amp;nbsp;&amp;nbsp;&lt;/p&gt;&lt;p&gt;&amp;nbsp; &amp;nbsp; -reservada: bool&amp;nbsp;&amp;nbsp;&lt;/p&gt;&lt;p&gt;&amp;nbsp; &amp;nbsp; -codtipo: str&lt;/p&gt;&lt;p&gt;&amp;nbsp; &amp;nbsp; -cod_estado:str&lt;/p&gt;&lt;p&gt;&amp;nbsp; &amp;nbsp;&amp;nbsp;&lt;/p&gt;&lt;p&gt;&amp;nbsp; &amp;nbsp; +habitaciones_disponibles()&lt;/p&gt;&lt;p&gt;&amp;nbsp; &amp;nbsp; +cambiar_estado()&lt;/p&gt;&lt;p&gt;&amp;nbsp; &amp;nbsp; +getnumero()&lt;/p&gt;&lt;p&gt;&amp;nbsp; &amp;nbsp; +setnumero()&lt;/p&gt;&lt;p&gt;&amp;nbsp; &amp;nbsp; +get_descripcion()&lt;/p&gt;&lt;p&gt;&amp;nbsp; &amp;nbsp; +set_descripcion()&lt;/p&gt;&lt;p&gt;&amp;nbsp; &amp;nbsp; +get_piso()&lt;/p&gt;&lt;p&gt;&amp;nbsp; &amp;nbsp; +set_tipo()&lt;/p&gt;&lt;p&gt;&amp;nbsp; &amp;nbsp; +get_tipo()&lt;/p&gt;&lt;p&gt;&amp;nbsp; &amp;nbsp; +set_cod_estado()&lt;/p&gt;&lt;p&gt;&amp;nbsp; &amp;nbsp; +get_cod_estado()&lt;/p&gt;&lt;p&gt;&amp;nbsp;&lt;/p&gt;&lt;p&gt;&amp;nbsp;}&lt;/p&gt;&lt;p&gt;&lt;br&gt;&lt;/p&gt;&lt;div&gt;&lt;br&gt;&lt;/div&gt;" style="text;html=1;whiteSpace=wrap;overflow=hidden;rounded=0;" vertex="1" parent="WIyWlLk6GJQsqaUBKTNV-1">
          <mxGeometry width="180" height="740" as="geometry" />
        </mxCell>
        <mxCell id="1HgmLcC0vFKbbUfVbBRL-3" value="&lt;h1 style=&quot;margin-top: 0px;&quot;&gt;&lt;p style=&quot;font-size: 12px; font-weight: 400;&quot;&gt;class HabitacionDoble {&amp;nbsp;&amp;nbsp;&lt;/p&gt;&lt;p style=&quot;font-size: 12px; font-weight: 400;&quot;&gt;&lt;br&gt;&lt;/p&gt;&lt;p style=&quot;font-size: 12px; font-weight: 400;&quot;&gt;&amp;nbsp; &amp;nbsp; +super_ ()&lt;/p&gt;&lt;p style=&quot;font-size: 12px; font-weight: 400;&quot;&gt;&amp;nbsp; &amp;nbsp; &amp;nbsp;-tipo&lt;/p&gt;&lt;p style=&quot;font-size: 12px; font-weight: 400;&quot;&gt;}&amp;nbsp;&amp;nbsp;&lt;/p&gt;&lt;p style=&quot;font-size: 12px; font-weight: 400;&quot;&gt;class HabitacionTriple {&amp;nbsp;&amp;nbsp;&lt;/p&gt;&lt;p style=&quot;font-size: 12px; font-weight: 400;&quot;&gt;&amp;nbsp; &amp;nbsp; +super_ ()&lt;/p&gt;&lt;p style=&quot;font-size: 12px; font-weight: 400;&quot;&gt;&amp;nbsp; &amp;nbsp; &amp;nbsp;-tipo&amp;nbsp;&lt;/p&gt;&lt;p style=&quot;font-size: 12px; font-weight: 400;&quot;&gt;}&amp;nbsp;&amp;nbsp;&lt;/p&gt;&lt;p style=&quot;font-size: 12px; font-weight: 400;&quot;&gt;class HabitacionCuadruple {&amp;nbsp;&amp;nbsp;&lt;/p&gt;&lt;p style=&quot;font-size: 12px; font-weight: 400;&quot;&gt;&amp;nbsp; &amp;nbsp; +super_ ()&lt;/p&gt;&lt;p style=&quot;font-size: 12px; font-weight: 400;&quot;&gt;&amp;nbsp; &amp;nbsp; &amp;nbsp;-tipo&lt;/p&gt;&lt;p style=&quot;font-size: 12px; font-weight: 400;&quot;&gt;{&lt;/p&gt;&lt;p style=&quot;font-size: 12px; font-weight: 400;&quot;&gt;&lt;br&gt;&lt;/p&gt;&lt;/h1&gt;" style="text;html=1;whiteSpace=wrap;overflow=hidden;rounded=0;" vertex="1" parent="WIyWlLk6GJQsqaUBKTNV-1">
          <mxGeometry x="210" y="420" width="180" height="360" as="geometry" />
        </mxCell>
        <mxCell id="1HgmLcC0vFKbbUfVbBRL-4" value="&lt;h1 style=&quot;margin-top: 0px;&quot;&gt;&lt;p style=&quot;font-size: 12px; font-weight: 400;&quot;&gt;class Huesped {&amp;nbsp;&amp;nbsp;&lt;/p&gt;&lt;p style=&quot;font-size: 12px; font-weight: 400;&quot;&gt;&lt;br&gt;&lt;/p&gt;&lt;p style=&quot;font-size: 12px; font-weight: 400;&quot;&gt;&amp;nbsp; &amp;nbsp;-nombre: str,&amp;nbsp;&lt;/p&gt;&lt;p style=&quot;font-size: 12px; font-weight: 400;&quot;&gt;&amp;nbsp; &amp;nbsp;-cedula: int,&amp;nbsp;&lt;/p&gt;&lt;p style=&quot;font-size: 12px; font-weight: 400;&quot;&gt;&amp;nbsp; &amp;nbsp;-celular: str,&lt;/p&gt;&lt;p style=&quot;font-size: 12px; font-weight: 400;&quot;&gt;&amp;nbsp;&amp;nbsp;&lt;/p&gt;&lt;p style=&quot;font-size: 12px; font-weight: 400;&quot;&gt;&amp;nbsp; &amp;nbsp; +crear_huesped()&amp;nbsp;&amp;nbsp;&lt;/p&gt;&lt;p style=&quot;font-size: 12px; font-weight: 400;&quot;&gt;&amp;nbsp; &amp;nbsp; +borrar_huesped()&amp;nbsp;&amp;nbsp;&lt;/p&gt;&lt;p style=&quot;font-size: 12px; font-weight: 400;&quot;&gt;&amp;nbsp; &amp;nbsp; +modificar_huesped()&amp;nbsp;&amp;nbsp;&lt;/p&gt;&lt;p style=&quot;font-size: 12px; font-weight: 400;&quot;&gt;&amp;nbsp; &amp;nbsp; +consultar_huesped(criterio: str)&amp;nbsp;&amp;nbsp;&lt;/p&gt;&lt;p style=&quot;font-size: 12px; font-weight: 400;&quot;&gt;&amp;nbsp; &amp;nbsp; +get_nombre()&lt;/p&gt;&lt;p style=&quot;font-size: 12px; font-weight: 400;&quot;&gt;&amp;nbsp; &amp;nbsp; +set_nombre()&lt;/p&gt;&lt;p style=&quot;font-size: 12px; font-weight: 400;&quot;&gt;&amp;nbsp; &amp;nbsp; +get_cedula()&lt;/p&gt;&lt;p style=&quot;font-size: 12px; font-weight: 400;&quot;&gt;&amp;nbsp; &amp;nbsp; +set_cedula()&lt;/p&gt;&lt;p style=&quot;font-size: 12px; font-weight: 400;&quot;&gt;&amp;nbsp; &amp;nbsp; +get_celular()&lt;/p&gt;&lt;p style=&quot;font-size: 12px; font-weight: 400;&quot;&gt;&amp;nbsp; &amp;nbsp; +set_celular()&lt;span style=&quot;background-color: transparent; color: light-dark(rgb(0, 0, 0), rgb(255, 255, 255));&quot;&gt;&amp;nbsp;&lt;/span&gt;&lt;/p&gt;&lt;p style=&quot;font-size: 12px; font-weight: 400;&quot;&gt;}&amp;nbsp;&amp;nbsp;&lt;/p&gt;&lt;/h1&gt;" style="text;html=1;whiteSpace=wrap;overflow=hidden;rounded=0;" vertex="1" parent="WIyWlLk6GJQsqaUBKTNV-1">
          <mxGeometry x="350" y="420" width="180" height="480" as="geometry" />
        </mxCell>
        <mxCell id="1HgmLcC0vFKbbUfVbBRL-5" value="&lt;h1 style=&quot;margin-top: 0px;&quot;&gt;&lt;p style=&quot;font-size: 12px; font-weight: 400;&quot;&gt;class reserva_hotel {&lt;/p&gt;&lt;p style=&quot;font-size: 12px; font-weight: 400;&quot;&gt;&amp;nbsp; &amp;nbsp;&amp;nbsp;&lt;/p&gt;&lt;p style=&quot;font-size: 12px; font-weight: 400;&quot;&gt;&amp;nbsp; &amp;nbsp; -reservanum: str,&lt;/p&gt;&lt;p style=&quot;font-size: 12px; font-weight: 400;&quot;&gt;&amp;nbsp; &amp;nbsp; -habitanum: str,&lt;/p&gt;&lt;p style=&quot;font-size: 12px; font-weight: 400;&quot;&gt;&amp;nbsp; &amp;nbsp; -codcliente: str,&lt;/p&gt;&lt;p style=&quot;font-size: 12px; font-weight: 400;&quot;&gt;&amp;nbsp; &amp;nbsp; -fecha_reserva: str,&lt;/p&gt;&lt;p style=&quot;font-size: 12px; font-weight: 400;&quot;&gt;&amp;nbsp; &amp;nbsp; -cantidad_dias: str,&lt;/p&gt;&lt;p style=&quot;font-size: 12px; font-weight: 400;&quot;&gt;&amp;nbsp; &amp;nbsp; -fecha_salida: str,&lt;/p&gt;&lt;p style=&quot;font-size: 12px; font-weight: 400;&quot;&gt;&amp;nbsp; &amp;nbsp; -estado: str,&lt;/p&gt;&lt;p style=&quot;font-size: 12px; font-weight: 400;&quot;&gt;&lt;br&gt;&lt;/p&gt;&lt;p style=&quot;font-size: 12px; font-weight: 400;&quot;&gt;&amp;nbsp; &amp;nbsp; +eliminar_reserva()&lt;/p&gt;&lt;p style=&quot;font-size: 12px; font-weight: 400;&quot;&gt;&amp;nbsp; &amp;nbsp; +reserva_numero()&lt;/p&gt;&lt;p style=&quot;font-size: 12px; font-weight: 400;&quot;&gt;&amp;nbsp; &amp;nbsp; +guardar_reserva()&lt;/p&gt;&lt;p style=&quot;font-size: 12px; font-weight: 400;&quot;&gt;&amp;nbsp; &amp;nbsp; +consultar_reservas_por_cliente()&lt;/p&gt;&lt;p style=&quot;font-size: 12px; font-weight: 400;&quot;&gt;}&lt;/p&gt;&lt;p style=&quot;font-size: 12px; font-weight: 400;&quot;&gt;&lt;br&gt;&lt;/p&gt;&lt;p style=&quot;font-size: 12px; font-weight: 400;&quot;&gt;&lt;br&gt;&lt;/p&gt;&lt;/h1&gt;" style="text;html=1;whiteSpace=wrap;overflow=hidden;rounded=0;" vertex="1" parent="WIyWlLk6GJQsqaUBKTNV-1">
          <mxGeometry x="530" y="420" width="180" height="430" as="geometry" />
        </mxCell>
        <mxCell id="1HgmLcC0vFKbbUfVbBRL-7" value="&lt;h1 style=&quot;margin-top: 0px;&quot;&gt;&lt;p style=&quot;font-size: 12px; font-weight: 400;&quot;&gt;class ReservaContext {&lt;/p&gt;&lt;p style=&quot;font-size: 12px; font-weight: 400;&quot;&gt;&amp;nbsp; &amp;nbsp;&amp;nbsp;&lt;/p&gt;&lt;p style=&quot;font-size: 12px; font-weight: 400;&quot;&gt;&amp;nbsp; &amp;nbsp; +habita_seleccionado: str&lt;/p&gt;&lt;p style=&quot;font-size: 12px; font-weight: 400;&quot;&gt;&amp;nbsp; &amp;nbsp;&amp;nbsp;&lt;/p&gt;&lt;p style=&quot;font-size: 12px; font-weight: 400;&quot;&gt;&amp;nbsp; &amp;nbsp; +habitacion_seleccionada()&lt;/p&gt;&lt;p style=&quot;font-size: 12px; font-weight: 400;&quot;&gt;}&lt;/p&gt;&lt;p style=&quot;font-size: 12px; font-weight: 400;&quot;&gt;&lt;br&gt;&lt;/p&gt;&lt;p style=&quot;font-size: 12px; font-weight: 400;&quot;&gt;class TipoHabitacion {&lt;/p&gt;&lt;p style=&quot;font-size: 12px; font-weight: 400;&quot;&gt;&lt;br&gt;&lt;/p&gt;&lt;p style=&quot;font-size: 12px; font-weight: 400;&quot;&gt;&amp;nbsp; &amp;nbsp; +codtipo: str&lt;/p&gt;&lt;p style=&quot;font-size: 12px; font-weight: 400;&quot;&gt;&amp;nbsp; &amp;nbsp; +descripcion: str&lt;/p&gt;&lt;p style=&quot;font-size: 12px; font-weight: 400;&quot;&gt;&amp;nbsp; &amp;nbsp; +costo: int&lt;/p&gt;&lt;p style=&quot;font-size: 12px; font-weight: 400;&quot;&gt;&amp;nbsp; &amp;nbsp; +estado: str&lt;/p&gt;&lt;p style=&quot;font-size: 12px; font-weight: 400;&quot;&gt;&amp;nbsp; &amp;nbsp;&amp;nbsp;&lt;/p&gt;&lt;p style=&quot;font-size: 12px; font-weight: 400;&quot;&gt;&amp;nbsp; &amp;nbsp; +cargarTipoHabitacion()&lt;/p&gt;&lt;p style=&quot;font-size: 12px; font-weight: 400;&quot;&gt;&amp;nbsp; &amp;nbsp; +cargaHabitacionDisponible()&lt;span style=&quot;background-color: transparent; color: light-dark(rgb(0, 0, 0), rgb(255, 255, 255));&quot;&gt;&amp;nbsp; &amp;nbsp;&lt;/span&gt;&lt;/p&gt;&lt;p style=&quot;font-size: 12px; font-weight: 400;&quot;&gt;}&lt;/p&gt;&lt;/h1&gt;" style="text;html=1;whiteSpace=wrap;overflow=hidden;rounded=0;" vertex="1" parent="WIyWlLk6GJQsqaUBKTNV-1">
          <mxGeometry x="710" y="430" width="180" height="480" as="geometry" />
        </mxCell>
        <mxCell id="1HgmLcC0vFKbbUfVbBRL-8" value="&lt;h1 style=&quot;forced-color-adjust: none; color: rgb(0, 0, 0); font-family: Helvetica; font-style: normal; font-variant-ligatures: normal; font-variant-caps: normal; letter-spacing: normal; orphans: 2; text-align: left; text-indent: 0px; text-transform: none; widows: 2; word-spacing: 0px; -webkit-text-stroke-width: 0px; white-space: normal; background-color: rgb(251, 251, 251); text-decoration-thickness: initial; text-decoration-style: initial; text-decoration-color: initial; margin-top: 0px;&quot;&gt;&lt;p style=&quot;forced-color-adjust: none; font-size: 12px; font-weight: 400;&quot;&gt;Habitacion&amp;lt;|-- HabitacionDoble&amp;nbsp;&amp;nbsp;&lt;/p&gt;&lt;p style=&quot;forced-color-adjust: none; font-size: 12px; font-weight: 400;&quot;&gt;Habitacion&amp;lt;|-- HabitacionTriple&amp;nbsp;&amp;nbsp;&lt;/p&gt;&lt;p style=&quot;forced-color-adjust: none; font-size: 12px; font-weight: 400;&quot;&gt;Habitacion&amp;lt;|-- HabitacionCuadruple&lt;/p&gt;&lt;/h1&gt;" style="text;whiteSpace=wrap;html=1;" vertex="1" parent="WIyWlLk6GJQsqaUBKTNV-1">
          <mxGeometry y="810" width="220" height="120" as="geometry" />
        </mxCell>
      </root>
    </mxGraphModel>
  </diagram>
</mxfile>
